SplineFontDB: 3.0
FontName: OxygenMono-Regular
FullName: Oxygen Mono
FamilyName: Oxygen Mono
Weight: Book
Copyright: Copyright (c) 2011-12 by vernon adams.
UComments: "metrics +AD0A 1901, -483" 
Version: 0.2
ItalicAngle: 0
UnderlinePosition: -119
UnderlineWidth: 119
Ascent: 1638
Descent: 410
UFOAscent: 1638
UFODescent: -410
LayerCount: 2
Layer: 0 0 "Back"  1
Layer: 1 0 "Fore"  0
NeedsXUIDChange: 1
UseXUID: 1
FSType: 0
OS2Version: 3
OS2_WeightWidthSlopeOnly: 0
OS2_UseTypoMetrics: 1
CreationTime: 1332539176
ModificationTime: 1335432484
PfmFamily: 49
TTFWeight: 400
TTFWidth: 5
LineGap: 0
VLineGap: 0
Panose: 2 0 5 9 0 0 0 0 0 0
OS2TypoAscent: 1901
OS2TypoAOffset: 0
OS2TypoDescent: -483
OS2TypoDOffset: 0
OS2TypoLinegap: 0
OS2WinAscent: 1901
OS2WinAOffset: 0
OS2WinDescent: 483
OS2WinDOffset: 0
HheadAscent: 1901
HheadAOffset: 0
HheadDescent: -483
HheadDOffset: 0
OS2SubXSize: 1331
OS2SubYSize: 1228
OS2SubXOff: 0
OS2SubYOff: 153
OS2SupXSize: 1331
OS2SupYSize: 1228
OS2SupXOff: 0
OS2SupYOff: 716
OS2StrikeYSize: 119
OS2StrikeYPos: 658
OS2Vendor: 'newt'
OS2CodePages: 20000093.00000000
OS2UnicodeRanges: 8000002f.0000204a.00000000.00000000
MarkAttachClasses: 1
DEI: 91125
LangName: 1033 "" "" "" "Oxygen Mono Regular" "" "Version 0.2" "" "Oxygen Mono is a trademark of vernon adams." "vernon adams" "vernon adams" "Copyright (c) 2011-12 by vernon adams. All rights reserved." "newtypography.co.uk" "newtypography.co.uk" "" "http://scripts.sil.org/OFL" "" "Oxygen Mono" "Regular" "Oxygen Mono" 
PickledData: "(dp1
S'com.typemytype.robofont.compileSettings.autohint'
p2
I0
sS'com.typemytype.robofont.compileSettings.decompose'
p3
I0
sS'com.typemytype.robofont.foreground.layerStrokeColor'
p4
(F0.5
F0
F0.5
F0.69999999999999996
tp5
sS'com.typemytype.robofont.compileSettings.releaseMode'
p6
I0
sS'com.typemytype.robofont.compileSettings.checkOutlines'
p7
I0
sS'com.typemytype.robofont.compileSettings.path'
p8
S'/Users/vern/oxygen-fonts/Monospace/OxygenMono-Regular.ttf'
p9

StartChar: A
Encoding: 33 65 0
Width: 1229
VWidth: 0
Flags: W
PickledData: "(dp1
S'com.typemytype.robofont.layerData'
p2
(dp3
S'back'
p4
(dp5
S'name'
p6
S'A'
sS'lib'
p7
(dp8
sS'unicodes'
p9
(tsS'width'
p10
I1229
sS'contours'
p11
(tsS'components'
p12
(tsS'anchors'
p13
(tsss."
HStem: 0 21G<68 269.821 958.137 1161> 481 150<443 785> 1471 20G<502.098 725.915>
VStem: 68 196<0 196> 964 197<0 197>
DStem2: 68 0 264 0 0.283037 0.959109<55.4752 556.432 711.337 711.337>
LayerCount: 2
Fore
SplineSet
443 631 m 1
 785 631 l 1
 617 1278 l 1
 443 631 l 1
720 1491 m 1
 1161 0 l 1
 964 0 l 1
 823 481 l 1
 404 481 l 1
 264 0 l 1
 68 0 l 1
 508 1491 l 1
 720 1491 l 1
EndSplineSet
EndChar

StartChar: AE
Encoding: 133 198 1
Width: 1229
VWidth: 0
Flags: W
PickledData: "(dp1
S'com.typemytype.robofont.layerData'
p2
(dp3
S'back'
p4
(dp5
S'name'
p6
S'AE'
p7
sS'lib'
p8
(dp9
sS'unicodes'
p10
(tsS'width'
p11
I1229
sS'contours'
p12
(tsS'components'
p13
(tsS'anchors'
p14
(tsss."
HStem: 0 151<871 1182> 431 160<441 692> 721 160<871 1166> 1411 161<871 1153>
VStem: 692 179<151 431 591 721 881 1360>
LayerCount: 2
Fore
SplineSet
692 591 m 1
 692 1360 l 1
 441 591 l 1
 692 591 l 1
612 1572 m 1
 1165 1572 l 1
 1153 1411 l 1
 871 1411 l 1
 871 881 l 1
 1179 881 l 1
 1166 721 l 1
 871 721 l 1
 871 151 l 1
 1194 151 l 1
 1182 0 l 1
 692 0 l 1
 692 431 l 1
 380 431 l 1
 235 0 l 1
 27 0 l 1
 612 1572 l 1
EndSplineSet
EndChar

StartChar: B
Encoding: 34 66 11
Width: 1229
VWidth: 0
Flags: W
PickledData: "(dp1
S'com.typemytype.robofont.layerData'
p2
(dp3
S'back'
p4
(dp5
S'name'
p6
S'B'
sS'lib'
p7
(dp8
sS'unicodes'
p9
(tsS'width'
p10
I1229
sS'contours'
p11
(tsS'components'
p12
(tsS'anchors'
p13
(tsss."
HStem: 0 146<344 779.551> 715 161<344 733.841> 1345 146<344 735.817>
VStem: 157 187<146 715 876 1345> 839 196<962.996 1252.71> 915 197<267.284 603.334>
LayerCount: 2
Fore
SplineSet
491 876 m 2xf8
 678 876 839 917 839 1090 c 0
 839 1324 696 1344 396 1345 c 1
 344 1345 l 1
 344 876 l 1
 491 876 l 2xf8
536 715 m 2
 344 715 l 1
 344 146 l 1
 505 146 l 2
 777 146 915 208 915 442 c 0xf4
 915 661 766 715 536 715 c 2
1112 433 m 0
 1112 105 857 0 516 0 c 2
 157 0 l 1
 157 1491 l 1
 450 1491 l 2
 761 1491 1035 1436 1035 1125 c 0xf8
 1035 944 919 851 768 810 c 1
 961 782 1112 635 1112 433 c 0
EndSplineSet
EndChar

StartChar: C
Encoding: 35 67 12
Width: 1229
VWidth: 0
Flags: W
PickledData: "(dp1
S'com.typemytype.robofont.layerData'
p2
(dp3
S'back'
p4
(dp5
S'name'
p6
S'C'
sS'lib'
p7
(dp8
sS'unicodes'
p9
(tsS'width'
p10
I1229
sS'contours'
p11
(tsS'components'
p12
(tsS'anchors'
p13
(tsss."
HStem: -25 155<583.891 962.485> 1363 153<578.491 965.632>
VStem: 124 196<462.178 1033.04>
LayerCount: 2
Fore
SplineSet
1128 1391 m 1
 1062 1260 l 1
 986 1319 892 1363 760 1363 c 0
 468 1363 320 1074 320 748 c 0
 320 406 481 130 757 130 c 0
 889 130 992 179 1064 238 c 1
 1129 97 l 1
 1034 14 899 -25 734 -25 c 0
 362 -25 124 303 124 750 c 0
 124 1217 388 1516 734 1516 c 0
 899 1516 1033 1473 1128 1391 c 1
EndSplineSet
EndChar

StartChar: Cdotaccent
Encoding: 201 266 17
Width: 1229
VWidth: 0
Flags: W
PickledData: "(dp1
S'com.typemytype.robofont.layerData'
p2
(dp3
S'back'
p4
(dp5
S'name'
p6
S'Cdotaccent'
p7
sS'lib'
p8
(dp9
sS'unicodes'
p10
(tsS'width'
p11
I1229
sS'contours'
p12
(tsS'components'
p13
(tsS'anchors'
p14
(tsss."
HStem: -25 155<583.891 962.485> 1363 153<578.491 965.632> 1618 177<556 733>
VStem: 124 196<462.178 1033.04> 556 177<1618 1795>
LayerCount: 2
Fore
SplineSet
556 1795 m 1
 733 1795 l 1
 733 1618 l 1
 556 1618 l 1
 556 1795 l 1
EndSplineSet
Refer: 12 67 N 1 0 0 1 0 0 2
EndChar

StartChar: D
Encoding: 36 68 18
Width: 1229
VWidth: 0
Flags: W
PickledData: "(dp1
S'com.typemytype.robofont.layerData'
p2
(dp3
S'back'
p4
(dp5
S'name'
p6
S'D'
sS'lib'
p7
(dp8
sS'unicodes'
p9
(tsS'width'
p10
I1229
sS'contours'
p11
((dp12
S'points'
p13
((dp14
S'segmentType'
p15
S'curve'
p16
sS'x'
F631
sS'smooth'
p17
I01
sS'y'
F-25
s(dp18
S'y'
F-25
sS'x'
F292
sg17
I00
s(dp19
S'y'
F337
sS'x'
F140
sg17
I00
s(dp20
g15
S'curve'
p21
sS'x'
F140
sg17
I01
sS'y'
F747
s(dp22
S'y'
F1124
sS'x'
F140
sg17
I00
s(dp23
S'y'
F1516
sS'x'
F259
sg17
I00
s(dp24
g15
S'curve'
p25
sS'x'
F631
sg17
I01
sS'y'
F1516
s(dp26
S'y'
F1516
sS'x'
F1003
sg17
I00
s(dp27
S'y'
F1124
sS'x'
F1122
sg17
I00
s(dp28
g15
S'curve'
p29
sS'x'
F1122
sg17
I01
sS'y'
F747
s(dp30
S'y'
F337
sS'x'
F1122
sg17
I00
s(dp31
S'y'
F-25
sS'x'
F970
sg17
I00
stp32
s(dp33
g13
((dp34
g15
S'curve'
p35
sS'x'
F631
sg17
I01
sS'y'
F1363
s(dp36
S'y'
F1363
sS'x'
F434
sg17
I00
s(dp37
S'y'
F1091
sS'x'
F336
sg17
I00
s(dp38
g15
S'curve'
p39
sS'x'
F336
sg17
I01
sS'y'
F746
s(dp40
S'y'
F401
sS'x'
F336
sg17
I00
s(dp41
S'y'
F130
sS'x'
F435
sg17
I00
s(dp42
g15
S'curve'
p43
sS'x'
F631
sg17
I01
sS'y'
F130
s(dp44
S'y'
F130
sS'x'
F827
sg17
I00
s(dp45
S'y'
F401
sS'x'
F926
sg17
I00
s(dp46
g15
S'curve'
p47
sS'x'
F926
sg17
I01
sS'y'
F746
s(dp48
S'y'
F1091
sS'x'
F926
sg17
I00
s(dp49
S'y'
F1363
sS'x'
F828
sg17
I00
stp50
stp51
sS'components'
p52
(tsS'anchors'
p53
((dp54
S'y'
F1491
sS'x'
F632
sg6
S'top'
p55
stp56
sss."
HStem: 0 146<343 633.237> 1345 146<343 641.234>
VStem: 156 187<146 1345> 926 196<442.258 1057.36>
LayerCount: 2
Fore
SplineSet
372 146 m 2
 794 146 926 368 926 747 c 0
 926 1125 803 1345 374 1345 c 2
 343 1345 l 1
 343 146 l 1
 372 146 l 2
156 1491 m 1
 401 1491 l 2
 882 1491 1122 1218 1122 746 c 0
 1122 267 879 0 379 0 c 2
 156 0 l 1
 156 1491 l 1
EndSplineSet
EndChar

StartChar: E
Encoding: 37 69 21
Width: 1229
VWidth: 0
Flags: W
PickledData: "(dp1
S'com.typemytype.robofont.layerData'
p2
(dp3
S'back'
p4
(dp5
S'name'
p6
S'E'
sS'lib'
p7
(dp8
sS'unicodes'
p9
(tsS'width'
p10
I1229
sS'contours'
p11
(tsS'components'
p12
(tsS'anchors'
p13
(tsss."
HStem: 0 146<404 1093> 684 159<404 1026> 1345 146<404 1059>
VStem: 217 187<146 684 843 1345>
LayerCount: 2
Fore
SplineSet
404 684 m 1
 404 146 l 1
 1108 146 l 1
 1093 0 l 1
 217 0 l 1
 217 1491 l 1
 1075 1491 l 1
 1059 1345 l 1
 404 1345 l 1
 404 843 l 1
 1026 843 l 1
 1026 684 l 1
 404 684 l 1
EndSplineSet
EndChar

StartChar: Eth
Encoding: 143 208 29
Width: 1229
VWidth: 0
Flags: W
HStem: 0 160<405 977.099> 714 149<0 215 405 633> 1420 161<405 953.91>
VStem: 215 190<160 714 863 1420> 1381 203<531.013 1060.01>
LayerCount: 2
Fore
SplineSet
694 160 m 2
 1112 160 1381 366 1381 782 c 0
 1381 1275 1078 1420 587 1420 c 2
 405 1420 l 1
 405 863 l 1
 633 863 l 1
 633 714 l 1
 405 714 l 1
 405 160 l 1
 694 160 l 2
563 1581 m 2
 1167 1581 1584 1391 1584 786 c 0
 1584 259 1203 0 676 0 c 2
 215 0 l 1
 215 714 l 1
 0 714 l 1
 0 863 l 1
 215 863 l 1
 215 1581 l 1
 563 1581 l 2
EndSplineSet
EndChar

StartChar: Euro
Encoding: 549 8364 30
Width: 1229
VWidth: 0
Flags: W
HStem: -22 158<668.587 1059.94> 560 150<122 235 446 1046> 851 150<122 234 450 1082> 1415 157<686.768 1052.9>
VStem: 232 195<710 850.109>
LayerCount: 2
Fore
SplineSet
235 710 m 1
 233 736 232 764 232 792 c 0
 232 812 233 832 234 851 c 1
 96 851 l 1
 122 1001 l 1
 255 1001 l 1
 316 1323 526 1572 864 1572 c 0
 1021 1572 1151 1526 1237 1444 c 1
 1198 1239 l 1
 1130 1336 1028 1415 872 1415 c 0
 614 1415 496 1213 450 1001 c 1
 1106 1001 l 1
 1082 851 l 1
 430 851 l 1
 427 807 l 1
 427 773 428 741 431 710 c 1
 1067 710 l 1
 1046 560 l 1
 446 560 l 1
 479 320 590 136 863 136 c 0
 1010 136 1125 206 1213 275 c 1
 1212 81 l 1
 1116 17 994 -22 845 -22 c 0
 467 -22 295 228 249 560 c 1
 100 560 l 1
 122 710 l 1
 235 710 l 1
EndSplineSet
EndChar

StartChar: F
Encoding: 38 70 31
Width: 1229
VWidth: 0
Flags: W
PickledData: "(dp1
S'com.typemytype.robofont.layerData'
p2
(dp3
S'back'
p4
(dp5
S'name'
p6
S'F'
sS'lib'
p7
(dp8
sS'unicodes'
p9
(tsS'width'
p10
I1229
sS'contours'
p11
(tsS'components'
p12
(tsS'anchors'
p13
(tsss."
HStem: 0 21G<244 431> 683 163<431 1034> 1345 146<431 1060>
VStem: 244 187<0 683 846 1345>
LayerCount: 2
Fore
SplineSet
431 683 m 1
 431 0 l 1
 244 0 l 1
 244 1491 l 1
 1078 1491 l 1
 1060 1345 l 1
 431 1345 l 1
 431 846 l 1
 1034 846 l 1
 1034 683 l 1
 431 683 l 1
EndSplineSet
EndChar

StartChar: G
Encoding: 39 71 32
Width: 1229
VWidth: 0
Flags: W
PickledData: "(dp1
S'com.typemytype.robofont.layerData'
p2
(dp3
S'back'
p4
(dp5
S'name'
p6
S'G'
sS'lib'
p7
(dp8
sS'unicodes'
p9
(tsS'width'
p10
I1229
sS'contours'
p11
((dp12
S'points'
p13
((dp14
S'segmentType'
p15
S'curve'
p16
sS'x'
F1121
sS'smooth'
p17
I00
sS'y'
F1391
s(dp18
g15
S'line'
p19
sS'x'
F1055
sg17
I00
sS'y'
F1260
s(dp20
S'y'
F1319
sS'x'
F979
sg17
I00
s(dp21
S'y'
F1363
sS'x'
F885
sg17
I00
s(dp22
g15
S'curve'
p23
sS'x'
F753
sg17
I01
sS'y'
F1363
s(dp24
S'y'
F1363
sS'x'
F461
sg17
I00
s(dp25
S'y'
F1074
sS'x'
F313
sg17
I00
s(dp26
g15
S'curve'
p27
sS'x'
F313
sg17
I01
sS'y'
F748
s(dp28
S'y'
F406
sS'x'
F313
sg17
I00
s(dp29
S'y'
F130
sS'x'
F474
sg17
I00
s(dp30
g15
S'curve'
p31
sS'x'
F750
sg17
I01
sS'y'
F130
s(dp32
S'y'
F130
sS'x'
F882
sg17
I00
s(dp33
S'y'
F179
sS'x'
F985
sg17
I00
s(dp34
g15
S'curve'
p35
sS'x'
F1057
sg17
I00
sS'y'
F238
s(dp36
g15
S'line'
p37
sS'x'
F1122
sg17
I00
sS'y'
F97
s(dp38
S'y'
F14
sS'x'
F1027
sg17
I00
s(dp39
S'y'
F-25
sS'x'
F892
sg17
I00
s(dp40
g15
S'curve'
p41
sS'x'
F727
sg17
I01
sS'y'
F-25
s(dp42
S'y'
F-25
sS'x'
F355
sg17
I00
s(dp43
S'y'
F303
sS'x'
F117
sg17
I00
s(dp44
g15
S'curve'
p45
sS'x'
F117
sg17
I01
sS'y'
F750
s(dp46
S'y'
F1217
sS'x'
F117
sg17
I00
s(dp47
S'y'
F1516
sS'x'
F381
sg17
I00
s(dp48
g15
S'curve'
p49
sS'x'
F727
sg17
I01
sS'y'
F1516
s(dp50
S'y'
F1516
sS'x'
F892
sg17
I00
s(dp51
S'y'
F1473
sS'x'
F1026
sg17
I00
stp52
stp53
sS'components'
p54
(tsS'anchors'
p55
((dp56
S'y'
F0
sS'x'
F603
sg6
S'bottom'
p57
s(dp58
S'y'
F1491
sS'x'
F603
sg6
S'top'
p59
stp60
sss."
HStem: -25 155<541.468 896.736> 625 153<644 975> 1363 152<564.989 950.382>
VStem: 107 196<449.033 1029.19> 975 173<192.261 625>
LayerCount: 2
Fore
SplineSet
1049 1255 m 1
 972 1325 865 1363 734 1363 c 0
 449 1362 303 1061 303 748 c 0
 303 422 427 130 704 130 c 0
 822 130 900 172 975 217 c 1
 975 625 l 1
 644 625 l 1
 644 778 l 1
 1148 778 l 1
 1148 132 l 1
 1023 52 886 -25 686 -25 c 0
 295 -25 107 328 107 750 c 0
 107 1213 370 1515 720 1515 c 0
 890 1515 1017 1473 1116 1388 c 1
 1099 1348 1049 1255 1049 1255 c 1
EndSplineSet
EndChar

StartChar: Gcommaaccent
Encoding: 225 290 35
Width: 1229
VWidth: 0
Flags: W
PickledData: "(dp1
S'com.typemytype.robofont.layerData'
p2
(dp3
S'back'
p4
(dp5
S'name'
p6
S'Gcommaaccent'
p7
sS'lib'
p8
(dp9
sS'unicodes'
p10
(tsS'width'
p11
I1229
sS'contours'
p12
(tsS'components'
p13
(tsS'anchors'
p14
(tsss."
HStem: -25 155<541.468 896.736> 625 153<644 975> 1363 152<564.989 950.382>
VStem: 107 196<449.033 1029.19> 975 173<192.261 625>
LayerCount: 2
Fore
SplineSet
809 -127 m 1
 628 -629 l 1
 483 -629 l 1
 601 -127 l 1
 809 -127 l 1
EndSplineSet
Refer: 32 71 N 1 0 0 1 0 0 2
EndChar

StartChar: Gdotaccent
Encoding: 223 288 36
Width: 1229
VWidth: 0
Flags: W
PickledData: "(dp1
S'com.typemytype.robofont.layerData'
p2
(dp3
S'back'
p4
(dp5
S'name'
p6
S'Gdotaccent'
p7
sS'lib'
p8
(dp9
sS'unicodes'
p10
(tsS'width'
p11
I1229
sS'contours'
p12
(tsS'components'
p13
(tsS'anchors'
p14
(tsss."
HStem: -25 155<541.468 896.736> 625 153<644 975> 1363 152<564.989 950.382> 1638 177<539 716>
VStem: 107 196<449.033 1029.19> 539 177<1638 1815> 975 173<192.261 625>
LayerCount: 2
Fore
SplineSet
539 1815 m 1
 716 1815 l 1
 716 1638 l 1
 539 1638 l 1
 539 1815 l 1
EndSplineSet
Refer: 32 71 N 1 0 0 1 0 0 3
EndChar

StartChar: H
Encoding: 40 72 37
Width: 1229
VWidth: 0
Flags: W
PickledData: "(dp1
S'com.typemytype.robofont.layerData'
p2
(dp3
S'back'
p4
(dp5
S'name'
p6
S'H'
sS'lib'
p7
(dp8
sS'unicodes'
p9
(tsS'width'
p10
I1229
sS'contours'
p11
(tsS'components'
p12
(tsS'anchors'
p13
(tsss."
HStem: 0 21G<140 327 902 1089> 702 153<327 902> 1471 20G<140 327 902 1089>
VStem: 140 187<0 702 855 1491> 902 187<0 702 855 1491>
LayerCount: 2
Fore
SplineSet
327 0 m 1
 140 0 l 1
 140 1491 l 1
 327 1491 l 1
 327 855 l 1
 902 855 l 1
 902 1491 l 1
 1089 1491 l 1
 1089 0 l 1
 902 0 l 1
 902 702 l 1
 327 702 l 1
 327 0 l 1
EndSplineSet
EndChar

StartChar: I
Encoding: 41 73 39
Width: 1229
VWidth: 0
Flags: W
PickledData: "(dp1
S'com.typemytype.robofont.layerData'
p2
(dp3
S'back'
p4
(dp5
S'name'
p6
S'I'
sS'lib'
p7
(dp8
sS'unicodes'
p9
(tsS'width'
p10
I1229
sS'contours'
p11
(tsS'components'
p12
(tsS'anchors'
p13
(tsss."
HStem: 0 146<194 517 704 1035> 1345 146<194 517 704 1035>
VStem: 517 187<146 1345>
LayerCount: 2
Fore
SplineSet
194 1345 m 1
 194 1491 l 1
 1035 1491 l 1
 1035 1345 l 1
 704 1345 l 1
 704 146 l 1
 1035 146 l 1
 1035 0 l 1
 194 0 l 1
 194 146 l 1
 517 146 l 1
 517 1345 l 1
 194 1345 l 1
EndSplineSet
EndChar

StartChar: IJ
Encoding: 241 306 40
Width: 1229
VWidth: 0
Flags: W
HStem: -15.3623 136.162<662.604 934.92> 0 146<55 218 405 576 660 827.962> 1345 146<55 218 405 576 679 987>
VStem: 218 187<146 1345> 987 187<173.045 1345>
LayerCount: 2
Fore
SplineSet
55 1345 m 1x78
 55 1491 l 1
 576 1491 l 1
 576 1345 l 1
 405 1345 l 1
 405 146 l 1
 576 146 l 1
 576 0 l 1
 55 0 l 1
 55 146 l 1
 218 146 l 1
 218 1345 l 1
 55 1345 l 1x78
660 0 m 1
 659 145 l 1
 720.638 135.568 779.721 120.8 830.341 120.8 c 0
 922.783 120.8 987 170.052 987 391 c 2
 987 1345 l 1
 679 1345 l 1
 679 1491 l 1
 1174 1491 l 1
 1174 443 l 2
 1174 71.9229 1061.6 -15.3623 851.928 -15.3623 c 0xb8
 795.017 -15.3623 730.94 -8.93164 660 0 c 1
EndSplineSet
EndChar

StartChar: Idotaccent
Encoding: 239 304 45
Width: 1229
VWidth: 0
Flags: W
HStem: 0 146<194 517 704 1035> 1345 146<194 517 704 1035> 1618 177<526 703>
VStem: 517 187<146 1345> 526 177<1618 1795>
LayerCount: 2
Fore
SplineSet
526 1795 m 1xe8
 703 1795 l 1
 703 1618 l 1
 526 1618 l 1
 526 1795 l 1xe8
EndSplineSet
Refer: 39 73 N 1 0 0 1 0 0 2
EndChar

StartChar: J
Encoding: 42 74 50
Width: 1229
VWidth: 0
Flags: W
PickledData: "(dp1
S'com.typemytype.robofont.layerData'
p2
(dp3
S'back'
p4
(dp5
S'name'
p6
S'J'
sS'lib'
p7
(dp8
sS'unicodes'
p9
(tsS'width'
p10
I1229
sS'contours'
p11
(tsS'components'
p12
(tsS'anchors'
p13
(tsss."
HStem: -15.9527 141.753<173.995 639.777> 0 151<169 320> 1345 146<309 737>
VStem: 737 187<222.608 1345>
LayerCount: 2
Fore
SplineSet
170 0 m 1x70
 169 151 l 1x70
 258.509 142.642 360.082 125.8 452.337 125.8 c 0
 607.921 125.8 737 173.704 737 391 c 2
 737 1345 l 1
 309 1345 l 1
 309 1491 l 1
 924 1491 l 1
 924 443 l 2
 924 63.1074 737.278 -15.9527 454.796 -15.9527 c 0xb0
 368.022 -15.9527 272.21 -8.49227 170 0 c 1x70
EndSplineSet
EndChar

StartChar: Jcircumflex
Encoding: 243 308 51
Width: 1229
VWidth: 0
Flags: W
HStem: -26 160<137 508.393> 1328 163<229 574 761 1060>
VStem: 574 187<201.757 1328>
LayerCount: 2
Fore
SplineSet
682 2009 m 1
 941 1660 l 1
 798 1660 l 1
 594 1895 l 1
 392 1660 l 1
 256 1660 l 1
 515 2009 l 1
 682 2009 l 1
137 134 m 1
 350 134 l 2
 525 134 574 212 574 391 c 2
 574 1328 l 1
 229 1328 l 1
 229 1491 l 1
 1060 1491 l 1
 1060 1328 l 1
 761 1328 l 1
 761 443 l 2
 761 121 673 -26 371 -26 c 2
 137 -26 l 1
 137 134 l 1
EndSplineSet
EndChar

StartChar: K
Encoding: 43 75 52
Width: 1229
VWidth: 0
Flags: W
PickledData: "(dp1
S'com.typemytype.robofont.layerData'
p2
(dp3
S'back'
p4
(dp5
S'name'
p6
S'K'
sS'lib'
p7
(dp8
sS'unicodes'
p9
(tsS'width'
p10
I1229
sS'contours'
p11
((dp12
S'points'
p13
((dp14
S'segmentType'
p15
S'line'
p16
sS'x'
F398
sS'smooth'
p17
I00
sS'y'
F0
s(dp18
g15
S'line'
p19
sS'x'
F211
sg17
I00
sS'y'
F0
s(dp20
g15
S'line'
p21
sS'x'
F211
sg17
I00
sS'y'
F1491
s(dp22
g15
S'line'
p23
sS'x'
F398
sg17
I00
sS'y'
F1491
s(dp24
g15
S'line'
p25
sS'x'
F398
sg17
I00
sS'y'
F855
s(dp26
g15
S'line'
p27
sS'x'
F973
sg17
I00
sS'y'
F855
s(dp28
g15
S'line'
p29
sS'x'
F973
sg17
I00
sS'y'
F1491
s(dp30
g15
S'line'
p31
sS'x'
F1160
sg17
I00
sS'y'
F1491
s(dp32
g15
S'line'
p33
sS'x'
F1160
sg17
I00
sS'y'
F0
s(dp34
g15
S'line'
p35
sS'x'
F973
sg17
I00
sS'y'
F0
s(dp36
g15
S'line'
p37
sS'x'
F973
sg17
I00
sS'y'
F702
s(dp38
g15
S'line'
p39
sS'x'
F398
sg17
I00
sS'y'
F702
stp40
stp41
sS'components'
p42
(tsS'anchors'
p43
((dp44
S'y'
F1491
sS'x'
F614
sg6
S'top'
p45
s(dp46
S'y'
F746
sS'x'
F614
sg6
S'center'
p47
stp48
sss."
HStem: 0 21G<211 398 942.486 1193> 1471 20G<211 398 912.265 1160>
VStem: 211 187<0 561 773 1491> 927 233<1258 1491> 955 238<0 238>
DStem2: 398 773 661 823 0.593161 0.805084<196.255 891.832> 661 823 517 700 0.54287 -0.839816<25.1241 850.773>
LayerCount: 2
Fore
SplineSet
927 1491 m 1xf0
 1160 1491 l 1xf0
 661 823 l 1
 1193 0 l 1
 955 0 l 1xe8
 517 700 l 1
 398 561 l 1
 398 0 l 1
 211 0 l 1
 211 1491 l 1
 398 1491 l 1
 398 773 l 1
 927 1491 l 1xf0
EndSplineSet
EndChar

StartChar: Kcommaaccent
Encoding: 245 310 53
Width: 1229
VWidth: 0
Flags: W
PickledData: "(dp1
S'com.typemytype.robofont.layerData'
p2
(dp3
S'back'
p4
(dp5
S'name'
p6
S'Kcommaaccent'
p7
sS'lib'
p8
(dp9
sS'unicodes'
p10
(tsS'width'
p11
I1229
sS'contours'
p12
(tsS'components'
p13
(tsS'anchors'
p14
(tsss."
HStem: 0 21<211 398 942.486 1193> 1471 20<211 398 912.265 1160>
VStem: 211 187<0 561 773 1491> 927 233<1258 1491> 955 238<0 238>
DStem2: 398 773 661 823 0.593161 0.805084<196.255 891.832> 661 823 517 700 0.54287 -0.839816<25.1241 850.773>
LayerCount: 2
Fore
SplineSet
891 -102 m 1xe0
 710 -604 l 1
 565 -604 l 1
 683 -102 l 1
 891 -102 l 1xe0
EndSplineSet
Refer: 52 75 N 1 0 0 1 0 0 2
EndChar

StartChar: L
Encoding: 44 76 54
Width: 1229
VWidth: 0
Flags: W
PickledData: "(dp1
S'com.typemytype.robofont.layerData'
p2
(dp3
S'back'
p4
(dp5
S'name'
p6
S'L'
sS'lib'
p7
(dp8
sS'unicodes'
p9
(tsS'width'
p10
I1229
sS'contours'
p11
(tsS'components'
p12
(tsS'anchors'
p13
(tsss."
HStem: 0 146<490 1056> 1471 20G<303 490>
VStem: 303 187<146 1491>
LayerCount: 2
Fore
SplineSet
490 146 m 5
 1066 146 l 5
 1056 0 l 5
 303 0 l 5
 303 1491 l 5
 490 1491 l 5
 490 146 l 5
EndSplineSet
EndChar

StartChar: Lcommaaccent
Encoding: 250 315 57
Width: 1229
VWidth: 0
Flags: W
PickledData: "(dp1
S'com.typemytype.robofont.layerData'
p2
(dp3
S'back'
p4
(dp5
S'name'
p6
S'Lcommaaccent'
p7
sS'lib'
p8
(dp9
sS'unicodes'
p10
(tsS'width'
p11
I1229
sS'contours'
p12
(tsS'components'
p13
(tsS'anchors'
p14
(tsss."
HStem: 0 146<490 1056> 1471 20<303 490>
VStem: 303 187<146 1491>
LayerCount: 2
Fore
SplineSet
844 -102 m 1
 663 -604 l 1
 518 -604 l 1
 636 -102 l 1
 844 -102 l 1
EndSplineSet
Refer: 54 76 N 1 0 0 1 0 0 2
EndChar

StartChar: Lslash
Encoding: 256 321 59
Width: 1229
VWidth: 0
Flags: W
HStem: 0 163<420 1129> 1471 20G<233 420>
VStem: 233 187<163 639.425 879.756 1491>
DStem2: 11 680 11 531 0.898557 0.438856<0 181.673 455.174 846.071>
LayerCount: 2
Fore
SplineSet
420 163 m 1
 1129 163 l 1
 1129 0 l 1
 233 0 l 1
 233 639.425 l 1
 11 531 l 1
 11 680 l 1
 233 788.425 l 1
 233 1491 l 1
 420 1491 l 1
 420 879.756 l 1
 830 1080 l 1
 830 931 l 1
 420 730.756 l 1
 420 163 l 1
EndSplineSet
EndChar

StartChar: M
Encoding: 45 77 60
Width: 1229
VWidth: 0
Flags: W
HStem: 0 21G<149 335 898 1079> 646 156<512 721> 1471 20G<149 410.183 823.817 1079>
VStem: 149 186<0 1230> 898 181<0 1230>
DStem2: 404 1491 335 1230 0.295352 -0.955388<228.977 721.173> 617 802 721 646 0.295352 0.955388<0 491.9>
LayerCount: 2
Fore
SplineSet
335 1230 m 1
 335 0 l 1
 149 0 l 1
 149 1491 l 1
 404 1491 l 1
 617 802 l 1
 830 1491 l 1
 1079 1491 l 1
 1079 0 l 1
 898 0 l 1
 898 1230 l 1
 721 646 l 1
 512 646 l 1
 335 1230 l 1
EndSplineSet
EndChar

StartChar: N
Encoding: 46 78 61
Width: 1229
VWidth: 0
Flags: W
HStem: 0 21G<150 320 849.078 1078> 1471 20G<150 374.085 911 1078>
VStem: 150 170<0 1206> 911 167<289 1491>
DStem2: 365 1491 320 1206 0.407403 -0.913249<241.943 1320.17>
LayerCount: 2
Fore
SplineSet
1078 0 m 1
 858 0 l 1
 320 1206 l 1
 320 0 l 1
 150 0 l 1
 150 1491 l 1
 365 1491 l 1
 911 289 l 1
 911 1491 l 1
 1078 1491 l 1
 1078 0 l 1
EndSplineSet
EndChar

StartChar: Ncommaaccent
Encoding: 260 325 64
Width: 1229
VWidth: 0
Flags: W
HStem: 0 21<150 320 849.078 1078> 1471 20<150 374.085 911 1078>
VStem: 150 170<0 1206> 911 167<289 1491>
DStem2: 365 1491 320 1206 0.407403 -0.913249<241.943 1320.17>
LayerCount: 2
Fore
SplineSet
777 -102 m 1
 596 -604 l 1
 451 -604 l 1
 569 -102 l 1
 777 -102 l 1
EndSplineSet
Refer: 61 78 N 1 0 0 1 0 0 2
EndChar

StartChar: O
Encoding: 47 79 66
Width: 1229
VWidth: 0
Flags: W
PickledData: "(dp1
S'com.typemytype.robofont.layerData'
p2
(dp3
S'back'
p4
(dp5
S'name'
p6
S'O'
sS'lib'
p7
(dp8
sS'unicodes'
p9
(tsS'width'
p10
I1229
sS'contours'
p11
(tsS'components'
p12
(tsS'anchors'
p13
(tsss."
HStem: -25 155<493.885 734.115> 1363 153<496.314 731.686>
VStem: 123 196<401.117 1098.72> 909 196<401.117 1098.72>
LayerCount: 2
Fore
SplineSet
614 1363 m 0
 417 1363 319 1091 319 746 c 0
 319 401 418 130 614 130 c 0
 810 130 909 401 909 746 c 0
 909 1091 811 1363 614 1363 c 0
614 -25 m 0
 275 -25 123 337 123 747 c 0
 123 1124 242 1516 614 1516 c 0
 986 1516 1105 1124 1105 747 c 0
 1105 337 953 -25 614 -25 c 0
EndSplineSet
EndChar

StartChar: OE
Encoding: 273 338 67
Width: 1229
VWidth: 0
Flags: W
HStem: 0 171<404.152 583 806 1116> 717 172<806 1047> 1397 171<416.621 583 806 1081>
VStem: 20 223<426.236 1141.93> 583 223<171 717 889 1389>
LayerCount: 2
Fore
SplineSet
243 791 m 0
 243 491 303 160 539 160 c 2
 583 160 l 1
 583 1389 l 1
 539 1389 l 2
 283 1389 243 1056 243 791 c 0
806 717 m 1
 806 171 l 1
 1133 171 l 1
 1116 0 l 1
 539 0 l 2
 147 0 20 393 20 789 c 0
 20 1210 180 1568 539 1568 c 2
 1097 1568 l 1
 1081 1397 l 1
 806 1397 l 1
 806 889 l 1
 1047 889 l 1
 1047 717 l 1
 806 717 l 1
EndSplineSet
EndChar

StartChar: Oslash
Encoding: 151 216 75
Width: 1229
VWidth: 0
Flags: W
HStem: -25 161<487.749 734.115> 1356 160<496.314 739.381>
VStem: 123 196<391.4 1097.53> 909 196<402.066 1102.6>
DStem2: 146 -171 281 -222 0.394329 0.91897<6.36691 290.211 578.027 1469.22 1766.53 2054.03>
LayerCount: 2
Fore
SplineSet
614 1356 m 0
 417 1356 319 1091 319 746 c 0
 319 597.778 337.273 464.323 373.662 360.305 c 1
 769.544 1284.19 l 1
 727.318 1330.19 675.48 1356 614 1356 c 0
281 -222 m 1
 146 -171 l 1
 281.604 145.465 l 1
 173.625 289.752 123 510.383 123 747 c 0
 123 1124 242 1516 614 1516 c 0
 704.142 1516 779.428 1492.98 841.765 1452.74 c 1
 955 1717 l 1
 1095 1675 l 1
 953.698 1345.7 l 1
 1063.7 1196.41 1105 969.1 1105 747 c 0
 1105 337 953 -25 614 -25 c 0
 528.639 -25 455.134 -2.04754 392.928 38.8442 c 1
 281 -222 l 1
463.382 203.034 m 1
 504.756 160.029 554.98 136 614 136 c 0
 810 136 909 401 909 746 c 0
 909 889.806 891.973 1019.71 857.846 1122.32 c 1
 463.382 203.034 l 1
EndSplineSet
EndChar

StartChar: P
Encoding: 48 80 77
Width: 1229
VWidth: 0
Flags: W
PickledData: "(dp1
S'com.typemytype.robofont.layerData'
p2
(dp3
S'back'
p4
(dp5
S'name'
p6
S'P'
sS'lib'
p7
(dp8
sS'unicodes'
p9
(tsS'width'
p10
I1229
sS'contours'
p11
((dp12
S'points'
p13
((dp14
S'segmentType'
p15
S'curve'
p16
sS'x'
F640
sS'smooth'
p17
I01
sS'y'
F288
s(dp18
S'y'
F288
sS'x'
F301
sg17
I00
s(dp19
S'y'
F650
sS'x'
F149
sg17
I00
s(dp20
g15
S'curve'
p21
sS'x'
F149
sg17
I01
sS'y'
F1060
s(dp22
S'y'
F1437
sS'x'
F149
sg17
I00
s(dp23
S'y'
F1829
sS'x'
F268
sg17
I00
s(dp24
g15
S'curve'
p25
sS'x'
F640
sg17
I01
sS'y'
F1829
s(dp26
S'y'
F1829
sS'x'
F1012
sg17
I00
s(dp27
S'y'
F1437
sS'x'
F1131
sg17
I00
s(dp28
g15
S'curve'
p29
sS'x'
F1131
sg17
I01
sS'y'
F1060
s(dp30
S'y'
F650
sS'x'
F1131
sg17
I00
s(dp31
S'y'
F288
sS'x'
F979
sg17
I00
stp32
s(dp33
g13
((dp34
g15
S'curve'
p35
sS'x'
F640
sg17
I01
sS'y'
F1676
s(dp36
S'y'
F1676
sS'x'
F443
sg17
I00
s(dp37
S'y'
F1404
sS'x'
F345
sg17
I00
s(dp38
g15
S'curve'
p39
sS'x'
F345
sg17
I01
sS'y'
F1059
s(dp40
S'y'
F714
sS'x'
F345
sg17
I00
s(dp41
S'y'
F443
sS'x'
F444
sg17
I00
s(dp42
g15
S'curve'
p43
sS'x'
F640
sg17
I01
sS'y'
F443
s(dp44
S'y'
F443
sS'x'
F836
sg17
I00
s(dp45
S'y'
F714
sS'x'
F935
sg17
I00
s(dp46
g15
S'curve'
p47
sS'x'
F935
sg17
I01
sS'y'
F1059
s(dp48
S'y'
F1404
sS'x'
F935
sg17
I00
s(dp49
S'y'
F1676
sS'x'
F837
sg17
I00
stp50
stp51
sS'components'
p52
(tsS'anchors'
p53
((dp54
S'y'
F1491
sS'x'
F615
sg6
S'top'
p55
stp56
sss."
HStem: 0 21G<176 363> 616 149<363 805.174> 1345 146<363 802.992>
VStem: 176 187<0 616 765 1345> 935 196<888.281 1223.09>
LayerCount: 2
Fore
SplineSet
363 765 m 1
 622 765 l 2
 805 765 935 861 935 1053 c 0
 935 1259 803 1345 622 1345 c 2
 363 1345 l 1
 363 765 l 1
1131 1062 m 0
 1131 703 888 616 572 616 c 2
 363 616 l 1
 363 0 l 1
 176 0 l 1
 176 1491 l 1
 573 1491 l 2
 882 1491 1131 1386 1131 1062 c 0
EndSplineSet
EndChar

StartChar: Q
Encoding: 49 81 78
Width: 1229
VWidth: 0
Flags: W
HStem: -458 21G<851.744 935.375> -25 155<456.572 609.09> 1363 153<457.314 692.686>
VStem: 84 196<401.117 1098.72> 870 196<394.896 1098.72>
LayerCount: 2
Fore
SplineSet
575 1363 m 0
 378 1363 280 1091 280 746 c 0
 280 401 379 130 575 130 c 0
 771 130 870 401 870 746 c 0
 870 1091 772 1363 575 1363 c 0
575 -25 m 0
 236 -25 84 337 84 747 c 0
 84 1124 203 1516 575 1516 c 0
 947 1516 1066 1124 1066 747 c 0
 1066 423.039 971.101 129.047 764.038 19.9235 c 1
 832.036 -117.043 930.021 -232.018 1040 -330 c 1
 916 -458 l 1
 787.488 -333.443 672.658 -191.295 588.898 -24.7949 c 1
 584.301 -24.9314 579.668 -25 575 -25 c 0
EndSplineSet
EndChar

StartChar: R
Encoding: 50 82 79
Width: 1229
VWidth: 0
Flags: W
PickledData: "(dp1
S'com.typemytype.robofont.layerData'
p2
(dp3
S'back'
p4
(dp5
S'name'
p6
S'R'
sS'lib'
p7
(dp8
sS'unicodes'
p9
(tsS'width'
p10
I1229
sS'contours'
p11
(tsS'components'
p12
(tsS'anchors'
p13
(tsss."
HStem: 662 162<567 626.822> 1345 146<476 790.552>
VStem: 920 195<936.644 1233.87>
LayerCount: 2
Fore
SplineSet
567 824 m 2
 373 824 l 1
 373 1345 l 1
 563 1345 l 2
 750 1345 920 1286 920 1098 c 0
 920 888 778 824 567 824 c 2
1115 1093 m 0
 1115 1439 821 1491 476 1491 c 2
 186 1491 l 1
 186 0 l 1
 373 0 l 1
 373 662 l 1
 460 662 l 2
 514 662 601 665 601 665 c 1
 790 400 862 230 968 0 c 1
 1185 0 l 1
 1074 244 959 484 784 707 c 1
 973 749 1115 873 1115 1093 c 0
EndSplineSet
EndChar

StartChar: Rcommaaccent
Encoding: 277 342 82
Width: 1229
VWidth: 0
Flags: W
PickledData: "(dp1
S'com.typemytype.robofont.layerData'
p2
(dp3
S'back'
p4
(dp5
S'name'
p6
S'Rcommaaccent'
p7
sS'lib'
p8
(dp9
sS'unicodes'
p10
(tsS'width'
p11
I1229
sS'contours'
p12
(tsS'components'
p13
(tsS'anchors'
p14
(tsss."
HStem: 662 162<567 626.822> 1345 146<476 790.552>
VStem: 920 195<936.644 1233.87>
LayerCount: 2
Fore
SplineSet
848.5 -122 m 1
 667.5 -624 l 1
 522.5 -624 l 1
 640.5 -122 l 1
 848.5 -122 l 1
EndSplineSet
Refer: 79 82 N 1 0 0 1 0 0 3
EndChar

StartChar: S
Encoding: 51 83 83
Width: 1229
VWidth: 0
Flags: W
HStem: -25 155<361.642 739.776> 1363 154<454.863 829.744>
VStem: 150 207<1001.12 1266.63> 843 211<233.407 539.524>
LayerCount: 2
Fore
SplineSet
212 261 m 1
 305 185 437 130 593 130 c 0
 755 130 843 238 843 404 c 0
 843 605 640 657 496 718 c 0
 324 790 150 879 150 1123 c 0
 150 1380 347 1517 604 1517 c 0
 771 1517 902 1481 997 1406 c 1
 927 1262 l 1
 850 1322 740 1363 614 1363 c 0
 457 1363 357 1272 357 1121 c 0
 357 938 577 890 706 833 c 0
 878 757 1054 658 1054 415 c 0
 1054 122 870 -25 589 -25 c 0
 408 -25 258 16 141 94 c 1
 212 261 l 1
EndSplineSet
EndChar

StartChar: Scommaaccent
Encoding: 326 536 88
Width: 1229
VWidth: 0
Flags: W
HStem: -25 173<348.716 749.406> 1345 172<443.34 833.564>
VStem: 150 207<1000.72 1263.75> 843 211<241.173 542.325>
LayerCount: 2
Fore
SplineSet
760 -176 m 1
 579 -678 l 1
 434 -678 l 1
 552 -176 l 1
 760 -176 l 1
212 271 m 1
 305 195 437 148 593 148 c 0
 755 148 843 238 843 404 c 0
 843 605 640 657 496 718 c 0
 324 790 150 879 150 1123 c 0
 150 1380 347 1517 604 1517 c 0
 771 1517 900 1476 995 1401 c 1
 925 1249 l 1
 844 1312 728 1345 594 1345 c 0
 448 1345 357 1264.01 357 1119 c 0
 357 938 578 890 706 833 c 0
 883 755 1054 652 1054 395 c 0
 1054 116 866 -25 589 -25 c 0
 408 -25 258 26 141 104 c 1
 212 271 l 1
EndSplineSet
EndChar

StartChar: T
Encoding: 52 84 89
Width: 1229
VWidth: 0
Flags: W
PickledData: "(dp1
S'com.typemytype.robofont.layerData'
p2
(dp3
S'back'
p4
(dp5
S'name'
p6
S'T'
sS'lib'
p7
(dp8
sS'unicodes'
p9
(tsS'width'
p10
I1229
sS'contours'
p11
((dp12
S'points'
p13
((dp14
S'segmentType'
p15
S'line'
p16
sS'x'
F24
sS'smooth'
p17
I00
sS'y'
F1351
s(dp18
g15
S'line'
p19
sS'x'
F24
sg17
I00
sS'y'
F1497
s(dp20
g15
S'line'
p21
sS'x'
F518
sg17
I00
sS'y'
F1497
s(dp22
g15
S'line'
p23
sS'x'
F518
sg17
I00
sS'y'
F2842
s(dp24
g15
S'line'
p25
sS'x'
F705
sg17
I00
sS'y'
F2842
s(dp26
g15
S'line'
p27
sS'x'
F705
sg17
I00
sS'y'
F1497
s(dp28
g15
S'line'
p29
sS'x'
F1159
sg17
I00
sS'y'
F1497
s(dp30
g15
S'line'
p31
sS'x'
F1159
sg17
I00
sS'y'
F1351
stp32
stp33
sS'components'
p34
(tsS'anchors'
p35
((dp36
S'y'
F1351
sS'x'
F608
sg6
S'top'
p37
s(dp38
S'y'
F2096
sS'x'
F608
sg6
S'center'
p39
s(dp40
S'y'
F2842
sS'x'
F608
sg6
S'bottom'
p41
stp42
sss."
HStem: 0 21G<518 705> 1345 146<94 518 705 1129>
VStem: 518 187<0 1345>
LayerCount: 2
Fore
SplineSet
1129 1491 m 1
 1129 1345 l 1
 705 1345 l 1
 705 0 l 1
 518 0 l 1
 518 1345 l 1
 94 1345 l 1
 94 1491 l 1
 1129 1491 l 1
EndSplineSet
EndChar

StartChar: Thorn
Encoding: 157 222 91
Width: 1229
VWidth: 0
Flags: W
HStem: 0 21G<176 366> 481 162<366 851.754> 1264 160<366 859.664> 1561 20G<176 366>
VStem: 176 190<0 481 643 1264 1424 1581> 1075 204<785.864 1121.66>
LayerCount: 2
Fore
SplineSet
655 643 m 2
 892 643 1075 719 1075 956 c 0
 1075 1216 861 1264 603 1264 c 2
 366 1264 l 1
 366 643 l 1
 655 643 l 2
1279 951 m 0
 1279 504 814 481 366 481 c 1
 366 0 l 1
 176 0 l 1
 176 1581 l 1
 366 1581 l 1
 366 1424 l 1
 832 1424 1279 1418 1279 951 c 0
EndSplineSet
EndChar

StartChar: U
Encoding: 53 85 92
Width: 1229
VWidth: 0
Flags: W
PickledData: "(dp1
S'com.typemytype.robofont.layerData'
p2
(dp3
S'back'
p4
(dp5
S'name'
p6
S'U'
sS'lib'
p7
(dp8
sS'unicodes'
p9
(tsS'width'
p10
I1229
sS'contours'
p11
(tsS'components'
p12
(tsS'anchors'
p13
(tsss."
HStem: -25 155<427.675 800.325> 1471 20G<129 316 912 1099>
VStem: 129 187<245.152 1491> 912 187<245.152 1491>
LayerCount: 2
Fore
SplineSet
614 -25 m 0
 271 -25 129 129 129 484 c 2
 129 1491 l 1
 316 1491 l 1
 316 490 l 2
 316 253 374 130 614 130 c 0
 854 130 912 253 912 490 c 2
 912 1491 l 1
 1099 1491 l 1
 1099 484 l 2
 1099 129 957 -25 614 -25 c 0
EndSplineSet
EndChar

StartChar: V
Encoding: 54 86 102
Width: 1229
VWidth: 0
Flags: W
HStem: 0 21G<498.991 728.036> 1471 20G<57 267.599 961.479 1172>
VStem: 57 205<1286 1491> 967 205<1286 1491>
DStem2: 262 1491 57 1491 0.28776 -0.957702<0 1316.52>
LayerCount: 2
Fore
SplineSet
967 1491 m 1
 1172 1491 l 1
 722 0 l 1
 505 0 l 1
 57 1491 l 1
 262 1491 l 1
 617 223 l 1
 967 1491 l 1
EndSplineSet
EndChar

StartChar: W
Encoding: 55 87 103
Width: 1229
VWidth: 0
Flags: W
PickledData: "(dp1
S'com.typemytype.robofont.layerData'
p2
(dp3
S'back'
p4
(dp5
S'name'
p6
S'W'
sS'lib'
p7
(dp8
sS'unicodes'
p9
(tsS'width'
p10
I1229
sS'contours'
p11
(tsS'components'
p12
(tsS'anchors'
p13
(tsss."
HStem: 0 21G<202.149 435.948 804.416 1040.57> 1471 20G<66 252.628 969.97 1156>
VStem: 66 185<1306 1491> 971 185<1306 1491>
DStem2: 251 1491 66 1491 0.0921614 -0.995744<0 1282.15> 355 213 430 0 0.269951 0.962874<0 502.599> 715 880 626 659 0.272824 -0.962064<188.335 696.419>
LayerCount: 2
Fore
SplineSet
905 210 m 1
 971 1491 l 1
 1156 1491 l 1
 1039 0 l 1
 810 0 l 1
 626 659 l 1
 430 0 l 1
 204 0 l 1
 66 1491 l 1
 251 1491 l 1
 355 213 l 1
 542 880 l 1
 715 880 l 1
 905 210 l 1
EndSplineSet
EndChar

StartChar: X
Encoding: 56 88 104
Width: 1229
VWidth: 0
Flags: W
PickledData: "(dp1
S'com.typemytype.robofont.layerData'
p2
(dp3
S'back'
p4
(dp5
S'name'
p6
S'X'
sS'lib'
p7
(dp8
sS'unicodes'
p9
(tsS'width'
p10
I1229
sS'contours'
p11
(tsS'components'
p12
(tsS'anchors'
p13
(tsss."
HStem: 0 21G<72 296.431 922.793 1157> 1471 20G<112 349.649 930.583 1149>
DStem2: 340 1491 112 1491 0.466047 -0.88476<0 664.659> 629 892 749 763 0.481549 0.876419<0 675.218>
LayerCount: 2
Fore
SplineSet
112 1491 m 1
 340 1491 l 1
 629 892 l 1
 941 1491 l 1
 1149 1491 l 1
 749 763 l 1
 1157 0 l 1
 933 0 l 1
 613 627 l 1
 286 0 l 1
 72 0 l 1
 496 762 l 1
 112 1491 l 1
EndSplineSet
EndChar

StartChar: Y
Encoding: 57 89 105
Width: 1229
VWidth: 0
Flags: W
PickledData: "(dp1
S'com.typemytype.robofont.layerData'
p2
(dp3
S'back'
p4
(dp5
S'name'
p6
S'Y'
sS'lib'
p7
(dp8
sS'unicodes'
p9
(tsS'width'
p10
I1229
sS'contours'
p11
((dp12
S'points'
p13
((dp14
S'segmentType'
p15
S'line'
p16
sS'x'
F702
sS'smooth'
p17
I00
sS'y'
F0
s(dp18
g15
S'line'
p19
sS'x'
F515
sg17
I00
sS'y'
F0
s(dp20
g15
S'line'
p21
sS'x'
F515
sg17
I00
sS'y'
F1491
s(dp22
g15
S'line'
p23
sS'x'
F702
sg17
I00
sS'y'
F1491
s(dp24
g15
S'line'
p25
sS'x'
F702
sg17
I00
sS'y'
F855
s(dp26
g15
S'line'
p27
sS'x'
F1277
sg17
I00
sS'y'
F855
s(dp28
g15
S'line'
p29
sS'x'
F1277
sg17
I00
sS'y'
F1491
s(dp30
g15
S'line'
p31
sS'x'
F1464
sg17
I00
sS'y'
F1491
s(dp32
g15
S'line'
p33
sS'x'
F1464
sg17
I00
sS'y'
F0
s(dp34
g15
S'line'
p35
sS'x'
F1277
sg17
I00
sS'y'
F0
s(dp36
g15
S'line'
p37
sS'x'
F1277
sg17
I00
sS'y'
F702
s(dp38
g15
S'line'
p39
sS'x'
F702
sg17
I00
sS'y'
F702
stp40
stp41
sS'components'
p42
(tsS'anchors'
p43
((dp44
S'y'
F746
sS'x'
F615
sg6
S'center'
p45
s(dp46
S'y'
F1491
sS'x'
F615
sg6
S'top'
p47
stp48
sss."
HStem: 0 21G<515 702> 1471 20G<69 284.344 939.544 1160>
VStem: 515 187<0 593>
DStem2: 275 1491 69 1491 0.444818 -0.895621<0 791.174> 610 774 702 593 0.454342 0.890827<0 792.745>
LayerCount: 2
Fore
SplineSet
702 0 m 1
 515 0 l 1
 515 593 l 1
 69 1491 l 1
 275 1491 l 1
 610 774 l 1
 949 1491 l 1
 1160 1491 l 1
 702 593 l 1
 702 0 l 1
EndSplineSet
EndChar

StartChar: Z
Encoding: 58 90 108
Width: 1229
VWidth: 0
Flags: W
PickledData: "(dp1
S'com.typemytype.robofont.layerData'
p2
(dp3
S'back'
p4
(dp5
S'name'
p6
S'Z'
sS'lib'
p7
(dp8
sS'unicodes'
p9
(tsS'width'
p10
I1229
sS'contours'
p11
(tsS'components'
p12
(tsS'anchors'
p13
(tsss."
HStem: 0 146<397 1049> 1345 146<191 803>
DStem2: 156 143 397 146 0.47698 0.878914<117.589 1365.06>
LayerCount: 2
Fore
SplineSet
397 146 m 1
 1049 146 l 1
 1049 0 l 1
 156 0 l 1
 156 143 l 1
 803 1345 l 1
 191 1345 l 1
 191 1491 l 1
 1058 1491 l 1
 1058 1364 l 1
 397 146 l 1
EndSplineSet
EndChar

StartChar: a
Encoding: 65 97 112
Width: 1229
VWidth: 0
Flags: W
PickledData: "(dp1
S'com.typemytype.robofont.layerData'
p2
(dp3
S'back'
p4
(dp5
S'name'
p6
S'a'
sS'lib'
p7
(dp8
sS'unicodes'
p9
(tsS'width'
p10
I1229
sS'contours'
p11
((dp12
S'points'
p13
((dp14
S'segmentType'
p15
S'line'
p16
sS'x'
F670
sS'smooth'
p17
I01
sS'y'
F1098
stp18
s(dp19
g13
((dp20
g15
S'line'
p21
sS'x'
F670
sg17
I00
sS'y'
F1098
stp22
s(dp23
g13
((dp24
g15
S'curve'
p25
sS'x'
F896
sg17
I00
sS'y'
F120
s(dp26
S'y'
F120
sS'x'
F896
sg17
I00
s(dp27
S'y'
F1
sS'x'
F920
sg17
I00
s(dp28
g15
S'curve'
p29
sS'x'
F921
sg17
I00
sS'y'
F0
s(dp30
g15
S'line'
p31
sS'x'
F1058
sg17
I00
sS'y'
F0
s(dp32
g15
S'line'
p33
sS'x'
F1058
sg17
I01
sS'y'
F806
s(dp34
S'y'
F1051
sS'x'
F1058
sg17
I00
s(dp35
S'y'
F1124
sS'x'
F888
sg17
I00
s(dp36
g15
S'curve'
p37
sS'x'
F671
sg17
I01
sS'y'
F1124
s(dp38
S'y'
F1124
sS'x'
F516
sg17
I00
s(dp39
S'y'
F1087
sS'x'
F369
sg17
I00
s(dp40
g15
S'curve'
p41
sS'x'
F286
sg17
I00
sS'y'
F1041
s(dp42
S'y'
F1041
sS'x'
F286
sg17
I00
s(dp43
S'y'
F909
sS'x'
F331
sg17
I00
s(dp44
g15
S'curve'
p45
sS'x'
F332
sg17
I01
sS'y'
F909
s(dp46
S'y'
F953
sS'x'
F422
sg17
I00
s(dp47
S'y'
F983
sS'x'
F554
sg17
I00
s(dp48
g15
S'curve'
p49
sS'x'
F675
sg17
I01
sS'y'
F983
s(dp50
S'y'
F983
sS'x'
F826
sg17
I00
s(dp51
S'y'
F914
sS'x'
F891
sg17
I00
s(dp52
g15
S'curve'
p53
sS'x'
F891
sg17
I01
sS'y'
F781
s(dp54
g15
S'line'
p55
sS'x'
F891
sg17
I00
sS'y'
F646
s(dp56
S'y'
F646
sS'x'
F891
sg17
I00
s(dp57
S'y'
F633
sS'x'
F782
sg17
I00
s(dp58
g15
S'curve'
p59
sS'x'
F781
sg17
I01
sS'y'
F633
s(dp60
S'y'
F592
sS'x'
F498
sg17
I00
s(dp61
S'y'
F559
sS'x'
F220
sg17
I00
s(dp62
g15
S'curve'
p63
sS'x'
F220
sg17
I01
sS'y'
F271
s(dp64
S'y'
F66
sS'x'
F220
sg17
I00
s(dp65
S'y'
F-25
sS'x'
F372
sg17
I00
s(dp66
g15
S'curve'
p67
sS'x'
F553
sg17
I01
sS'y'
F-25
s(dp68
S'y'
F-25
sS'x'
F668
sg17
I00
s(dp69
S'y'
F12
sS'x'
F800
sg17
I00
stp70
s(dp71
g13
((dp72
g15
S'curve'
p73
sS'x'
F571
sg17
I01
sS'y'
F107
s(dp74
S'y'
F107
sS'x'
F466
sg17
I00
s(dp75
S'y'
F153
sS'x'
F388
sg17
I00
s(dp76
g15
S'curve'
p77
sS'x'
F388
sg17
I01
sS'y'
F276
s(dp78
S'y'
F430
sS'x'
F388
sg17
I00
s(dp79
S'y'
F474
sS'x'
F479
sg17
I00
s(dp80
g15
S'curve'
p81
sS'x'
F791
sg17
I01
sS'y'
F515
s(dp82
S'y'
F515
sS'x'
F794
sg17
I00
s(dp83
S'y'
F528
sS'x'
F891
sg17
I00
s(dp84
g15
S'curve'
p85
sS'x'
F891
sg17
I01
sS'y'
F529
s(dp86
g15
S'line'
p87
sS'x'
F891
sg17
I00
sS'y'
F269
s(dp88
S'y'
F170
sS'x'
F820
sg17
I00
s(dp89
S'y'
F107
sS'x'
F675
sg17
I00
stp90
s(dp91
g13
((dp92
g15
S'line'
p93
sS'x'
F1092
sg17
I01
sS'y'
F10
stp94
s(dp95
g13
((dp96
g15
S'line'
p97
sS'x'
F1092
sg17
I00
sS'y'
F10
stp98
stp99
sS'components'
p100
(tsS'anchors'
p101
((dp102
S'y'
F1098
sS'x'
F528
sg6
S'top'
p103
s(dp104
S'y'
F10
sS'x'
F950
sg6
S'ogonek'
p105
stp106
sss."
HStem: -25 133<404.637 691.713> 0 21G<876.22 1031> 991 139<341.469 782.057>
VStem: 172 178<161.917 403.2> 849 182<204.547 525 640 921.31> 880 151<0 75.8613>
DStem2: 703 623 700 504 0.990214 0.13956<-319.538 130.894>
LayerCount: 2
Fore
SplineSet
849 245 m 1xb8
 849 525 l 1
 700 504 l 2
 543 482 350 460 350 289 c 0
 350 179 418 108 530 108 c 0
 654 108 767 161 849 245 c 1xb8
495 -25 m 0
 313 -25 172 93 172 280 c 0
 172 552 414 589 703 623 c 2
 849 640 l 1
 849 756 l 2
 849 923 782 991 631 991 c 0
 525 991 340 952 283 927 c 1
 240 1061 l 1
 339 1094 467 1130 628 1130 c 0
 856 1130 1031 1034 1031 791 c 2xb8
 1031 0 l 1
 880 0 l 1x74
 856 127 l 1
 773 43 626 -25 495 -25 c 0
EndSplineSet
EndChar

StartChar: acute
Encoding: 115 180 116
Width: 1229
VWidth: 0
Flags: W
HStem: 1268 437
VStem: 418 493
LayerCount: 2
Fore
SplineSet
418 1268 m 1
 679 1705 l 1
 911 1705 l 1
 560 1268 l 1
 418 1268 l 1
EndSplineSet
EndChar

StartChar: ae
Encoding: 165 230 118
Width: 1229
VWidth: 0
Flags: W
PickledData: "(dp1
S'com.typemytype.robofont.layerData'
p2
(dp3
S'back'
p4
(dp5
S'name'
p6
S'ae'
p7
sS'lib'
p8
(dp9
sS'unicodes'
p10
(tsS'width'
p11
I1229
sS'contours'
p12
(tsS'components'
p13
(tsS'anchors'
p14
(tsss."
HStem: -25 147<265.621 513.586 793.713 1006.39> 452 142<283.36 537> 520 133<709 1026> 969 161<190.91 493.944 783.255 962.989>
VStem: 55 177<151.622 398.294> 537 172<246.103 452 653 872.026>
LayerCount: 2
Fore
SplineSet
1026 653 m 1xbc
 1017 821 983 977 880 977 c 0
 769 977 718 824 709 653 c 1
 1026 653 l 1xbc
352 122 m 0
 452 122 518 169 593 210 c 1
 567 280 551 362 543 452 c 1
 499 452 l 2xdc
 387 452 232 445 232 297 c 0
 232 194 267 122 352 122 c 0
1148 98 m 1
 1077 22 992 -25 865 -25 c 0
 777 -25 706 19 653 94 c 1
 557 38 468 -25 343 -25 c 0
 193 -25 55 92 55 280 c 0
 55 562 272 594 522 594 c 2
 537 594 l 1xdc
 537 786 l 2
 537 912 483 969 369 969 c 0
 286 969 205 945 145 894 c 1
 101 1053 l 1
 177 1105 278 1130 378 1130 c 0
 497 1130 595 1088 644 988 c 1
 704 1079 786 1130 880 1130 c 0
 1070 1130 1170 880 1170 581 c 1
 1168 520 l 1
 703 520 l 1xbc
 711 302 765 122 878 122 c 0
 963 122 1022 171 1068 222 c 1
 1148 98 l 1
EndSplineSet
EndChar

StartChar: ampersand
Encoding: 6 38 121
Width: 1229
VWidth: 0
Flags: W
PickledData: "(dp1
S'com.typemytype.robofont.layerData'
p2
(dp3
S'back'
p4
(dp5
S'name'
p6
S'ampersand'
p7
sS'lib'
p8
(dp9
sS'unicodes'
p10
(tsS'width'
p11
I1229
sS'contours'
p12
(tsS'components'
p13
(tsS'anchors'
p14
(tsss."
HStem: -25 168<384.617 713.073> 1444 150<400.586 634.967>
VStem: 68 209<255.279 596.368> 152 197<1127.9 1391.89> 689 202<1094.36 1390.57>
DStem2: 494 961 346 881 0.590397 -0.807113<-292.083 -22.8096 146.961 721.152 920.628 1094.51>
LayerCount: 2
Fore
SplineSet
689 1260 m 0xd8
 689 1369 622 1444 530 1444 c 0
 428 1444 349 1379 349 1289 c 0
 349 1203 400 1089 494 961 c 1
 603 1022 689 1102 689 1260 c 0xd8
554 143 m 0
 666 143 739 194 804 259 c 1
 449 746 l 1
 358 677 277 571 277 419 c 0xe8
 277 243 381 143 554 143 c 0
346 881 m 1
 346 881 152 1099 152 1275 c 0xd8
 152 1488 318 1594 515 1594 c 0
 719 1594 891 1486 891 1270 c 0
 891 1048 725 922 574 838 c 1
 913 374 l 1
 966 437 1024 583 1039 627 c 1
 1198 569 l 1
 1164 489 1077 301 1015 236 c 1
 1138 76 l 1
 1008 -24 l 1
 905 121 l 1
 819 39 680 -25 531 -25 c 0
 251 -25 68 129 68 413 c 0
 68 641 200 784 346 881 c 1
EndSplineSet
EndChar

StartChar: approxequal
Encoding: 568 8776 123
Width: 1229
VWidth: 0
Flags: W
HStem: 284 129<854.585 1099.6> 463 129<362.3 625.164> 688 129<840.026 1099.53> 867 129<362.195 622.649>
VStem: 158 126<311.949 379.109 717 782.162> 1180 123<501.525 566.38 908.287 969.499>
LayerCount: 2
Fore
SplineSet
481 867 m 0
 362 867 312 780 284 688 c 1
 247 695 179 717 154 717 c 2
 152 717 l 1
 189 878 290 996 487 996 c 0
 663 996 773 879 909 830 c 0
 934 821 958 817 982 817 c 0
 1101 817 1145 908 1176 997 c 1
 1299 966 l 1
 1262 806 1174 688 978 688 c 0
 793 688 693 803 555 854 c 0
 531 863 505 867 481 867 c 0
998 413 m 0
 1103 413 1150 515 1180 592 c 1
 1303 563 l 1
 1266 404 1178 284 983 284 c 0
 774 284 632 463 484 463 c 0
 366 463 312 375 284 283 c 1
 158 314 l 1
 198 475 293 592 493 592 c 0
 681 592 784 478 924 427 c 0
 949 418 974 413 998 413 c 0
EndSplineSet
EndChar

StartChar: asciicircum
Encoding: 62 94 125
Width: 1229
VWidth: 0
Flags: W
DStem2: 757 1554 698 1368 0.490737 -0.871308<133.11 1014.43>
LayerCount: 2
Fore
SplineSet
644 1554 m 1
 757 1554 l 1
 1296 597 l 1
 1125 597 l 1
 698 1368 l 1
 284 597 l 1
 111 597 l 1
 644 1554 l 1
EndSplineSet
EndChar

StartChar: asciitilde
Encoding: 94 126 126
Width: 1229
VWidth: 0
Flags: W
HStem: 781 178<878.661 1101.39> 974 176<381.653 599.138>
VStem: 152 182<839.274 924.598> 1148 184<1003.3 1111.27>
LayerCount: 2
Fore
SplineSet
1332 1108 m 1
 1297 946 1261 781 1064 781 c 0
 981 781 891 822 815 850 c 0
 712 888 592 936 483 969 c 0
 474 972 465 974 455 974 c 0
 371 974 345 860 334 784 c 1
 152 844 l 1
 180 985 254 1150 420 1150 c 0
 519 1150 616 1108 698 1075 c 0
 794 1036 903 989 1008 963 c 0
 1015 961 1023 959 1031 959 c 0
 1116 959 1134 1077 1148 1150 c 1
 1332 1108 l 1
EndSplineSet
EndChar

StartChar: asterisk
Encoding: 10 42 127
Width: 1229
VWidth: 0
Flags: W
PickledData: "(dp1
S'com.typemytype.robofont.layerData'
p2
(dp3
S'back'
p4
(dp5
S'name'
p6
S'asterisk'
p7
sS'lib'
p8
(dp9
sS'unicodes'
p10
(tsS'width'
p11
I1229
sS'contours'
p12
(tsS'components'
p13
(tsS'anchors'
p14
(tsss."
LayerCount: 2
Fore
SplineSet
1046 374 m 1
 866 270 l 1
 612 673 l 1
 363 270 l 1
 181 374 l 1
 499 752 l 1
 56 899 l 1
 148 1079 l 1
 550 866 l 1
 515 1330 l 1
 711 1330 l 1
 681 866 l 1
 1080 1079 l 1
 1173 899 l 1
 728 752 l 1
 1046 374 l 1
EndSplineSet
EndChar

StartChar: at
Encoding: 32 64 128
Width: 1229
VWidth: 0
Flags: W
HStem: -88 89<493.496 911.637> 296 98<536.282 715.702 939.8 1060.21> 1029 101<592.369 764.579> 1077 20G<859.693 978> 1440 76<543.774 893.734>
VStem: 80 113<358.795 977.653> 377 116<437.809 887.748> 813 108<525 970.227> 1143 94<551.847 1157.36>
LayerCount: 2
Fore
SplineSet
813 746 m 0xef80
 813 882 794 1029 679 1029 c 0
 533 1029 493 751 493 620 c 0
 493 511 515 394 628 394 c 0
 758 394 813 626 813 746 c 0xef80
921 523 m 0
 921 468 949 386 999 386 c 0
 1106 386 1143 770 1143 904 c 0
 1143 1201 995 1440 724 1440 c 0
 358 1440 193 1066 193 641 c 0
 193 282 366 1 692 1 c 0
 868 1 1005 77 1115 173 c 1
 1163 117 l 1
 1043 1 887 -88 681 -88 c 0
 253 -88 80 309 80 643 c 0
 80 1154 357 1516 706 1516 c 0
 1079 1516 1237 1234 1237 910 c 0
 1237 666 1177 304 989 304 c 0
 884 304 833 393 822 504 c 1
 774 342 669 296 602 296 c 0
 432 296 377 472 377 650 c 0
 377 886 495 1130 669 1130 c 0xef80
 760 1130 814 1042 842 970 c 1
 863 1097 l 1
 978 1097 l 2xdf80
 977 1097 921 731 921 523 c 0
EndSplineSet
EndChar

StartChar: b
Encoding: 66 98 130
Width: 1229
VWidth: 0
Flags: W
PickledData: "(dp1
S'com.typemytype.robofont.layerData'
p2
(dp3
S'back'
p4
(dp5
S'name'
p6
S'b'
sS'lib'
p7
(dp8
sS'unicodes'
p9
(tsS'width'
p10
I1229
sS'contours'
p11
(tsS'components'
p12
(tsS'anchors'
p13
(tsss."
HStem: -25 141<486.153 794.7> 0 21G<171 351.267> 990 140<495.531 800.066> 1545 20G<171 353>
VStem: 171 182<0 150 278.435 840.389 946 1545> 931 183<283.971 838.596>
LayerCount: 2
Fore
SplineSet
353 555 m 0xbc
 353 319 407 116 648 116 c 0
 878 116 931 341 931 555 c 0
 931 779 886 990 648 990 c 0
 399 990 353 797 353 555 c 0xbc
353 946 m 1
 414 1046 505 1130 681 1130 c 0
 990 1130 1114 879 1114 568 c 0
 1114 248 989 -25 670 -25 c 0xbc
 501 -25 430 49 353 150 c 1
 351 0 l 1
 171 0 l 1x7c
 171 1545 l 1
 353 1565 l 1
 353 946 l 1
EndSplineSet
EndChar

StartChar: backslash
Encoding: 60 92 131
Width: 1229
VWidth: 0
Flags: W
PickledData: "(dp1
S'com.typemytype.robofont.layerData'
p2
(dp3
S'back'
p4
(dp5
S'name'
p6
S'backslash'
p7
sS'lib'
p8
(dp9
sS'unicodes'
p10
(tsS'width'
p11
I1229
sS'contours'
p12
(tsS'components'
p13
(tsS'anchors'
p14
(tsss."
DStem2: 377 1761 193 1761 0.364904 -0.931045<0 1875.84>
LayerCount: 2
Fore
SplineSet
1082 -48 m 1
 902 -48 l 1
 193 1761 l 1
 377 1761 l 1
 1082 -48 l 1
EndSplineSet
EndChar

StartChar: bar
Encoding: 92 124 132
Width: 1229
VWidth: 0
Flags: W
HStem: -441 21G<530 691> 1565 20G<530 691>
VStem: 530 161<-441 1585>
LayerCount: 2
Fore
SplineSet
530 -441 m 1
 530 1585 l 1
 691 1585 l 1
 691 -441 l 1
 530 -441 l 1
EndSplineSet
EndChar

StartChar: braceleft
Encoding: 91 123 133
Width: 1229
VWidth: 0
Flags: W
HStem: -153.006 136.006<779.346 1101> 1569 137<779.346 1101>
VStem: 225 265<576.5 976.5> 514 222<21.944 594.853 957.973 1531.06>
LayerCount: 2
Fore
SplineSet
514 455 m 2
 514 619 386 699 225 709 c 1
 225 844 l 1
 386 854 514 933 514 1097 c 2
 514 1330 l 2
 514 1586.93 608.21 1706 869.71 1706 c 0
 870.804 1706 871.9 1706 873 1706 c 2
 1101 1705 l 1
 1101 1569 l 1
 873 1569 l 2
 743 1569 736 1460 736 1330 c 2
 736 1089 l 2
 736 890 639 834 490 776 c 1
 639 718 736 663 736 464 c 2
 736 223 l 2
 736 93 743 -17 873 -17 c 2
 1101 -17 l 1
 1101 -152 l 1
 873 -153.006 l 2
 871.9 -153.006 870.804 -153.006 869.71 -153.006 c 0
 608.21 -153.006 514 -33.9254 514 223 c 2
 514 455 l 2
EndSplineSet
EndChar

StartChar: braceright
Encoding: 93 125 134
Width: 1229
VWidth: 0
Flags: W
PickledData: "(dp1
S'com.typemytype.robofont.layerData'
p2
(dp3
S'back'
p4
(dp5
S'name'
p6
S'braceright'
p7
sS'lib'
p8
(dp9
sS'unicodes'
p10
(tsS'width'
p11
I1229
sS'contours'
p12
(tsS'components'
p13
(tsS'anchors'
p14
(tsss."
HStem: -153.006 136.006<202 524.654> 1569 137<202 524.654>
VStem: 568 222<21.944 594.853 957.973 1531.06> 813 266<576 977>
LayerCount: 2
Fore
SplineSet
790 1097 m 2
 790 933 918 854 1079 844 c 1
 1079 709 l 1
 918 699 790 619 790 455 c 2
 790 223 l 2
 790 -33.9254 695.79 -153.006 434.29 -153.006 c 0
 433.196 -153.006 432.1 -153.006 431 -153.006 c 2
 202 -152 l 1
 202 -17 l 1
 431 -17 l 2
 561 -17 568 93 568 223 c 2
 568 464 l 2
 568 663 664 718 813 776 c 1
 664 834 568 890 568 1089 c 2
 568 1330 l 2
 568 1460 561 1569 431 1569 c 2
 202 1569 l 1
 202 1705 l 1
 431 1706 l 2
 432.1 1706 433.196 1706 434.29 1706 c 0
 695.79 1706 790 1586.93 790 1330 c 2
 790 1097 l 2
EndSplineSet
EndChar

StartChar: bracketleft
Encoding: 59 91 135
Width: 1229
VWidth: 0
Flags: W
PickledData: "(dp1
S'com.typemytype.robofont.layerData'
p2
(dp3
S'back'
p4
(dp5
S'name'
p6
S'bracketleft'
p7
sS'lib'
p8
(dp9
sS'unicodes'
p10
(tsS'width'
p11
I1229
sS'contours'
p12
(tsS'components'
p13
(tsS'anchors'
p14
(tsss."
HStem: -136 142<584 919.953> 1588 142<584 918.953>
VStem: 395 189<6 1588>
LayerCount: 2
Fore
SplineSet
395 -131 m 1
 395 1725 l 1
 396 1728 397 1729 400 1730 c 1
 914 1730 l 1
 917 1729 918 1728 919 1725 c 1
 919 1593 l 1
 918 1590 917 1589 914 1588 c 1
 584 1588 l 1
 584 6 l 1
 915 6 l 1
 918 5 919 4 920 1 c 1
 920 -131 l 1
 919 -134 918 -135 915 -136 c 1
 400 -136 l 1
 397 -135 396 -134 395 -131 c 1
EndSplineSet
EndChar

StartChar: bracketright
Encoding: 61 93 136
Width: 1229
VWidth: 0
Flags: W
PickledData: "(dp1
S'com.typemytype.robofont.layerData'
p2
(dp3
S'back'
p4
(dp5
S'name'
p6
S'bracketright'
p7
sS'lib'
p8
(dp9
sS'unicodes'
p10
(tsS'width'
p11
I1229
sS'contours'
p12
(tsS'components'
p13
(tsS'anchors'
p14
(tsss."
HStem: -136 142<250.047 586> 1588 142<251.047 586>
VStem: 586 189<6 1588>
LayerCount: 2
Fore
SplineSet
775 -131 m 1
 774 -134 773 -135 770 -136 c 1
 255 -136 l 1
 252 -135 251 -134 250 -131 c 1
 250 1 l 1
 251 4 252 5 255 6 c 1
 586 6 l 1
 586 1588 l 1
 256 1588 l 1
 253 1589 252 1590 251 1593 c 1
 251 1725 l 1
 252 1728 253 1729 256 1730 c 1
 770 1730 l 1
 773 1729 774 1728 775 1725 c 1
 775 -131 l 1
EndSplineSet
EndChar

StartChar: breve
Encoding: 331 728 137
Width: 1229
VWidth: 0
Flags: W
HStem: 1323 115<467.927 774.54> 1559 20G<313 420 831 940>
VStem: 313 98<1491.76 1579> 843 97<1505.47 1579>
LayerCount: 2
Fore
SplineSet
411 1579 m 1
 429 1482 506 1438 620 1438 c 0
 734 1438 819 1488 843 1579 c 1
 940 1579 l 1
 928 1409 812 1323 629 1323 c 0
 441 1323 329 1405 313 1579 c 1
 411 1579 l 1
EndSplineSet
EndChar

StartChar: brokenbar
Encoding: 101 166 138
Width: 1229
VWidth: 0
Flags: W
VStem: 539 172<-533 427 735 1677>
LayerCount: 2
Fore
SplineSet
539 1677 m 1
 711 1677 l 1
 711 735 l 1
 539 735 l 1
 539 1677 l 1
539 427 m 1
 711 427 l 1
 711 -533 l 1
 539 -533 l 1
 539 427 l 1
EndSplineSet
EndChar

StartChar: bullet
Encoding: 536 8226 139
Width: 1229
VWidth: 0
Flags: W
HStem: 418 678<580.023 933.885>
VStem: 379 747<597.207 910.731>
LayerCount: 2
Fore
SplineSet
1126 760 m 0
 1126 555 954 418 749 418 c 0
 525 418 379 587 379 753 c 0
 379 981 604 1096 757 1096 c 0
 981 1096 1126 925 1126 760 c 0
EndSplineSet
EndChar

StartChar: c
Encoding: 67 99 140
Width: 1229
VWidth: 0
Flags: W
PickledData: "(dp1
S'com.typemytype.robofont.layerData'
p2
(dp3
S'back'
p4
(dp5
S'name'
p6
S'c'
sS'lib'
p7
(dp8
sS'unicodes'
p9
(tsS'width'
p10
I1229
sS'contours'
p11
((dp12
S'points'
p13
((dp14
S'segmentType'
p15
S'curve'
p16
sS'x'
F647
sS'smooth'
p17
I01
sS'y'
F1130
s(dp18
S'y'
F1130
sS'x'
F976
sg17
I00
s(dp19
S'y'
F883
sS'x'
F1126
sg17
I00
s(dp20
g15
S'curve'
p21
sS'x'
F1126
sg17
I01
sS'y'
F558
s(dp22
S'y'
F210
sS'x'
F1126
sg17
I00
s(dp23
S'y'
F-25
sS'x'
F945
sg17
I00
s(dp24
g15
S'curve'
p25
sS'x'
F647
sg17
I01
sS'y'
F-25
s(dp26
S'y'
F-25
sS'x'
F324
sg17
I00
s(dp27
S'y'
F232
sS'x'
F173
sg17
I00
s(dp28
g15
S'curve'
p29
sS'x'
F173
sg17
I01
sS'y'
F551
s(dp30
S'y'
F897
sS'x'
F173
sg17
I00
s(dp31
S'y'
F1130
sS'x'
F351
sg17
I00
stp32
s(dp33
g13
((dp34
g15
S'curve'
p35
sS'x'
F357
sg17
I01
sS'y'
F550
s(dp36
S'y'
F336
sS'x'
F357
sg17
I00
s(dp37
S'y'
F115
sS'x'
F419
sg17
I00
s(dp38
g15
S'curve'
p39
sS'x'
F647
sg17
I01
sS'y'
F115
s(dp40
S'y'
F115
sS'x'
F882
sg17
I00
s(dp41
S'y'
F335
sS'x'
F944
sg17
I00
s(dp42
g15
S'curve'
p43
sS'x'
F944
sg17
I01
sS'y'
F553
s(dp44
S'y'
F770
sS'x'
F944
sg17
I00
s(dp45
S'y'
F990
sS'x'
F883
sg17
I00
s(dp46
g15
S'curve'
p47
sS'x'
F647
sg17
I01
sS'y'
F990
s(dp48
S'y'
F990
sS'x'
F419
sg17
I00
s(dp49
S'y'
F764
sS'x'
F357
sg17
I00
stp50
stp51
sS'components'
p52
(tsS'anchors'
p53
((dp54
S'y'
F1097
sS'x'
F615
sg6
S'top'
p55
stp56
sss."
HStem: -25 140<543.599 896.163> 990 140<544.037 893.188>
VStem: 173 184<325.954 773.661>
LayerCount: 2
Fore
SplineSet
1002 72 m 5
 930 5 812 -25 703 -25 c 4
 362 -25 173 249 173 555 c 4
 173 858.007 373 1130 700 1130 c 4
 828 1130 937 1094 999 1035 c 5
 953 913 l 5
 869 969 781 990 698 990 c 4
 497.96 990 357 805 357 551 c 4
 357 300 489.889 115 711 115 c 4
 810 115 897 152 958 195 c 5
 1002 72 l 5
EndSplineSet
EndChar

StartChar: caron
Encoding: 329 711 142
Width: 1229
VWidth: 0
Flags: W
HStem: 1266 348
VStem: 283 161<1453 1614> 822 171<1443 1614>
DStem2: 444 1614 283 1614 0.61582 -0.787887<0 300.928> 632 1379 720 1266 0.617222 0.786789<0 302.168>
LayerCount: 2
Fore
SplineSet
444 1614 m 1
 632 1379 l 1
 822 1614 l 1
 993 1614 l 1
 720 1266 l 1
 555 1266 l 1
 283 1614 l 1
 444 1614 l 1
EndSplineSet
EndChar

StartChar: cdotaccent
Encoding: 202 267 146
Width: 1229
VWidth: 0
Flags: W
PickledData: "(dp1
S'com.typemytype.robofont.layerData'
p2
(dp3
S'back'
p4
(dp5
S'name'
p6
S'cdotaccent'
p7
sS'lib'
p8
(dp9
sS'unicodes'
p10
(tsS'width'
p11
I1229
sS'contours'
p12
(tsS'components'
p13
(tsS'anchors'
p14
(tsss."
HStem: -25 140<543.599 896.163> 990 140<544.037 893.188> 1232 177<504 681>
VStem: 173 184<325.954 773.661> 504 177<1232 1409>
LayerCount: 2
Fore
SplineSet
504 1409 m 1
 681 1409 l 1
 681 1232 l 1
 504 1232 l 1
 504 1409 l 1
EndSplineSet
Refer: 140 99 N 1 0 0 1 0 0 2
EndChar

StartChar: cedilla
Encoding: 119 184 147
Width: 1229
VWidth: 0
Flags: W
HStem: -428 89<435.081 722.414> -183 202<569 654.641> -183 85<657 720.945>
VStem: 569 108<-89 19> 731 157<-325.849 -195.69>
LayerCount: 2
Fore
SplineSet
731 -261 m 0xb8
 731 -199 672 -183 609 -183 c 0
 581 -183 561 -186 534 -188 c 1
 569 19 l 1
 677 19 l 1xd8
 657 -98 l 1
 666 -97 l 1
 787 -97 888 -139 888 -260 c 0
 888 -395 752 -428 617 -428 c 0
 548 -428 487 -417 428 -405 c 1
 437 -313 l 1
 488 -325 545 -339 604 -339 c 0
 668 -339 731 -325 731 -261 c 0xb8
EndSplineSet
EndChar

StartChar: cent
Encoding: 97 162 148
Width: 1229
VWidth: 0
Flags: W
HStem: -19.8501 145.261<533.238 624 752 916.919> 986.965 140.995<539.971 624 752 902.732>
VStem: 173 184<326.396 776.843> 624 128<-277 -17.8671 125.411 981.086 1122.95 1368>
LayerCount: 2
Fore
SplineSet
752 -277 m 1
 624 -277 l 1
 624 -19.8501 l 1
 332.934 19.1015 173 273.511 173 555 c 0
 173 833.768 342.282 1086.29 624 1124.9 c 1
 624 1368 l 1
 752 1368 l 1
 752 1127.96 l 1
 857.282 1119.59 945.584 1085.83 999 1035 c 1
 953 913 l 1
 887.014 956.991 818.56 979.383 752 986.965 c 1
 752 117.107 l 1
 833.946 125.521 905.575 158.045 958 195 c 1
 1002 72 l 1
 940.697 14.9546 846.048 -15.2687 752 -22.9903 c 1
 752 -277 l 1
624 125.411 m 1
 624 981.086 l 1
 464.068 941.326 357 772.368 357 551 c 0
 357 334.902 455.502 167.725 624 125.411 c 1
EndSplineSet
EndChar

StartChar: circumflex
Encoding: 328 710 149
Width: 1229
VWidth: 0
Flags: W
HStem: 1266 349
LayerCount: 2
Fore
SplineSet
709 1615 m 1
 968 1266 l 1
 825 1266 l 1
 621 1501 l 1
 419 1266 l 1
 283 1266 l 1
 542 1615 l 1
 709 1615 l 1
EndSplineSet
EndChar

StartChar: colon
Encoding: 26 58 150
Width: 1229
VWidth: 0
Flags: W
HStem: 144 301<487 788> 830 300<487 788>
VStem: 487 301<144 445 830 1130>
LayerCount: 2
Fore
SplineSet
788 144 m 1
 487 144 l 1
 487 445 l 1
 788 445 l 1
 788 144 l 1
788 830 m 1
 487 830 l 1
 487 1130 l 1
 788 1130 l 1
 788 830 l 1
EndSplineSet
EndChar

StartChar: comma
Encoding: 12 44 151
Width: 1229
VWidth: 0
Flags: W
PickledData: "(dp1
S'com.typemytype.robofont.layerData'
p2
(dp3
S'back'
p4
(dp5
S'name'
p6
S'comma'
p7
sS'lib'
p8
(dp9
sS'unicodes'
p10
(tsS'width'
p11
I1229
sS'contours'
p12
(tsS'components'
p13
(tsS'anchors'
p14
(tsss."
HStem: -321 607<491 562>
VStem: 440 308
LayerCount: 2
Fore
SplineSet
440 -321 m 1
 491 286 l 1
 748 286 l 1
 562 -321 l 5
 440 -321 l 1
EndSplineSet
EndChar

StartChar: copyright
Encoding: 104 169 152
Width: 1229
VWidth: 0
Flags: W
HStem: -34 126<621.891 1165.19> 270 143<759.019 1164.58> 1173 138<752.129 1142.09> 1483 127<623.274 1157.12>
VStem: 6 140<553.092 1044.29> 400 168<610.196 979.108> 1650 143<544.141 1022.25>
LayerCount: 2
Fore
SplineSet
1234 1069 m 1
 1162 1131 1062 1173 937 1173 c 0
 712 1173 568 1018 568 795 c 1
 570 795 l 1
 570 565 720 413 951 413 c 0
 1066 413 1162 443 1229 499 c 1
 1273 368 l 1
 1185 306 1072 270 932 270 c 0
 595 270 400 527 400 792 c 0
 400 1132 663 1311 944 1311 c 0
 1082 1311 1188 1267 1269 1200 c 1
 1234 1069 l 1
896 1483 m 0
 459 1483 146 1184 146 813 c 0
 146 350 513 92 876 92 c 0
 1348 92 1650 394 1650 786 c 0
 1650 1249 1245 1483 896 1483 c 0
1793 787 m 1
 1793 433 1588 201 1353 76 c 0
 1232 12 1081 -34 904 -34 c 0
 536 -34 274 142 129 369 c 0
 58 480 6 617 6 788 c 0
 6 1143 214 1373 449 1499 c 0
 570 1564 720 1610 898 1610 c 0
 1266 1610 1523 1432 1669 1205 c 0
 1739 1096 1792 956 1792 787 c 1
 1793 787 l 1
EndSplineSet
EndChar

StartChar: currency
Encoding: 99 164 153
Width: 1229
VWidth: 0
Flags: W
HStem: 506 90<450.281 781.93> 1286 90<450.73 781.93>
VStem: 182 90<774.005 1106.08> 962 90<775.11 1107.21>
DStem2: 91 1480 38 1429 0.734651 -0.678445<0 322.604 1181.14 1503.01> 38 454 91 403 0.734651 0.678445<4.33583 326.29 1185.79 1507.35>
LayerCount: 2
Fore
SplineSet
325 1264 m 1
 402 1334 505 1376 617 1376 c 0
 731 1376 834 1333 912 1261 c 1
 1149 1480 l 1
 1194 1424 l 1
 960 1208 l 1
 1017 1134 1052 1041 1052 941 c 0
 1052 841 1018 749 961 675 c 1
 1194 459 l 1
 1149 403 l 1
 912 622 l 1
 834 550 731 506 617 506 c 0
 504 506 401 549 324 619 c 1
 91 403 l 1
 38 454 l 1
 275 672 l 1
 217 746 182 840 182 941 c 0
 182 1043 217 1136 275 1210 c 1
 38 1429 l 1
 91 1480 l 1
 325 1264 l 1
272 941 m 0
 272 751 427 596 617 596 c 0
 807 596 962 751 962 941 c 0
 962 1131 807 1286 617 1286 c 0
 427 1286 272 1131 272 941 c 0
EndSplineSet
EndChar

StartChar: d
Encoding: 68 100 154
Width: 1229
VWidth: 0
Flags: W
PickledData: "(dp1
S'com.typemytype.robofont.layerData'
p2
(dp3
S'back'
p4
(dp5
S'name'
p6
S'd'
sS'lib'
p7
(dp8
sS'unicodes'
p9
(tsS'width'
p10
I1229
sS'contours'
p11
(tsS'components'
p12
(tsS'anchors'
p13
(tsss."
HStem: -25 140<439.414 732.017> 0 21G<878 1060> 990 140<433.674 751.496> 1545 20G<878 1060>
VStem: 121 183<277.065 832.022> 878 182<0 170 280.878 840.389 946 1545>
LayerCount: 2
Fore
SplineSet
878 555 m 0xbc
 878 797 835 990 586 990 c 0
 348 990 304 769 304 545 c 0
 304 331 356 115 586 115 c 0
 827 115 878 346 878 555 c 0xbc
878 946 m 1
 878 1545 l 1
 1060 1565 l 1
 1060 0 l 1
 878 0 l 1x7c
 878 170 l 1
 831 89 733 -25 564 -25 c 0
 245 -25 121 238 121 558 c 0
 121 869 256 1130 565 1130 c 0
 741 1130 837 1046 878 946 c 1
EndSplineSet
EndChar

StartChar: dagger
Encoding: 534 8224 155
Width: 1229
VWidth: 0
Flags: W
HStem: 1014 144<240 601 758 1139> 1555 20G<601 758>
VStem: 601 157<1158 1575> 601 142<123 1014>
LayerCount: 2
Fore
SplineSet
240 1014 m 1xd0
 240 1158 l 1
 601 1158 l 1
 601 1575 l 1
 758 1575 l 1
 758 1158 l 1xe0
 1139 1158 l 1
 1139 1014 l 1
 743 1014 l 1
 743 123 l 1
 601 123 l 1
 601 1014 l 1
 240 1014 l 1xd0
EndSplineSet
EndChar

StartChar: daggerdbl
Encoding: 535 8225 156
Width: 1229
VWidth: 0
Flags: W
HStem: 472 138<229 610 746 1127> 1067 144<236 610 754 1135> 1555 20G<589 754>
VStem: 589 165<1388.63 1575> 610 136<610 1067>
LayerCount: 2
Fore
SplineSet
236 1067 m 1xe8
 236 1211 l 1
 617 1211 l 1
 589 1575 l 1
 754 1575 l 1
 754 1211 l 1xf0
 1135 1211 l 1
 1135 1067 l 1
 746 1067 l 1
 746 610 l 1
 1127 610 l 1
 1127 472 l 1
 746 472 l 1
 775 123 l 1
 586 123 l 1
 610 472 l 1
 229 472 l 1
 229 610 l 1
 610 610 l 1
 610 1067 l 1
 236 1067 l 1xe8
EndSplineSet
EndChar

StartChar: degree
Encoding: 111 176 159
Width: 1229
VWidth: 0
Flags: W
HStem: 929 125<516.476 788.042> 1442 125<515.886 791.024>
VStem: 299 139<1131.72 1365.77> 868 138<1131.49 1366.62>
LayerCount: 2
Fore
SplineSet
1006 1248 m 0
 1006 1060 840 929 653 929 c 0
 440 929 299 1096 299 1248 c 0
 299 1437 464 1567 653 1567 c 0
 865 1567 1006 1405 1006 1248 c 0
653 1054 m 0
 770 1054 868 1134 868 1250 c 0
 868 1366 769 1442 653 1442 c 0
 538 1442 438 1365 438 1250 c 0
 438 1134 536 1054 653 1054 c 0
EndSplineSet
EndChar

StartChar: dieresis
Encoding: 103 168 160
Width: 1229
VWidth: 0
Flags: W
HStem: 1268 190
VStem: 330 628
LayerCount: 2
Fore
SplineSet
765 1279 m 1
 770 1337 774 1396 774 1458 c 1
 833 1452 894 1448 958 1448 c 1
 950 1391 946 1331 946 1268 c 1
 885 1275 825 1279 765 1279 c 1
330 1448 m 1
 394 1448 455 1452 514 1458 c 1
 514 1397 518 1338 525 1279 c 1
 462 1279 401 1275 341 1268 c 1
 341 1329 337 1389 330 1448 c 1
EndSplineSet
EndChar

StartChar: divide
Encoding: 182 247 161
Width: 1229
VWidth: 0
Flags: W
HStem: 22 229<619 858> 526 151<152 1311> 948 227<619 858>
VStem: 619 239<22 251 948 1175>
LayerCount: 2
Fore
SplineSet
619 948 m 1
 619 1175 l 1
 858 1175 l 1
 858 948 l 1
 619 948 l 1
619 22 m 1
 619 251 l 1
 858 251 l 1
 858 22 l 1
 619 22 l 1
152 677 m 1
 1311 677 l 1
 1311 526 l 1
 152 526 l 1
 152 677 l 1
EndSplineSet
EndChar

StartChar: dollar
Encoding: 4 36 162
Width: 1229
VWidth: 0
Flags: W
PickledData: "(dp1
S'com.typemytype.robofont.layerData'
p2
(dp3
S'back'
p4
(dp5
S'name'
p6
S'dollar'
p7
sS'lib'
p8
(dp9
sS'unicodes'
p10
(tsS'width'
p11
I1229
sS'contours'
p12
(tsS'components'
p13
(tsS'anchors'
p14
(tsss."
HStem: -24.8922 155.195<361.761 573 666 740.63> 1360.81 155.51<454.35 573 666 834.957>
VStem: 150 207<999.813 1269.82> 573 93<-218 -24.8922 138.328 646.383 886.06 1360.64 1516.32 1752> 843 211<236.203 540.496>
LayerCount: 2
Fore
SplineSet
573 1752 m 1
 666 1752 l 1
 666 1515.25 l 1
 803.755 1507.21 914.088 1471.46 997 1406 c 1
 927 1262 l 1
 860.794 1313.59 770.192 1351.13 666 1360.64 c 1
 666 849.534 l 1
 680.005 844.019 693.434 838.552 706 833 c 0
 878 757 1054 658 1054 415 c 0
 1054 149.692 903.136 4.09035 666 -21.0617 c 1
 666 -218 l 1
 573 -218 l 1
 573 -24.8922 l 1
 399.144 -22.539 254.535 18.3101 141 94 c 1
 212 261 l 1
 300.999 188.27 425.714 134.771 573 130.303 c 1
 573 687.001 l 1
 546.489 697.588 520.398 707.665 496 718 c 0
 324 790 150 879 150 1123 c 0
 150 1369.56 331.327 1505.68 573 1516.32 c 1
 573 1752 l 1
573 886.06 m 1
 573 1360.81 l 1
 439.799 1346.12 357 1258.4 357 1121 c 0
 357 993.185 464.321 931.226 573 886.06 c 1
666 646.383 m 1
 666 138.328 l 1
 781.257 166.602 843 264.954 843 404 c 0
 843 530.983 761.979 598.498 666 646.383 c 1
EndSplineSet
EndChar

StartChar: dotaccent
Encoding: 332 729 163
Width: 1229
VWidth: 0
Flags: W
HStem: 1352 177<508 685>
VStem: 508 177<1352 1529>
LayerCount: 2
Fore
SplineSet
508 1529 m 1
 685 1529 l 1
 685 1352 l 1
 508 1352 l 1
 508 1529 l 1
EndSplineSet
EndChar

StartChar: dotlessi
Encoding: 240 305 164
Width: 1229
VWidth: 0
Flags: W
HStem: 0 144<197 606 788 1185> 953 144<266 606>
VStem: 606 182<144 953>
LayerCount: 2
Fore
SplineSet
266 953 m 1
 266 1097 l 1
 788 1097 l 1
 788 144 l 1
 1185 144 l 1
 1185 0 l 1
 197 0 l 1
 197 144 l 1
 606 144 l 1
 606 953 l 1
 266 953 l 1
EndSplineSet
EndChar

StartChar: e
Encoding: 69 101 165
Width: 1229
VWidth: 0
Flags: W
PickledData: "(dp1
S'com.typemytype.robofont.layerData'
p2
(dp3
S'back'
p4
(dp5
S'name'
p6
S'e'
sS'lib'
p7
(dp8
sS'unicodes'
p9
(tsS'width'
p10
I1229
sS'contours'
p11
(tsS'components'
p12
(tsS'anchors'
p13
(tsss."
HStem: -25 140<531.149 874.72> 520 133<373 888> 990 141<504.139 780.71>
VStem: 183 184<311.721 520 653 814.972>
LayerCount: 2
Fore
SplineSet
183 555 m 4
 183 868 346 1131 628 1131 c 4
 926 1131 1062 880 1062 581 c 6
 1062 520 l 5
 367 520 l 5
 376 303 470 115 691 115 c 4
 808 115 906 167 980 229 c 5
 1040 105 l 5
 963 28 856 -25 685 -25 c 4
 354 -25 183 224 183 555 c 4
888 653 m 5
 878 821 828 990 652 990 c 4
 454 990 393 831 373 653 c 5
 888 653 l 5
EndSplineSet
EndChar

StartChar: eight
Encoding: 24 56 171
Width: 1229
VWidth: 0
Flags: W
HStem: -24 154<481.252 771.097> 1363 153<487.001 770.298>
VStem: 181 215<220.24 547.01> 211 193<987.716 1282.97> 849 193<987.936 1283.19> 857 213<220.028 547.013>
LayerCount: 2
Fore
SplineSet
849 1150 m 0xd8
 849 1281 754 1363 626 1363 c 0
 499 1363 404 1280 404 1150 c 0
 404 982 497 909 626 874 c 1
 755 909 849 982 849 1150 c 0xd8
1070 406 m 0xc4
 1070 131 899 -24 626 -24 c 0
 353 -24 181 131 181 406 c 0xe4
 181 612 331 730 491 778 c 1
 334 833 211 942 211 1142 c 0
 211 1380 392 1516 626 1516 c 0
 860 1516 1042 1380 1042 1142 c 0xd8
 1042 943 919 833 762 778 c 1
 922 730 1070 611 1070 406 c 0xc4
396 378 m 0
 396 224 477 130 626 130 c 0
 776 130 857 223 857 378 c 0
 857 554 759 638 626 678 c 1
 494 638 396 553 396 378 c 0
EndSplineSet
EndChar

StartChar: ellipsis
Encoding: 537 8230 172
Width: 1229
VWidth: 0
Flags: W
HStem: -12 228<78 319 675 916 1274 1514>
VStem: 78 241<-12 216> 675 241<-12 216> 1274 240<-12 216>
LayerCount: 2
Fore
SplineSet
675 -12 m 1
 675 216 l 1
 916 216 l 1
 916 -12 l 1
 675 -12 l 1
1274 -12 m 1
 1274 216 l 1
 1514 216 l 1
 1514 -12 l 1
 1274 -12 l 1
78 -12 m 1
 78 216 l 1
 319 216 l 1
 319 -12 l 1
 78 -12 l 1
EndSplineSet
EndChar

StartChar: emdash
Encoding: 524 8212 174
Width: 1229
VWidth: 0
Flags: W
PickledData: "(dp1
S'com.typemytype.robofont.layerData'
p2
(dp3
S'back'
p4
(dp5
S'name'
p6
S'emdash'
p7
sS'lib'
p8
(dp9
sS'unicodes'
p10
(tsS'width'
p11
I1229
sS'contours'
p12
(tsS'components'
p13
(tsS'anchors'
p14
(tsss."
HStem: 531 149<-6 1235>
LayerCount: 2
Fore
SplineSet
-6 531 m 1
 -6 680 l 1
 1235 680 l 1
 1235 531 l 1
 -6 531 l 1
EndSplineSet
EndChar

StartChar: endash
Encoding: 523 8211 175
Width: 1229
VWidth: 0
Flags: W
HStem: 531 149<184 1391>
LayerCount: 2
Fore
SplineSet
184 531 m 1
 184 680 l 1
 1391 680 l 1
 1391 531 l 1
 184 531 l 1
EndSplineSet
EndChar

StartChar: equal
Encoding: 29 61 177
Width: 1229
VWidth: 0
Flags: W
HStem: 457 148<35 1195> 898 150<34 1194>
LayerCount: 2
Fore
SplineSet
1195 457 m 1
 35 457 l 1
 35 605 l 1
 1195 605 l 1
 1195 457 l 1
1194 898 m 1
 34 898 l 1
 34 1048 l 1
 1194 1048 l 1
 1194 898 l 1
EndSplineSet
EndChar

StartChar: eth
Encoding: 175 240 178
Width: 1229
VWidth: 0
Flags: W
HStem: -25 154<499.314 849.877> 822 153<479.862 871.235> 1115 149<724 951 1193 1355>
VStem: 135 196<299.889 484 485 666.048> 1040 207<389.097 1081.96>
LayerCount: 2
Fore
SplineSet
673 129 m 0
 931 129 1040 327 1040 583 c 0
 1040 737 812 822 662 822 c 0
 451 822 331 689 331 480 c 0
 331 274 465 129 673 129 c 0
1247 743 m 0
 1247 321 1105 -25 681 -25 c 0
 341 -25 135 201 135 484 c 1
 136 485 l 1
 136 787 338 975 641 975 c 0
 837 975 976 908 1054 786 c 1
 1054 909 1043 1015 1014 1115 c 1
 724 1115 l 1
 724 1264 l 1
 951 1264 l 1
 887 1379 789 1464 673 1527 c 1
 760 1619 l 1
 932 1554 1059 1422 1137 1264 c 1
 1355 1264 l 1
 1355 1115 l 1
 1193 1115 l 1
 1229 1004 1247 883 1247 743 c 0
EndSplineSet
EndChar

StartChar: exclam
Encoding: 1 33 179
Width: 1229
VWidth: 0
Flags: W
PickledData: "(dp1
S'com.typemytype.robofont.layerData'
p2
(dp3
S'back'
p4
(dp5
S'name'
p6
S'exclam'
p7
sS'lib'
p8
(dp9
sS'unicodes'
p10
(tsS'width'
p11
I1230
sS'contours'
p12
(tsS'components'
p13
(tsS'anchors'
p14
(tsss."
HStem: 0 276<495 735> 1472 20G<495 735>
VStem: 495 240<0 276> 584 62<489 650.562>
LayerCount: 2
Fore
SplineSet
735 0 m 1xe0
 495 0 l 1
 495 276 l 1
 735 276 l 1
 735 0 l 1xe0
584 489 m 1xd0
 495 1492 l 1
 735 1492 l 1xe0
 646 489 l 1
 584 489 l 1xd0
EndSplineSet
EndChar

StartChar: exclamdown
Encoding: 96 161 180
Width: 1229
VWidth: 0
Flags: W
HStem: 959 225<487 723>
VStem: 487 236<959 1184> 542 173<-417 753>
LayerCount: 2
Fore
SplineSet
723 1184 m 1xc0
 723 959 l 1
 487 959 l 1
 487 1184 l 1
 723 1184 l 1xc0
542 -417 m 1xa0
 542 753 l 1
 715 753 l 1
 715 -417 l 1
 542 -417 l 1xa0
EndSplineSet
EndChar

StartChar: f
Encoding: 70 102 181
Width: 1229
VWidth: 0
Flags: W
PickledData: "(dp1
S'com.typemytype.robofont.layerData'
p2
(dp3
S'back'
p4
(dp5
S'name'
p6
S'f'
sS'lib'
p7
(dp8
sS'unicodes'
p9
(tsS'width'
p10
I1229
sS'contours'
p11
((dp12
S'points'
p13
((dp14
S'segmentType'
p15
S'line'
p16
sS'x'
F1338
sS'smooth'
p17
I00
sS'y'
F628
s(dp18
g15
S'line'
p19
sS'x'
F1338
sg17
I01
sS'y'
F1143
s(dp20
S'y'
F1390
sS'x'
F1338
sg17
I00
s(dp21
S'y'
F1445
sS'x'
F1319
sg17
I00
s(dp22
g15
S'curve'
p23
sS'x'
F1098
sg17
I01
sS'y'
F1445
s(dp24
g15
S'line'
p25
sS'x'
F937
sg17
I00
sS'y'
F1445
s(dp26
g15
S'line'
p27
sS'x'
F937
sg17
I00
sS'y'
F1585
s(dp28
g15
S'line'
p29
sS'x'
F1091
sg17
I01
sS'y'
F1585
s(dp30
S'y'
F1585
sS'x'
F1484
sg17
I00
s(dp31
S'y'
F1467
sS'x'
F1520
sg17
I00
s(dp32
g15
S'curve'
p33
sS'x'
F1520
sg17
I01
sS'y'
F1097
s(dp34
g15
S'line'
p35
sS'x'
F1520
sg17
I00
sS'y'
F628
s(dp36
g15
S'line'
p37
sS'x'
F1810
sg17
I00
sS'y'
F628
s(dp38
g15
S'line'
p39
sS'x'
F1810
sg17
I00
sS'y'
F488
s(dp40
g15
S'line'
p41
sS'x'
F1520
sg17
I00
sS'y'
F488
s(dp42
g15
S'line'
p43
sS'x'
F1520
sg17
I00
sS'y'
F110
s(dp44
g15
S'line'
p45
sS'x'
F1338
sg17
I00
sS'y'
F56
s(dp46
g15
S'line'
p47
sS'x'
F1338
sg17
I00
sS'y'
F488
s(dp48
g15
S'line'
p49
sS'x'
F937
sg17
I00
sS'y'
F488
s(dp50
g15
S'line'
p51
sS'x'
F937
sg17
I00
sS'y'
F628
stp52
stp53
sS'components'
p54
(tsS'anchors'
p55
((dp56
S'y'
F979
sS'x'
F576
sg6
S'center'
p57
s(dp58
S'y'
F1528
sS'x'
F576
sg6
S'bottom'
p59
stp60
sss."
HStem: 0 21G<493 675> 957 140<206 493 675 1050> 1445 140<731.664 1040>
VStem: 493 182<0 957 1097 1389.44>
LayerCount: 2
Fore
SplineSet
675 0 m 1
 493 0 l 1
 493 957 l 1
 206 957 l 1
 206 1097 l 1
 493 1097 l 1
 493 1433 520 1585 944 1585 c 2
 1050 1585 l 1
 1040 1445 l 1
 940 1445 l 2
 751 1445 675 1419 675 1230 c 2
 675 1097 l 1
 1050 1097 l 1
 1050 957 l 1
 675 957 l 1
 675 0 l 1
EndSplineSet
EndChar

StartChar: five
Encoding: 21 53 182
Width: 1229
VWidth: 0
Flags: W
HStem: -23 153<405.305 760.091> 809 167<531.789 791.442> 1346 146<452 987>
VStem: 264 188<880 1346> 909 201<297.679 678.042>
LayerCount: 2
Fore
SplineSet
242 275 m 1
 371 171 491 130 615 130 c 0
 809 130 909 316 909 494 c 0
 909 655 826 809 654 809 c 0
 533 809 474 699 474 699 c 1
 264 699 l 1
 264 1492 l 1
 987 1492 l 1
 987 1346 l 1
 452 1346 l 1
 452 880 l 1
 452 880 552 976 674 976 c 0
 965 976 1110 739 1110 495 c 0
 1110 239 950 -23 633 -23 c 0
 423 -23 290 30 168 121 c 1
 242 275 l 1
EndSplineSet
EndChar

StartChar: florin
Encoding: 319 402 183
Width: 1229
VWidth: 0
Flags: W
HStem: -360 150<226.147 421.147> 872 152<511 672 887 1098> 1404 155<992.22 1238.75>
DStem2: 508 37 721 130 0.182562 0.983194<-203.488 850.907 1039.6 1388.21>
LayerCount: 2
Fore
SplineSet
1238 1381 m 1
 1204 1394 1168 1404 1124 1404 c 0
 908 1404 920 1207 887 1024 c 1
 1108 1024 l 1
 1098 872 l 1
 862 872 l 1
 721 130 l 1
 675 -96 607 -360 356 -360 c 0
 304 -360 257 -355 215 -343 c 1
 228 -194 l 1
 257 -205 287 -210 317 -210 c 0
 448 -210 478 -72 508 37 c 0
 579 296 619 596 672 872 c 1
 500 872 l 1
 511 1024 l 1
 699 1024 l 1
 737 1305 769 1559 1090 1559 c 0
 1149 1559 1199 1551 1248 1539 c 1
 1238 1381 l 1
EndSplineSet
EndChar

StartChar: four
Encoding: 20 52 184
Width: 1229
VWidth: 0
Flags: W
HStem: 0 21G<710 897> 398 140<250 710 897 1139> 1472 20G<654.255 897>
VStem: 710 187<0 398 538 1282>
DStem2: 61 541 250 538 0.537392 0.843333<99.0371 973.677>
LayerCount: 2
Fore
SplineSet
710 1282 m 1
 250 538 l 1
 710 538 l 1
 710 1282 l 1
897 0 m 1
 710 0 l 1
 710 398 l 1
 61 398 l 1
 61 541 l 1
 667 1492 l 1
 897 1492 l 1
 897 538 l 1
 1139 538 l 1
 1139 398 l 1
 897 398 l 1
 897 0 l 1
EndSplineSet
EndChar

StartChar: fraction
Encoding: 544 8260 185
Width: 1229
VWidth: 0
Flags: W
DStem2: 170 -48 350 -48 0.364904 0.931045<65.6827 1940.79>
LayerCount: 2
Fore
SplineSet
873 1761 m 1
 1059 1761 l 1
 350 -48 l 1
 170 -48 l 1
 873 1761 l 1
EndSplineSet
EndChar

StartChar: g
Encoding: 71 103 186
Width: 1229
VWidth: 0
Flags: W
PickledData: "(dp1
S'com.typemytype.robofont.layerData'
p2
(dp3
S'back'
p4
(dp5
S'name'
p6
S'g'
sS'lib'
p7
(dp8
sS'unicodes'
p9
(tsS'width'
p10
I1229
sS'contours'
p11
(tsS'components'
p12
(tsS'anchors'
p13
(tsss."
HStem: -461 140<322 667.943> -0.00294273 162.003<446.537 737.174> 990 140<440.998 750.219> 1077 20G<893.195 1079>
VStem: 126 183<318.856 834.306> 888 182<-126.538 210 322.31 827.209 948 1097>
LayerCount: 2
Fore
SplineSet
888 210 m 1xdc
 845.963 102.905 726.348 -0.00294273 571.371 -0.00294273 c 0
 295.333 -0.00294273 126 253.595 126 556 c 0
 126 880 264 1130 577 1130 c 0xec
 722 1130 819 1061 888 948 c 1
 894 1097 l 1
 1079 1097 l 1
 1071 879 1070 670 1070 446 c 2
 1070 152 l 2
 1070 -317 909 -461 322 -461 c 1
 307 -321 l 1
 730 -321 888 -249 888 137 c 2
 888 210 l 1xdc
597 990 m 0
 362 990 309 788 309 550 c 0
 309 360 378 162 589 162 c 0
 823 162 888 361 888 556 c 0
 888 784 833 990 597 990 c 0
EndSplineSet
EndChar

StartChar: gcommaaccent
Encoding: 226 291 189
Width: 1229
VWidth: 0
Flags: W
HStem: -441 167<310 717.048> 0 162<435.84 738.235> 969 161<434.706 751.235> 1077 20G<896.195 1082>
VStem: 111 183<328.612 807.36> 891 182<-108.568 210 329.974 806.288 948 1097>
LayerCount: 2
Fore
SplineSet
429 1249 m 1xcc
 610 1752 l 1
 756 1752 l 1
 637 1249 l 1
 429 1249 l 1xcc
891 210 m 1
 849 103 722 0 568 0 c 0
 261 0 111 253 111 556 c 0
 111 880 259 1130 572 1130 c 0xec
 717 1130 822 1061 891 948 c 1
 897 1097 l 1
 1082 1097 l 1xdc
 1074 879 1073 670 1073 446 c 2
 1073 152 l 2
 1073 -317 833 -441 310 -441 c 1
 310 -274 l 1
 317.192 -274 l 2
 600.72 -274 820.46 -273.017 875 -38 c 0
 886 9 891 68 891 137 c 2
 891 210 l 1
592 969 m 0
 357 969 294 777 294 550 c 0
 294 360 373 162 584 162 c 0
 818 162 891 361 891 556 c 0
 891 773 828 969 592 969 c 0
EndSplineSet
EndChar

StartChar: gdotaccent
Encoding: 224 289 190
Width: 1229
VWidth: 0
Flags: W
PickledData: "(dp1
S'com.typemytype.robofont.layerData'
p2
(dp3
S'back'
p4
(dp5
S'name'
p6
S'gdotaccent'
p7
sS'lib'
p8
(dp9
sS'unicodes'
p10
(tsS'width'
p11
I1229
sS'contours'
p12
(tsS'components'
p13
(tsS'anchors'
p14
(tsss."
HStem: -461 140<322 667.943> -0.00294273 162.003<446.537 737.174> 990 140<440.998 750.219> 1077 20<893.195 1079> 1252 177<514 691>
VStem: 126 183<318.856 834.306> 514 177<1252 1429> 888 182<-126.538 210 322.31 827.209 948 1097>
LayerCount: 2
Fore
SplineSet
514 1429 m 1xcf
 691 1429 l 1
 691 1252 l 1
 514 1252 l 1
 514 1429 l 1xcf
EndSplineSet
Refer: 186 103 N 1 0 0 1 0 0 3
EndChar

StartChar: germandbls
Encoding: 158 223 191
Width: 1229
VWidth: 0
Flags: W
HStem: -26 165<695.992 1034.72> 0 21G<164 382> 1442 157<507.799 842.578>
VStem: 164 218<0 1300.6> 922 219<1125.97 1370.09> 1111 236<211.873 470.027>
LayerCount: 2
Fore
SplineSet
664 1599 m 0x78
 912 1599 1141 1504 1141 1256 c 0x78
 1141 1052 944 945 823 858 c 1
 1018 739 1347 633 1347 363 c 0
 1347 104 1168 -26 908 -26 c 0
 762 -26 626 11 541 76 c 1
 612 225 l 1
 687 182 782 139 892 139 c 0
 1022 139 1111 217 1111 347 c 0xb4
 1111 498 960 570 862 627 c 0
 771 680 613 749 613 841 c 0
 613 929 712 983 768 1023 c 0
 838 1073 922 1138 922 1254 c 0
 922 1390 796 1442 660 1442 c 0
 462 1442 382 1292 382 1096 c 2
 382 0 l 1
 164 0 l 1
 164 1116 l 2
 164 1429 350 1599 664 1599 c 0x78
EndSplineSet
EndChar

StartChar: grave
Encoding: 64 96 192
Width: 1229
VWidth: 0
Flags: W
HStem: 1268 437
VStem: 418 519
LayerCount: 2
Fore
SplineSet
654 1705 m 1
 937 1268 l 1
 798 1268 l 1
 418 1705 l 1
 654 1705 l 1
EndSplineSet
EndChar

StartChar: greater
Encoding: 30 62 193
Width: 1229
VWidth: 0
Flags: W
DStem2: 152 380 152 213 0.903738 0.428086<0 865.495> 158 1321 158 1155 0.888426 -0.45902<76.1973 949.253>
LayerCount: 2
Fore
SplineSet
158 1155 m 1
 158 1321 l 1
 1178 794 l 1
 1178 699 l 1
 152 213 l 1
 152 380 l 1
 933 753 l 1
 158 1155 l 1
EndSplineSet
EndChar

StartChar: greaterequal
Encoding: 571 8805 194
Width: 1229
VWidth: 0
Flags: W
HStem: 9 134<152 1249>
DStem2: 187 389 187 237 0.908334 0.418244<0 944.714>
LayerCount: 2
Fore
SplineSet
152 9 m 1
 152 143 l 1
 1271 143 l 1
 1249 9 l 1
 152 9 l 1
1249 812 m 1
 1249 726 l 1
 187 237 l 1
 187 389 l 1
 1053 767 l 1
 152 1174 l 1
 191 1325 l 1
 1249 812 l 1
EndSplineSet
EndChar

StartChar: guillemotleft
Encoding: 106 171 195
Width: 1229
VWidth: 0
Flags: W
VStem: 495 173<185 358 819 992> 904 173<185 358 819 992>
DStem2: 386 588 197 588 0.594559 -0.804052<0 388.84> 197 588 386 588 0.602526 0.7981<113.877 506.203> 794 588 607 588 0.593267 -0.805006<0 389.677> 607 588 794 588 0.6 0.8<112.2 505>
LayerCount: 2
Fore
SplineSet
1086 992 m 1
 794 588 l 1
 1077 185 l 1
 904 185 l 1
 607 588 l 1
 910 992 l 1
 1086 992 l 1
679 992 m 1
 386 588 l 1
 668 185 l 1
 495 185 l 1
 197 588 l 1
 502 992 l 1
 679 992 l 1
EndSplineSet
EndChar

StartChar: guillemotright
Encoding: 122 187 196
Width: 1229
VWidth: 0
Flags: W
VStem: 197 176<185 361 816 992> 636 173<185 358 819 992>
DStem2: 197 185 373 185 0.602526 0.7981<106.045 498.37> 380 992 203 992 0.594559 -0.804052<0 388.84> 636 185 809 185 0.605033 0.7962<104.671 497.125>
LayerCount: 2
Fore
SplineSet
636 185 m 1
 926 589 l 1
 645 992 l 1
 817 992 l 1
 1116 589 l 1
 809 185 l 1
 636 185 l 1
197 185 m 1
 489 589 l 1
 203 992 l 1
 380 992 l 1
 678 589 l 1
 373 185 l 1
 197 185 l 1
EndSplineSet
EndChar

StartChar: guilsinglleft
Encoding: 541 8249 197
Width: 1229
VWidth: 0
Flags: W
VStem: 698 173<185 358 819 992>
DStem2: 589 588 401 588 0.593267 -0.805006<0 389.083> 401 588 589 588 0.6 0.8<112.8 505>
LayerCount: 2
Fore
SplineSet
881 992 m 1
 589 588 l 1
 871 185 l 1
 698 185 l 1
 401 588 l 1
 704 992 l 1
 881 992 l 1
EndSplineSet
EndChar

StartChar: guilsinglright
Encoding: 542 8250 198
Width: 1229
VWidth: 0
Flags: W
VStem: 401 174<185 359 818 992>
DStem2: 401 185 575 185 0.603782 0.79715<105.058 497.145>
LayerCount: 2
Fore
SplineSet
401 185 m 1
 691 589 l 1
 409 992 l 1
 582 992 l 1
 881 589 l 1
 575 185 l 1
 401 185 l 1
EndSplineSet
EndChar

StartChar: h
Encoding: 72 104 199
Width: 1229
VWidth: 0
Flags: W
PickledData: "(dp1
S'com.typemytype.robofont.layerData'
p2
(dp3
S'back'
p4
(dp5
S'name'
p6
S'h'
sS'lib'
p7
(dp8
sS'unicodes'
p9
(tsS'width'
p10
I1229
sS'contours'
p11
((dp12
S'points'
p13
((dp14
S'segmentType'
p15
S'curve'
p16
sS'x'
F709
sS'smooth'
p17
I01
sS'y'
F1130
s(dp18
S'y'
F1130
sS'x'
F962
sg17
I00
s(dp19
S'y'
F955
sS'x'
F1050
sg17
I00
s(dp20
g15
S'curve'
p21
sS'x'
F1050
sg17
I01
sS'y'
F698
s(dp22
g15
S'line'
p23
sS'x'
F1050
sg17
I00
sS'y'
F0
s(dp24
g15
S'line'
p25
sS'x'
F868
sg17
I00
sS'y'
F0
s(dp26
g15
S'line'
p27
sS'x'
F868
sg17
I01
sS'y'
F640
s(dp28
S'y'
F817
sS'x'
F868
sg17
I00
s(dp29
S'y'
F990
sS'x'
F874
sg17
I00
s(dp30
g15
S'curve'
p31
sS'x'
F645
sg17
I01
sS'y'
F990
s(dp32
S'y'
F990
sS'x'
F507
sg17
I00
s(dp33
S'y'
F888
sS'x'
F364
sg17
I00
s(dp34
g15
S'curve'
p35
sS'x'
F364
sg17
I01
sS'y'
F732
s(dp36
g15
S'line'
p37
sS'x'
F364
sg17
I00
sS'y'
F0
s(dp38
g15
S'line'
p39
sS'x'
F182
sg17
I00
sS'y'
F0
s(dp40
g15
S'line'
p41
sS'x'
F182
sg17
I00
sS'y'
F1097
s(dp42
g15
S'line'
p43
sS'x'
F349
sg17
I00
sS'y'
F1097
s(dp44
g15
S'line'
p45
sS'x'
F359
sg17
I00
sS'y'
F958
s(dp46
S'y'
F1046
sS'x'
F422
sg17
I00
s(dp47
S'y'
F1130
sS'x'
F542
sg17
I00
stp48
stp49
sS'components'
p50
(tsS'anchors'
p51
((dp52
S'y'
F0
sS'x'
F591
sg6
S'bottom'
p53
s(dp54
S'y'
F1097
sS'x'
F594
sg6
S'top'
p55
stp56
sss."
HStem: 0 21G<182 364 862 1044> 990 140<513.974 776.669> 1545 20G<182 364>
VStem: 182 182<0 866.559 964 1545> 862 182<0 892.402>
LayerCount: 2
Fore
SplineSet
1044 662 m 6
 1044 0 l 5
 862 0 l 5
 862 639 l 6
 862 827 833 990 650 990 c 4
 479 990 364 856 364 746 c 6
 364 0 l 5
 182 0 l 5
 182 1545 l 5
 364 1565 l 5
 364 964 l 5
 417 1033 523 1130 707 1130 c 4
 957 1130 1044 937 1044 662 c 6
EndSplineSet
EndChar

StartChar: hbar
Encoding: 230 295 200
Width: 1229
VWidth: 0
Flags: W
HStem: 0 21G<182 364 862 1044> 990 140<513.974 776.669> 1284 146<4 182 364 638> 1545 20G<182 364>
VStem: 182 182<0 866.559 964 1284 1430 1545> 862 182<0 892.402>
LayerCount: 2
Fore
SplineSet
1044 662 m 2
 1044 0 l 1
 862 0 l 1
 862 639 l 2
 862 827 833 990 650 990 c 0
 479 990 364 856 364 746 c 2
 364 0 l 1
 182 0 l 1
 182 1284 l 1
 4 1284 l 1
 4 1430 l 1
 182 1430 l 1
 182 1545 l 1
 364 1565 l 1
 364 1430 l 1
 638 1430 l 1
 638 1284 l 1
 364 1284 l 1
 364 964 l 1
 417 1033 523 1130 707 1130 c 0
 957 1130 1044 937 1044 662 c 2
EndSplineSet
EndChar

StartChar: hungarumlaut
Encoding: 336 733 202
Width: 1229
VWidth: 0
Flags: W
HStem: 1270 337
LayerCount: 2
Fore
SplineSet
246 1270 m 1
 495 1607 l 1
 685 1607 l 1
 374 1270 l 1
 246 1270 l 1
539 1270 m 1
 793 1607 l 1
 983 1607 l 1
 670 1270 l 1
 539 1270 l 1
EndSplineSet
EndChar

StartChar: hyphen
Encoding: 13 45 203
Width: 1229
VWidth: 0
Flags: W
HStem: 672 155<323 993>
VStem: 323 670<672 827>
LayerCount: 2
Fore
SplineSet
993 827 m 1
 993 672 l 1
 323 672 l 1
 323 827 l 1
 993 827 l 1
EndSplineSet
EndChar

StartChar: i
Encoding: 73 105 204
Width: 1229
VWidth: 0
Flags: W
PickledData: "(dp1
S'com.typemytype.robofont.layerData'
p2
(dp3
S'back'
p4
(dp5
S'name'
p6
S'i'
sS'lib'
p7
(dp8
sS'unicodes'
p9
(tsS'width'
p10
I1229
sS'contours'
p11
(tsS'components'
p12
(tsS'anchors'
p13
(tsss."
HStem: 0 140<220 568 750 1064> 957 140<255 568> 1295 281<559.432 758.568>
VStem: 538 242<1320.22 1550.78> 568 182<140 957>
LayerCount: 2
Fore
SplineSet
538 1386 m 2xf0
 538 1485 l 2
 538 1535 609 1576 659 1576 c 0
 709 1576 780 1535 780 1485 c 2
 780 1386 l 2
 780 1336 709 1295 659 1295 c 0
 609 1295 538 1336 538 1386 c 2xf0
255 957 m 1
 255 1097 l 5
 750 1097 l 1
 750 140 l 1
 1064 140 l 1
 1064 0 l 1
 220 0 l 1
 220 140 l 1
 568 140 l 1
 568 957 l 1xe8
 255 957 l 1
EndSplineSet
EndChar

StartChar: ij
Encoding: 242 307 210
Width: 1229
VWidth: 0
Flags: W
HStem: -360 140<588.5 884.864> 0 140<87.5 335.5 517.5 761.5> 957 140<122.5 335.5 670.5 931.5> 1295 281<326.932 526.068 920.932 1120.07>
VStem: 305.5 242<1320.22 1550.78> 335.5 182<140 957> 899.5 242<1320.22 1550.78> 931.5 182<-170.352 957>
LayerCount: 2
Fore
SplineSet
305.5 1386 m 2xf8
 305.5 1485 l 2
 305.5 1535 376.5 1576 426.5 1576 c 0
 476.5 1576 547.5 1535 547.5 1485 c 2
 547.5 1386 l 2
 547.5 1336 476.5 1295 426.5 1295 c 0
 376.5 1295 305.5 1336 305.5 1386 c 2xf8
122.5 957 m 1
 122.5 1097 l 1
 517.5 1097 l 1
 517.5 140 l 1
 761.5 140 l 1
 761.5 0 l 1
 87.5 0 l 1
 87.5 140 l 1
 335.5 140 l 1
 335.5 957 l 1xf4
 122.5 957 l 1
720.5 -220 m 2
 906.5 -220 931.5 -176 931.5 71 c 2
 931.5 957 l 1
 670.5 957 l 1
 670.5 1097 l 1
 1113.5 1097 l 1
 1113.5 127 l 2xf1
 1113.5 -199 1096.5 -360 721.5 -360 c 2
 588.5 -360 l 1
 588.5 -220 l 1
 720.5 -220 l 2
899.5 1386 m 2xf2
 899.5 1485 l 2
 899.5 1535 970.5 1576 1020.5 1576 c 0
 1070.5 1576 1141.5 1535 1141.5 1485 c 2
 1141.5 1386 l 2
 1141.5 1336 1070.5 1295 1020.5 1295 c 0
 970.5 1295 899.5 1336 899.5 1386 c 2xf2
EndSplineSet
EndChar

StartChar: infinity
Encoding: 566 8734 212
Width: 1229
VWidth: 0
Flags: W
HStem: 255 130<327.701 628.879 1198.38 1502.13> 899 125<320.62 625.367 1199.69 1510.23>
VStem: 70 144<497.877 794.176> 1604 155<487.167 802.248>
LayerCount: 2
Fore
SplineSet
1341 1024 m 0
 1591 1024 1759 893 1759 644 c 0
 1759 393 1545 255 1359 255 c 0
 1133 255 1018 401 916 529 c 1
 813 401 661 255 472 255 c 0
 235 255 70 428 70 663 c 0
 70 903 306 1024 468 1024 c 0
 685 1024 821 874 919 750 c 1
 1014 869 1133 1024 1341 1024 c 0
467 899 m 0
 316 899 214 791 214 642 c 0
 214 494 327 385 476 385 c 0
 647 385 765 537 839 638 c 1
 761 750 652 899 467 899 c 0
1604 663 m 0
 1604 805 1502 900 1358 900 c 0
 1182 900 1112 777 1034 680 c 0
 1020 663 1007 651 993 642 c 1
 1078 531 1182 385 1345 385 c 0
 1521 385 1604 489 1604 663 c 0
EndSplineSet
EndChar

StartChar: integral
Encoding: 567 8747 213
Width: 1229
VWidth: 0
Flags: W
HStem: -433 146<240.106 482.679> 1624 147<771.778 1014.94>
VStem: 535 183<-234.603 1572.13>
LayerCount: 2
Fore
SplineSet
1019 1608 m 1
 988 1619 951 1624 910 1624 c 0
 752 1624 718 1545 718 1389 c 2
 718 -25 l 2
 718 -265 631 -433 388 -433 c 0
 334 -433 284 -423 239 -411 c 1
 236 -270 l 1
 269 -281 304 -287 345 -287 c 0
 501 -287 535 -205 535 -51 c 2
 535 1363 l 2
 535 1605 624 1771 868 1771 c 0
 922 1771 969 1758 1016 1748 c 1
 1019 1608 l 1
EndSplineSet
EndChar

StartChar: j
Encoding: 74 106 216
Width: 1229
VWidth: 0
Flags: W
PickledData: "(dp1
S'com.typemytype.robofont.layerData'
p2
(dp3
S'back'
p4
(dp5
S'name'
p6
S'j'
sS'lib'
p7
(dp8
sS'unicodes'
p9
(tsS'width'
p10
I1229
sS'contours'
p11
(tsS'components'
p12
(tsS'anchors'
p13
(tsss."
HStem: -360 140<172 598.364> 957 140<254 645> 1295 281<634.432 833.568>
VStem: 613 242<1320.22 1550.78> 645 182<-170.352 957>
LayerCount: 2
Fore
SplineSet
434 -220 m 6xe8
 620 -220 645 -176 645 71 c 6
 645 957 l 5
 254 957 l 5
 254 1097 l 5
 827 1097 l 5
 827 127 l 6
 827 -199 810 -360 435 -360 c 6
 172 -360 l 5
 172 -220 l 5
 434 -220 l 6xe8
613 1386 m 2xf0
 613 1485 l 2
 613 1535 684 1576 734 1576 c 0
 784 1576 855 1535 855 1485 c 2
 855 1386 l 2
 855 1336 784 1295 734 1295 c 0
 684 1295 613 1336 613 1386 c 2xf0
EndSplineSet
EndChar

StartChar: jcircumflex
Encoding: 244 309 217
Width: 1229
VWidth: 0
Flags: W
HStem: -313 158<135 574.364> 953 144<136 621>
VStem: 621 182<-116.974 953>
LayerCount: 2
Fore
SplineSet
553 1615 m 1
 812 1266 l 1
 669 1266 l 1
 465 1501 l 1
 263 1266 l 1
 127 1266 l 1
 386 1615 l 1
 553 1615 l 1
410 -155 m 2
 596 -155 621 -120 621 127 c 2
 621 953 l 1
 136 953 l 1
 136 1097 l 1
 803 1097 l 1
 803 183 l 2
 803 -143 786 -313 411 -313 c 2
 135 -313 l 1
 135 -155 l 1
 410 -155 l 2
EndSplineSet
EndChar

StartChar: k
Encoding: 75 107 218
Width: 1229
VWidth: 0
Flags: W
PickledData: "(dp1
S'com.typemytype.robofont.layerData'
p2
(dp3
S'back'
p4
(dp5
S'name'
p6
S'k'
sS'lib'
p7
(dp8
sS'unicodes'
p9
(tsS'width'
p10
I1229
sS'contours'
p11
(tsS'components'
p12
(tsS'anchors'
p13
(tsss."
HStem: 0 21G<210 392 930.62 1175> 1077 20G<856.157 1108> 1545 20G<210 392>
VStem: 210 182<0 472 652 1545> 878 230<867 1097> 947 228<0 228>
DStem2: 392 652 490 558 0.753633 0.657295<0 12.0703 164.502 658.762> 619 642 490 558 0.654662 -0.755922<0 700.031>
LayerCount: 2
Fore
SplineSet
392 652 m 1xf4
 878 1097 l 1
 1108 1097 l 1xf8
 619 642 l 1
 1175 0 l 1
 947 0 l 1
 490 558 l 1
 392 472 l 1
 392 0 l 1
 210 0 l 1
 210 1545 l 1
 392 1565 l 1
 392 652 l 1xf4
EndSplineSet
EndChar

StartChar: kcommaaccent
Encoding: 246 311 219
Width: 1229
VWidth: 0
Flags: W
HStem: 0 21G<215 397 892.421 1135> 1077 20G<864.218 1126> 1565 20G<215 397>
VStem: 215 182<0 451 648 1585> 886 240<857 1097> 907 228<0 228>
DStem2: 397 648 509 546 0.745873 0.666088<0 15.5969 175.839 663.805> 639 641 509 546 0.611974 -0.790878<0 670.962>
LayerCount: 2
Fore
SplineSet
839 -152 m 1xf0
 658 -655 l 1
 512 -655 l 1
 631 -152 l 1
 839 -152 l 1xf0
397 648 m 1
 886 1097 l 1
 1126 1097 l 1xf8
 639 641 l 1
 1135 0 l 1
 907 0 l 1xf4
 509 546 l 1
 397 451 l 1
 397 0 l 1
 215 0 l 1
 215 1585 l 1
 397 1585 l 1
 397 648 l 1
EndSplineSet
EndChar

StartChar: kgreenlandic
Encoding: 247 312 220
Width: 1229
VWidth: 0
Flags: W
HStem: 0 21G<215 397 939.886 1204> 1093 20G<215 398 893.725 1164>
VStem: 215 182<0 511 604 1114> 914 250<863 1113> 962 242<0 242>
DStem2: 576 555 397 511 0.749315 -0.662213<0 656.764>
LayerCount: 2
Fore
SplineSet
398 604 m 1xe8
 914 1113 l 1
 1164 1113 l 1xf0
 576 555 l 1
 1204 0 l 1
 962 0 l 1
 397 511 l 1
 397 0 l 1
 215 0 l 1
 215 1114 l 1
 398 1114 l 1
 398 604 l 1xe8
EndSplineSet
EndChar

StartChar: l
Encoding: 76 108 221
Width: 1229
VWidth: 0
Flags: W
PickledData: "(dp1
S'com.typemytype.robofont.layerData'
p2
(dp3
S'back'
p4
(dp5
S'name'
p6
S'l'
sS'lib'
p7
(dp8
sS'unicodes'
p9
(tsS'width'
p10
I1229
sS'contours'
p11
((dp12
S'points'
p13
((dp14
S'segmentType'
p15
S'line'
p16
sS'x'
F570
sS'smooth'
p17
I00
sS'y'
F1476
s(dp18
g15
S'line'
p19
sS'x'
F738
sg17
I00
sS'y'
F1495
s(dp20
g15
S'line'
p21
sS'x'
F738
sg17
I01
sS'y'
F450
s(dp22
S'y'
F211
sS'x'
F738
sg17
I00
s(dp23
S'y'
F128
sS'x'
F739
sg17
I00
s(dp24
g15
S'curve'
p25
sS'x'
F896
sg17
I01
sS'y'
F128
s(dp26
S'y'
F128
sS'x'
F921
sg17
I00
s(dp27
S'y'
F128
sS'x'
F917
sg17
I00
s(dp28
g15
S'curve'
p29
sS'x'
F969
sg17
I00
sS'y'
F132
s(dp30
g15
S'line'
p31
sS'x'
F980
sg17
I00
sS'y'
F1
s(dp32
S'y'
F-10
sS'x'
F883
sg17
I00
s(dp33
S'y'
F-12
sS'x'
F873
sg17
I00
s(dp34
g15
S'curve'
p35
sS'x'
F856
sg17
I01
sS'y'
F-12
s(dp36
S'y'
F-12
sS'x'
F584
sg17
I00
s(dp37
S'y'
F123
sS'x'
F570
sg17
I00
s(dp38
g15
S'curve'
p39
sS'x'
F570
sg17
I01
sS'y'
F487
stp40
stp41
sS'components'
p42
(tsS'anchors'
p43
(tsss."
HStem: 0 140<704.247 1039> 1425 140<137 465>
VStem: 465 182<197.19 1425>
LayerCount: 2
Fore
SplineSet
1039 0 m 1
 894 0 l 2
 521 0 470 106 465 433 c 1
 465 1425 l 1
 137 1425 l 1
 137 1565 l 1
 647 1565 l 1
 647 442 l 2
 647 195 666 140 887 140 c 2
 1048 140 l 1
 1039 0 l 1
EndSplineSet
EndChar

StartChar: lcommaaccent
Encoding: 251 316 224
Width: 1229
VWidth: 0
Flags: W
PickledData: "(dp1
S'com.typemytype.robofont.layerData'
p2
(dp3
S'back'
p4
(dp5
S'name'
p6
S'lcommaaccent'
p7
sS'lib'
p8
(dp9
sS'unicodes'
p10
(tsS'width'
p11
I1229
sS'contours'
p12
(tsS'components'
p13
(tsS'anchors'
p14
(tsss."
HStem: 0 140<704.247 1039> 1425 140<137 465>
VStem: 465 182<197.19 1425>
LayerCount: 2
Fore
SplineSet
819 -102 m 1
 638 -604 l 1
 493 -604 l 1
 611 -102 l 1
 819 -102 l 1
EndSplineSet
Refer: 221 108 N 1 0 0 1 0 0 2
EndChar

StartChar: ldot
Encoding: 255 320 225
Width: 1229
VWidth: 0
Flags: W
HStem: 0 144<125 606 788 1259> 557 228<1716 1957> 1433 152<195 606>
VStem: 606 182<144 1433> 1716 241<557 785>
LayerCount: 2
Fore
SplineSet
1716 557 m 1
 1716 785 l 1
 1957 785 l 1
 1957 557 l 1
 1716 557 l 1
195 1433 m 1
 195 1585 l 1
 788 1585 l 1
 788 144 l 1
 1259 144 l 1
 1259 0 l 1
 125 0 l 1
 125 144 l 1
 606 144 l 1
 606 1433 l 1
 195 1433 l 1
EndSplineSet
EndChar

StartChar: less
Encoding: 28 60 226
Width: 1229
VWidth: 0
Flags: W
DStem2: 152 807 395 749 0.894078 0.447911<191.282 1067.37> 395 749 152 689 0.898608 -0.438753<0 867.619>
LayerCount: 2
Fore
SplineSet
1174 367 m 1
 1174 190 l 1
 152 689 l 1
 152 807 l 1
 1178 1321 l 1
 1178 1142 l 1
 395 749 l 1
 1174 367 l 1
EndSplineSet
EndChar

StartChar: lessequal
Encoding: 570 8804 227
Width: 1229
VWidth: 0
Flags: W
HStem: 9 134<152 1275>
DStem2: 386 771 191 723 0.90715 -0.420807<0 939.018>
LayerCount: 2
Fore
SplineSet
152 9 m 1
 152 143 l 1
 1275 143 l 1
 1275 9 l 1
 152 9 l 1
191 723 m 1
 191 811 l 1
 1243 1323 l 1
 1243 1172 l 1
 386 771 l 1
 1243 387 l 1
 1243 235 l 1
 191 723 l 1
EndSplineSet
EndChar

StartChar: logicalnot
Encoding: 107 172 228
Width: 1229
VWidth: 0
Flags: W
HStem: 715 151<152 1146>
VStem: 1146 165<258 715>
LayerCount: 2
Fore
SplineSet
1146 715 m 1
 152 715 l 1
 152 866 l 1
 1311 866 l 1
 1311 258 l 1
 1146 258 l 1
 1146 715 l 1
EndSplineSet
EndChar

StartChar: lozenge
Encoding: 572 9674 229
Width: 1229
VWidth: 0
Flags: W
DStem2: 289 774 125 772 0.519848 -0.854259<-22.4364 774.945> 125 772 289 774 0.523751 0.851871<87.5989 864.509> 682 106 740 -48 0.528418 0.848984<0 794.648> 750 1595 694 1437 0.520441 -0.853898<105.771 887.825>
LayerCount: 2
Fore
SplineSet
694 1437 m 1
 564 1210 424 997 289 774 c 1
 682 106 l 1
 810 334 949 549 1084 772 c 1
 954 994 819 1211 694 1437 c 1
740 -48 m 1
 624 -48 l 1
 125 772 l 1
 631 1595 l 1
 750 1595 l 1
 1251 773 l 1
 740 -48 l 1
EndSplineSet
EndChar

StartChar: lslash
Encoding: 257 322 230
Width: 1229
VWidth: 0
Flags: W
HStem: 0 144<125 606 788 1259> 1433 152<195 606>
VStem: 606 182<144 678.009 915.897 1433>
DStem2: 305 680 305 531 0.898557 0.438856<0 269.592 537.528 846.071>
LayerCount: 2
Fore
SplineSet
195 1433 m 1
 195 1585 l 1
 788 1585 l 1
 788 915.897 l 1
 1124 1080 l 1
 1124 931 l 1
 788 766.897 l 1
 788 144 l 1
 1259 144 l 1
 1259 0 l 1
 125 0 l 1
 125 144 l 1
 606 144 l 1
 606 678.009 l 1
 305 531 l 1
 305 680 l 1
 606 827.009 l 1
 606 1433 l 1
 195 1433 l 1
EndSplineSet
EndChar

StartChar: m
Encoding: 77 109 231
Width: 1229
VWidth: 0
Flags: W
PickledData: "(dp1
S'com.typemytype.robofont.layerData'
p2
(dp3
S'back'
p4
(dp5
S'name'
p6
S'm'
sS'lib'
p7
(dp8
sS'unicodes'
p9
(tsS'width'
p10
I1229
sS'contours'
p11
(tsS'components'
p12
(tsS'anchors'
p13
(tsss."
HStem: 0 21G<100 267 550 703 973 1140> 990 140<345.197 504.447 757.538 935.645> 1077 20G<100 246.517>
VStem: 100 167<0 913.097> 100 145<952 1097> 550 153<0 933.226> 973 167<0 954.834>
LayerCount: 2
Fore
SplineSet
857 990 m 0xce
 703 990 703 801 703 680 c 2
 703 0 l 1
 550 0 l 1
 550 669 l 2
 550 802 547 990 423 990 c 0
 311 990 267 836 267 721 c 2
 267 0 l 1
 100 0 l 1xd6
 100 1097 l 1
 245 1097 l 1xae
 256 952 l 1
 288 1036 352 1130 462 1130 c 0
 567 1130 640 1065 668 960 c 1
 711 1070 780 1130 899 1130 c 0
 1107 1130 1140 914 1140 703 c 2
 1140 0 l 1
 973 0 l 1
 973 682 l 2
 973 824 973 990 857 990 c 0xce
EndSplineSet
EndChar

StartChar: macron
Encoding: 110 175 232
Width: 1229
VWidth: 0
Flags: W
HStem: 1499 140<275 954>
VStem: 275 679<1499 1639>
LayerCount: 2
Fore
SplineSet
275 1499 m 5
 275 1639 l 5
 954 1639 l 5
 954 1499 l 5
 275 1499 l 5
EndSplineSet
EndChar

StartChar: minus
Encoding: 564 8722 233
Width: 1229
VWidth: 0
Flags: W
HStem: 538 149<152 1312>
LayerCount: 2
Fore
SplineSet
1312 538 m 1
 152 538 l 1
 152 687 l 1
 1312 687 l 1
 1312 538 l 1
EndSplineSet
EndChar

StartChar: multiply
Encoding: 150 215 234
Width: 1229
VWidth: 0
Flags: W
HStem: 489 224<521 745>
DStem2: 305 1036 190 924 0.714472 -0.699664<0 455.837 619.451 1076> 190 278 305 168 0.713093 0.701069<4.88806 461.041 624.339 1081.21>
LayerCount: 2
Fore
SplineSet
1077 280 m 1
 961 168 l 1
 633 489 l 1
 305 168 l 1
 190 278 l 1
 518 602 l 1
 190 924 l 1
 305 1036 l 1
 633 713 l 1
 961 1036 l 1
 1077 923 l 1
 747 602 l 1
 1077 280 l 1
EndSplineSet
EndChar

StartChar: n
Encoding: 78 110 235
Width: 1229
VWidth: 0
Flags: W
PickledData: "(dp1
S'com.typemytype.robofont.layerData'
p2
(dp3
S'back'
p4
(dp5
S'name'
p6
S'n'
sS'lib'
p7
(dp8
sS'unicodes'
p9
(tsS'width'
p10
I1229
sS'contours'
p11
(tsS'components'
p12
(tsS'anchors'
p13
(tsss."
HStem: 0 21G<196 378 872 1054> 990 140<503.305 801.128> 1077 20G<196 364.681>
VStem: 196 182<0 879.05> 196 167<978 1097> 872 182<0 912.076>
LayerCount: 2
Fore
SplineSet
713 1130 m 0xcc
 966 1130 1054 955 1054 698 c 2
 1054 0 l 1
 872 0 l 1
 872 650 l 2
 872 658.813 872 667.592 872 676.317 c 0
 872 842.828 866.598 990 649 990 c 0
 511 990 378 898 378 742 c 2
 378 0 l 1
 196 0 l 1xd4
 196 1097 l 1
 363 1097 l 1xac
 373 978 l 1
 436 1066 546 1130 713 1130 c 0xcc
EndSplineSet
EndChar

StartChar: ncommaaccent
Encoding: 261 326 238
Width: 1229
VWidth: 0
Flags: W
PickledData: "(dp1
S'com.typemytype.robofont.layerData'
p2
(dp3
S'back'
p4
(dp5
S'name'
p6
S'ncommaaccent'
p7
sS'lib'
p8
(dp9
sS'unicodes'
p10
(tsS'width'
p11
I1229
sS'contours'
p12
(tsS'components'
p13
(tsS'anchors'
p14
(tsss."
HStem: 0 21<196 378 872 1054> 990 140<503.305 801.128> 1077 20<196 364.681>
VStem: 196 167<978 1097> 196 182<0 879.05> 872 182<0 912.076>
LayerCount: 2
Fore
SplineSet
799 -102 m 1x84
 618 -604 l 1
 473 -604 l 1
 591 -102 l 1
 799 -102 l 1x84
EndSplineSet
Refer: 235 110 N 1 0 0 1 0 0 2
EndChar

StartChar: nine
Encoding: 25 57 239
Width: 1229
VWidth: 0
Flags: W
HStem: 0 21G<297 554.437> 610 140<507.261 805.035> 1363 154<516.789 826.586>
VStem: 193 190<879.838 1230.05> 297 242<0 242> 953 200<886.843 1234.5>
DStem2: 297 0 539 0 0.62384 0.781552<150.969 855.989>
LayerCount: 2
Fore
SplineSet
953 1064 m 0xf4
 953 1238 843 1363 667 1363 c 0
 497 1363 383 1233 383 1056 c 0
 383 883 482 750 655 750 c 0
 853 750 953 886 953 1064 c 0xf4
665 1517 m 0
 972 1517 1153 1334 1153 1029 c 0
 1153 838 1079 699 989 583 c 2
 539 0 l 1
 297 0 l 1xec
 831 669 l 1
 780 637 694 610 615 610 c 0
 353 610 193 790 193 1052 c 0
 193 1352 420 1517 665 1517 c 0
EndSplineSet
EndChar

StartChar: notequal
Encoding: 569 8800 240
Width: 1229
VWidth: 0
Flags: W
HStem: 353 130<161 487 700 1273> 791 131<161 716 929 1271>
DStem2: 345 70 480 50 0.455247 0.890365<43.6511 316.618 529.334 810.85 1024.46 1289.35>
LayerCount: 2
Fore
SplineSet
929 922 m 1
 1271 922 l 1
 1282 791 l 1
 864 791 l 1
 700 483 l 1
 1273 483 l 1
 1282 353 l 1
 635 353 l 1
 480 50 l 1
 345 70 l 1
 487 353 l 1
 161 353 l 1
 153 483 l 1
 554 483 l 1
 716 791 l 1
 161 791 l 1
 152 922 l 1
 779 922 l 1
 930 1219 l 1
 1068 1200 l 1
 929 922 l 1
EndSplineSet
EndChar

StartChar: numbersign
Encoding: 3 35 242
Width: 1229
VWidth: 0
Flags: W
PickledData: "(dp1
S'com.typemytype.robofont.layerData'
p2
(dp3
S'back'
p4
(dp5
S'name'
p6
S'numbersign'
p7
sS'lib'
p8
(dp9
sS'unicodes'
p10
(tsS'width'
p11
I1229
sS'contours'
p12
(tsS'components'
p13
(tsS'anchors'
p14
(tsss."
HStem: -25 21G<230 396.896 610 775.939> 437 136<121 324 509 698 886 1058> 996 134<219 430 619 811 997 1155> 1548 20G<537.073 704 917.164 1083>
VStem: 230 163<-25 138> 541 163<1405 1568> 610 162<-25 137> 921 162<1406 1568>
DStem2: 230 -25 393 -25 0.191612 0.981471<31.2327 471.451 640.379 1040.4 1208.14 1623.07> 610 -25 772 -25 0.191612 0.981471<31.0411 470.301 639.804 1041.58 1207.75 1623.07>
LayerCount: 2
Fore
SplineSet
592 997 m 1xf9
 509 573 l 1
 727 573 l 1
 811 997 l 1
 592 997 l 1xf9
1155 997 m 1
 971 997 l 1
 886 573 l 1
 1073 573 l 1
 1058 437 l 1
 863 437 l 1
 772 -25 l 1
 610 -25 l 1xfb
 698 437 l 1
 483 437 l 1
 393 -25 l 1
 230 -25 l 1
 324 437 l 1
 108 437 l 1
 121 573 l 1
 350 573 l 1
 430 996 l 1
 205 996 l 1
 219 1130 l 1
 455 1130 l 1
 541 1568 l 1
 704 1568 l 1xfd
 619 1130 l 1
 837 1130 l 1
 921 1568 l 1
 1083 1568 l 1
 997 1130 l 1
 1172 1130 l 1
 1155 997 l 1
EndSplineSet
EndChar

StartChar: o
Encoding: 79 111 243
Width: 1229
VWidth: 0
Flags: W
PickledData: "(dp1
S'com.typemytype.robofont.layerData'
p2
(dp3
S'back'
p4
(dp5
S'name'
p6
S'o'
sS'lib'
p7
(dp8
sS'unicodes'
p9
(tsS'width'
p10
I1229
sS'contours'
p11
(tsS'components'
p12
(tsS'anchors'
p13
(tsss."
HStem: -25 140<462.045 765.795> 990 140<466.819 765.541>
VStem: 138 184<286.292 815.644> 909 182<289.111 815.405>
LayerCount: 2
Fore
SplineSet
322 550 m 0
 322 336 384 115 612 115 c 0
 847 115 909 335 909 553 c 0
 909 770 848 990 612 990 c 0
 384 990 322 764 322 550 c 0
612 1130 m 0
 941 1130 1091 883 1091 558 c 0
 1091 210 910 -25 612 -25 c 0
 289 -25 138 232 138 551 c 0
 138 897 316 1130 612 1130 c 0
EndSplineSet
EndChar

StartChar: oe
Encoding: 274 339 248
Width: 1229
VWidth: 0
Flags: W
HStem: -25 154<339.215 507.825 812.431 1016.64> 520 133<739 1026> 977 153<340.678 506.213 811.345 962.573>
VStem: 70 183<249.616 849.743> 589 144<239.072 520 653 861.108> 1026 144<653 896.98>
LayerCount: 2
Fore
SplineSet
1026 653 m 1
 1021 821 986 977 890 977 c 0
 792 977 747 824 739 653 c 1
 1026 653 l 1
1148 98 m 1
 1080 22 998 -25 875 -25 c 0
 774 -25 701 44 654 156 c 1
 599 41 517 -25 419 -25 c 0
 192 -25 70 232 70 551 c 0
 70 897 215 1130 427 1130 c 0
 531 1130 609 1062 661 951 c 1
 714 1065 793 1130 890 1130 c 0
 1073 1130 1170 880 1170 581 c 1
 1169 520 l 1
 733 520 l 1
 741 302 787 129 888 129 c 0
 969 129 1024 171 1068 222 c 1
 1148 98 l 1
253 550 m 0
 253 343 296 129 425 129 c 0
 547 129 589 337 589 559 c 0
 589 769 543 977 425 977 c 0
 296 977 253 757 253 550 c 0
EndSplineSet
EndChar

StartChar: ogonek
Encoding: 334 731 249
Width: 1229
VWidth: 0
Flags: W
HStem: -424 118<584.394 847.77> -392 121<729 850>
VStem: 414 155<-286.95 -121.771>
LayerCount: 2
Fore
SplineSet
414 -244 m 0xa0
 414 -104 555 -33 653 13 c 1
 795 0 l 1
 708 -50 569 -120 569 -212 c 0
 569 -280 631 -306 699 -306 c 0xa0
 756 -306 806 -288 850 -271 c 1
 850 -392 l 1x60
 799 -413 744 -424 687 -424 c 0
 546 -424 414 -385 414 -244 c 0xa0
EndSplineSet
EndChar

StartChar: one
Encoding: 17 49 253
Width: 1229
VWidth: 0
Flags: W
PickledData: "(dp1
S'com.typemytype.robofont.layerData'
p2
(dp3
S'back'
p4
(dp5
S'name'
p6
S'one'
p7
sS'lib'
p8
(dp9
sS'unicodes'
p10
(tsS'width'
p11
I1229
sS'contours'
p12
(tsS'components'
p13
(tsS'anchors'
p14
(tsss."
HStem: 0 146<238 574 761 1075> 1106 21G<237 294.5> 1472 20G<518.5 761>
VStem: 574 187<146 1290>
LayerCount: 2
Fore
SplineSet
1075 0 m 1
 238 0 l 1
 238 146 l 1
 574 146 l 1
 574 1290 l 1
 471 1232 352 1150 237 1106 c 1
 237 1287 l 1
 368 1341 464 1415 573 1492 c 1
 761 1492 l 1
 761 146 l 1
 1075 146 l 1
 1075 0 l 1
EndSplineSet
EndChar

StartChar: onehalf
Encoding: 124 189 254
Width: 1229
VWidth: 0
Flags: W
HStem: -26 127<1117 1520> 1 21G<157 335.829> 656 125<36 171 304 440> 754 127<1094.07 1350.55>
VStem: 157 166<1 167> 171 133<785 1381> 1160 163<1397 1560> 1378 142<525.197 722.315>
DStem2: 157 1 323 1 0.541057 0.840986<89.8155 1853.78>
LayerCount: 2
Fore
SplineSet
171 1381 m 1x27
 116 1353 61 1329 2 1306 c 1
 3 1447 l 1
 71 1470 131 1498 188 1533 c 1
 304 1549 l 1
 304 781 l 1
 440 781 l 1
 440 656 l 1
 36 656 l 1
 36 785 l 1
 171 785 l 1
 171 1381 l 1x27
323 1 m 1x4b
 157 1 l 1
 1160 1560 l 1
 1323 1560 l 1
 323 1 l 1x4b
1207 881 m 0x93
 1381 881 1521 809 1521 635 c 0
 1521 509 1444 410 1377 337 c 0
 1302 254 1199 171 1117 101 c 1
 1520 101 l 1
 1520 -26 l 1
 914 -26 l 1
 914 94 l 1
 1062 229 1247 372 1351 550 c 0
 1369 581 1378 608 1378 632 c 1
 1380 632 l 1
 1380 717 1309 754 1224 754 c 0
 1118 754 1054 686 1017 612 c 1
 924 697 l 1
 968 795 1067 881 1207 881 c 0x93
EndSplineSet
EndChar

StartChar: onequarter
Encoding: 123 188 255
Width: 1229
VWidth: 0
Flags: W
HStem: 1 21G<242 421.816 1420.5 1487> 245 116<1091 1353 1490 1610> 656 125<57 191 326 461>
VStem: 191 135<785 1381> 242 167<1 168> 1244 164<1396 1560> 1354 133<41 245 361 725>
DStem2: 242 1 409 1 0.540676 0.841231<90.2929 1853.24> 936 345 1091 361 0.584381 0.811479<103.563 552.633>
LayerCount: 2
Fore
SplineSet
1353 361 m 1xe2
 1353 431 1352 500 1352 570 c 0
 1352 622 1353 673 1354 725 c 1
 1091 361 l 1
 1353 361 l 1xe2
191 1381 m 1xf0
 136 1352 80 1326 23 1306 c 1
 24 1447 l 1
 88 1468 149 1497 209 1533 c 1
 326 1549 l 1
 326 781 l 1
 461 781 l 1
 461 656 l 1
 57 656 l 1
 57 785 l 1
 191 785 l 1
 191 1381 l 1xf0
409 1 m 1xec
 242 1 l 1
 1244 1560 l 1
 1408 1560 l 1
 409 1 l 1xec
1354 245 m 1xe2
 936 245 l 1
 936 345 l 1
 1340 906 l 1
 1490 906 l 1
 1490 361 l 1
 1610 361 l 1
 1621 245 l 1
 1487 245 l 1
 1487 1 l 1
 1354 41 l 1
 1354 245 l 1xe2
EndSplineSet
EndChar

StartChar: ordfeminine
Encoding: 105 170 256
Width: 1229
VWidth: 0
Flags: W
HStem: 834 111<453.344 717.503> 1205 110<503.573 797> 1486 118<459.646 766.427>
VStem: 276 153<970.426 1142.37> 798 143<853 933 1026.34 1205 1310.06 1452.13>
LayerCount: 2
Fore
SplineSet
580 945 m 0
 718 945 798 1041 798 1178 c 2
 798 1205 l 1
 670 1182 429 1208 429 1061 c 0
 429 973 493 945 580 945 c 0
327 1466 m 1
 383 1560 493 1604 641 1604 c 0
 824 1604 945 1523 945 1340 c 0
 945 1254 941 1170 941 1086 c 0
 941 1008 944 930 951 853 c 1
 806 853 l 1
 799 933 l 1
 747 868 664 834 555 834 c 0
 406 834 276 909 276 1058 c 0
 276 1306 576 1286 797 1315 c 1
 797 1441 760 1486 633 1486 c 0
 527 1486 446 1452 401 1384 c 1
 327 1466 l 1
EndSplineSet
EndChar

StartChar: ordmasculine
Encoding: 121 186 257
Width: 1229
VWidth: 0
Flags: W
HStem: 833 117<535.974 827.805> 1486 116<535.712 829.721>
VStem: 281 156<1050.54 1387.61> 927 153<1055.62 1387.49>
LayerCount: 2
Fore
SplineSet
684 950 m 0
 837 950 927 1062 927 1214 c 0
 927 1376 845 1486 681 1486 c 0
 522 1486 437 1375 437 1218 c 0
 437 1059 523 950 684 950 c 0
684 833 m 0
 440 833 281 977 281 1220 c 0
 281 1456 444 1602 682 1602 c 0
 926 1602 1080 1459 1080 1217 c 0
 1080 982 921 833 684 833 c 0
EndSplineSet
EndChar

StartChar: oslash
Encoding: 183 248 258
Width: 1229
VWidth: 0
Flags: W
HStem: -25 154<509.74 766.383> 977 153<459.943 730.128>
VStem: 118 183<314.527 786.039> 927 183<314.681 796.142>
DStem2: 210 -242 322 -283 0.398521 0.917159<7.0308 321.063 496.752 1279.54 1459.51 1776.09>
LayerCount: 2
Fore
SplineSet
322 -283 m 1
 210 -242 l 1
 338.347 52.2935 l 1
 192.348 151.794 118 337.513 118 551 c 0
 118 897 319 1130 615 1130 c 0
 681.956 1130 742.161 1119.77 795.59 1100.73 c 1
 920 1386 l 1
 1032 1351 l 1
 899.852 1046.87 l 1
 1039.68 948.027 1110 769.536 1110 558 c 0
 1110 210 905 -25 607 -25 c 0
 547.644 -25 493.589 -16.3212 444.893 -0.173657 c 1
 322 -283 l 1
508.652 146.563 m 1
 539.448 135.219 574.132 129 613 129 c 0
 848 129 927 342 927 553 c 0
 927 676.895 899.85 802.183 829.122 884.095 c 1
 508.652 146.563 l 1
408.579 213.334 m 1
 731.987 954.894 l 1
 697.767 969.118 658.294 977 613 977 c 0
 385 977 301 757 301 550 c 0
 301 423.624 332.309 294.639 408.579 213.334 c 1
EndSplineSet
EndChar

StartChar: p
Encoding: 80 112 260
Width: 1229
VWidth: 0
Flags: W
PickledData: "(dp1
S'com.typemytype.robofont.layerData'
p2
(dp3
S'back'
p4
(dp5
S'name'
p6
S'p'
sS'lib'
p7
(dp8
sS'unicodes'
p9
(tsS'width'
p10
I1229
sS'contours'
p11
((dp12
S'points'
p13
((dp14
S'segmentType'
p15
S'curve'
p16
sS'x'
F337
sS'smooth'
p17
I01
sS'y'
F550
s(dp18
S'y'
F336
sS'x'
F337
sg17
I00
s(dp19
S'y'
F115
sS'x'
F399
sg17
I00
s(dp20
g15
S'curve'
p21
sS'x'
F627
sg17
I01
sS'y'
F115
s(dp22
S'y'
F115
sS'x'
F862
sg17
I00
s(dp23
S'y'
F335
sS'x'
F924
sg17
I00
s(dp24
g15
S'curve'
p25
sS'x'
F924
sg17
I01
sS'y'
F553
s(dp26
S'y'
F770
sS'x'
F924
sg17
I00
s(dp27
S'y'
F990
sS'x'
F863
sg17
I00
s(dp28
g15
S'curve'
p29
sS'x'
F627
sg17
I01
sS'y'
F990
s(dp30
S'y'
F990
sS'x'
F399
sg17
I00
s(dp31
S'y'
F764
sS'x'
F337
sg17
I00
stp32
s(dp33
g13
((dp34
g15
S'curve'
p35
sS'x'
F627
sg17
I01
sS'y'
F1130
s(dp36
S'y'
F1130
sS'x'
F956
sg17
I00
s(dp37
S'y'
F883
sS'x'
F1106
sg17
I00
s(dp38
g15
S'curve'
p39
sS'x'
F1106
sg17
I01
sS'y'
F558
s(dp40
S'y'
F210
sS'x'
F1106
sg17
I00
s(dp41
S'y'
F-25
sS'x'
F925
sg17
I00
s(dp42
g15
S'curve'
p43
sS'x'
F627
sg17
I01
sS'y'
F-25
s(dp44
S'y'
F-25
sS'x'
F304
sg17
I00
s(dp45
S'y'
F232
sS'x'
F153
sg17
I00
s(dp46
g15
S'curve'
p47
sS'x'
F153
sg17
I01
sS'y'
F551
s(dp48
S'y'
F897
sS'x'
F153
sg17
I00
s(dp49
S'y'
F1130
sS'x'
F331
sg17
I00
stp50
stp51
sS'components'
p52
(tsS'anchors'
p53
((dp54
S'y'
F1097
sS'x'
F630
sg6
S'top'
p55
stp56
sss."
HStem: -441 21G<159 341> -25.095 140.095<484.091 791.18> 990 140<481.658 792.209> 1077 20G<159 341>
VStem: 159 182<-421 150 286.313 832.43 946 1097> 924 183<278.245 834.613>
LayerCount: 2
Fore
SplineSet
339 555 m 0xec
 339 319 406 115 647 115 c 0
 876 115 924 341 924 555 c 0
 924 779 877 990 644 990 c 0
 402 990 339 797 339 555 c 0xec
669.869 -25.095 m 0
 495.398 -25.095 392.048 58.1134 341 150 c 1
 341 -421 l 1
 159 -441 l 1
 159 1097 l 1
 341 1097 l 1xdc
 341 946 l 1
 399 1046 503 1130 659 1130 c 0
 968 1130 1107 879 1107 568 c 0
 1107 251.384 975.819 -25.095 669.869 -25.095 c 0
EndSplineSet
EndChar

StartChar: paragraph
Encoding: 117 182 261
Width: 1229
VWidth: 0
Flags: W
HStem: 1441 134<596.689 825 969 1065>
VStem: 66 529<1044.71 1393.68> 438 157<-160 853> 825 144<-160 1441>
LayerCount: 2
Fore
SplineSet
66 1227 m 0xd0
 66 1514 350 1575 637 1575 c 2
 1065 1575 l 1
 1065 1441 l 1
 969 1441 l 1
 969 -160 l 1
 825 -160 l 1
 825 1441 l 1
 595 1441 l 1
 595 -160 l 1
 438 -160 l 1
 438 853 l 1xb0
 222 856 66 1010 66 1227 c 0xd0
EndSplineSet
EndChar

StartChar: parenleft
Encoding: 8 40 262
Width: 1229
VWidth: 0
Flags: W
PickledData: "(dp1
S'com.typemytype.robofont.layerData'
p2
(dp3
S'back'
p4
(dp5
S'name'
p6
S'parenleft'
p7
sS'lib'
p8
(dp9
sS'unicodes'
p10
(tsS'width'
p11
I1229
sS'contours'
p12
(tsS'components'
p13
(tsS'anchors'
p14
(tsss."
VStem: 383 194<403.685 1144.53>
LayerCount: 2
Fore
SplineSet
383 772 m 0
 383 1157 509 1462 685 1705 c 1
 861 1705 l 1
 671 1405 577 1097 577 781 c 0
 577 400 699 110 863 -152 c 1
 688 -152 l 1
 508 88 383 388 383 772 c 0
EndSplineSet
EndChar

StartChar: parenright
Encoding: 9 41 263
Width: 1229
VWidth: 0
Flags: W
PickledData: "(dp1
S'com.typemytype.robofont.layerData'
p2
(dp3
S'back'
p4
(dp5
S'name'
p6
S'parenright'
p7
sS'lib'
p8
(dp9
sS'unicodes'
p10
(tsS'width'
p11
I1229
sS'contours'
p12
(tsS'components'
p13
(tsS'anchors'
p14
(tsss."
VStem: 620 195<403.685 1144.53>
LayerCount: 2
Fore
SplineSet
815 772 m 0
 815 388 690 88 510 -152 c 1
 334 -152 l 1
 498 110 620 400 620 781 c 0
 620 1097 526 1405 336 1705 c 1
 513 1705 l 1
 689 1462 815 1157 815 772 c 0
EndSplineSet
EndChar

StartChar: partialdiff
Encoding: 560 8706 264
Width: 1229
VWidth: 0
Flags: W
HStem: -26 146<433.829 749.551> 943 145<529.832 866.801> 1519 145<458.543 832.013>
VStem: 121 188<254.744 684.457> 1027 188<907 1274.91>
LayerCount: 2
Fore
SplineSet
1011 712 m 1
 963 847 871 943 693 943 c 0
 440 943 309 702 309 453 c 0
 309 263 397 120 589 120 c 0
 871 120 982 463 1011 712 c 1
667 1519 m 0
 539 1519 433 1470 350 1416 c 1
 339 1566 l 1
 428 1623 541 1664 678 1664 c 0
 1064 1664 1215 1346 1215 962 c 0
 1215 450 1026 -26 573 -26 c 0
 282 -26 121 167 121 455 c 0
 121 827 356 1088 677 1088 c 0
 841 1088 952 1006 1027 907 c 1
 1028 989 l 1
 1028 1258 936 1519 667 1519 c 0
EndSplineSet
EndChar

StartChar: percent
Encoding: 5 37 265
Width: 1229
VWidth: 0
Flags: W
PickledData: "(dp1
S'com.typemytype.robofont.layerData'
p2
(dp3
S'back'
p4
(dp5
S'name'
p6
S'percent'
p7
sS'lib'
p8
(dp9
sS'unicodes'
p10
(tsS'width'
p11
I1229
sS'contours'
p12
(tsS'components'
p13
(tsS'anchors'
p14
(tsss."
HStem: -19 114<809.379 993.73> 548 114<809.722 996.182> 890 114<235.379 419.73> 1104 20G<1030.82 1075.51> 1457 114<235.722 422.182>
VStem: 66 127<1042.53 1415.14> 465 124<1045.9 1416.97> 640 127<133.528 506.143> 1039 124<136.904 507.966>
DStem2: 140 567 201 465 0.856428 0.516267<0 1076.42>
LayerCount: 2
Fore
SplineSet
330 1457 m 0
 216 1457 193 1345 193 1228 c 0
 193 1110 214 1004 329 1004 c 0
 440 1004 465 1118 465 1232 c 0
 465 1349 442 1457 330 1457 c 0
1125 1018 m 1
 201 465 l 1
 140 567 l 1
 1064 1124 l 1
 1125 1018 l 1
333 1571 m 0
 522 1571 589 1425 589 1232 c 0
 589 1023 494 890 325 890 c 0
 136 890 66 1038 66 1228 c 0
 66 1422 142 1571 333 1571 c 0
907 662 m 0
 1096 662 1163 516 1163 323 c 0
 1163 114 1068 -19 899 -19 c 0
 710 -19 640 129 640 319 c 0
 640 513 716 662 907 662 c 0
904 548 m 0
 790 548 767 436 767 319 c 0
 767 201 788 95 903 95 c 0
 1014 95 1039 209 1039 323 c 0
 1039 440 1016 548 904 548 c 0
EndSplineSet
EndChar

StartChar: period
Encoding: 14 46 266
Width: 1229
VWidth: 0
Flags: W
HStem: 0 301<463 764>
VStem: 463 301<0 301>
LayerCount: 2
Fore
SplineSet
764 0 m 1
 463 0 l 1
 463 301 l 1
 764 301 l 1
 764 0 l 1
EndSplineSet
EndChar

StartChar: periodcentered
Encoding: 118 183 267
Width: 1229
VWidth: 0
Flags: W
HStem: 557 228<487 728>
VStem: 487 241<557 785>
LayerCount: 2
Fore
SplineSet
487 557 m 1
 487 785 l 1
 728 785 l 1
 728 557 l 1
 487 557 l 1
EndSplineSet
EndChar

StartChar: perthousand
Encoding: 538 8240 268
Width: 1229
VWidth: 0
Flags: W
HStem: -30 123<1089.33 1351.13 1959.88 2224.23> 616 124<1092.93 1357.77 1964.17 2229.36> 804 122<250.268 509.635> 1449 122<253.29 512.648>
VStem: 4 163<1010.67 1356.46> 195 170<-22 148> 593 159<1015.65 1364.62> 848 161<181.549 522.592> 1234 165<1394 1559> 1438 157<185.621 532.086> 1721 159<177.161 524.872> 2307 161<187.012 531.793>
DStem2: 195 -22 365 -22 0.549199 0.835692<93.3638 1891.85>
LayerCount: 2
Fore
SplineSet
379 1449 m 0
 236 1449 167 1331 167 1189 c 0
 167 1040 231 926 382 926 c 0
 527 926 593 1044 593 1187 c 0
 593 1337 531 1449 379 1449 c 0
1438 355 m 0
 1438 505 1375 616 1224 616 c 0
 1077 616 1009 501 1009 356 c 1
 1011 356 l 1
 1011 205 1072 93 1225 93 c 0
 1369 93 1438 212 1438 355 c 0
2094 93 m 0
 2240 93 2307 210 2307 355 c 1
 2310 355 l 1
 2310 505 2246 616 2094 616 c 0
 1948 616 1880 501 1880 356 c 0
 1880 204 1941 93 2094 93 c 0
1234 1559 m 1
 1399 1559 l 1
 365 -22 l 1
 195 -22 l 1
 1234 1559 l 1
379 1571 m 0
 619 1571 752 1424 752 1186 c 0
 752 953 610 804 376 804 c 0
 137 804 4 951 4 1188 c 0
 4 1420 145 1571 379 1571 c 0
1225 740 m 0
 1465 740 1595 591 1595 353 c 0
 1595 122 1453 -30 1221 -30 c 0
 982 -30 848 119 848 356 c 0
 848 588 992 740 1225 740 c 0
2097 740 m 0
 2337 740 2468 592 2468 353 c 0
 2468 122 2325 -30 2093 -30 c 0
 1854 -30 1721 118 1721 356 c 0
 1721 589 1863 740 2097 740 c 0
EndSplineSet
EndChar

StartChar: plus
Encoding: 11 43 269
Width: 1229
VWidth: 0
Flags: W
HStem: 676 151<152 648 814 1311>
VStem: 648 165<217 676 827 1286>
LayerCount: 2
Fore
SplineSet
652 1286 m 1
 814 1286 l 1
 814 827 l 1
 1311 827 l 1
 1311 676 l 1
 813 676 l 1
 813 217 l 1
 648 217 l 1
 648 676 l 1
 152 676 l 1
 152 827 l 1
 652 827 l 1
 652 1286 l 1
EndSplineSet
EndChar

StartChar: plusminus
Encoding: 112 177 270
Width: 1229
VWidth: 0
Flags: W
HStem: 0 150<152 1312> 645 150<152 644 813 1309>
VStem: 644 166<242 645 795 1201>
LayerCount: 2
Fore
SplineSet
152 150 m 1
 1312 150 l 1
 1312 0 l 1
 152 0 l 1
 152 150 l 1
644 1201 m 1
 810 1201 l 1
 810 795 l 1
 1309 795 l 1
 1309 645 l 1
 813 645 l 1
 813 242 l 1
 647 242 l 1
 647 645 l 1
 152 645 l 1
 152 795 l 1
 644 795 l 1
 644 1201 l 1
EndSplineSet
EndChar

StartChar: product
Encoding: 562 8719 271
Width: 1229
VWidth: 0
Flags: W
HStem: 1388 157<174 312 506 1306 1503 1629>
VStem: 312 194<-358 1388> 1306 197<-358 1388>
LayerCount: 2
Fore
SplineSet
1503 1388 m 1
 1503 -358 l 1
 1306 -358 l 1
 1306 1388 l 1
 506 1388 l 1
 506 -358 l 1
 312 -358 l 1
 312 1388 l 1
 174 1388 l 1
 156 1545 l 1
 1647 1545 l 1
 1629 1388 l 1
 1503 1388 l 1
EndSplineSet
EndChar

StartChar: q
Encoding: 81 113 272
Width: 1229
VWidth: 0
Flags: W
PickledData: "(dp1
S'com.typemytype.robofont.layerData'
p2
(dp3
S'back'
p4
(dp5
S'name'
p6
S'q'
sS'lib'
p7
(dp8
sS'unicodes'
p9
(tsS'width'
p10
I1229
sS'contours'
p11
(tsS'components'
p12
(tsS'anchors'
p13
(tsss."
HStem: -441 21G<908.932 1089> -25 140<437.704 750.881> 990 140<431.876 758.043> 1077 20G<907 1089>
VStem: 106 183<298.48 824.539> 907 182<-421 150 294.751 816.022 946 1097>
LayerCount: 2
Fore
SplineSet
907 555 m 0xec
 907 797 835 990 586 990 c 0
 348 990 289 779 289 555 c 0
 289 341 356 115 586 115 c 0
 827 115 907 319 907 555 c 0xec
907 946 m 1
 907 1097 l 1
 1089 1097 l 1xdc
 1089 -421 l 1
 909 -441 l 1
 907 150 l 1
 830 49 733 -25 564 -25 c 0
 245 -25 106 248 106 568 c 0
 106 879 256 1130 565 1130 c 0
 741 1130 836 1056 907 946 c 1
EndSplineSet
EndChar

StartChar: question
Encoding: 31 63 273
Width: 1229
VWidth: 0
Flags: W
HStem: -12 228<328 570> 1451 155<230.666 658.734>
VStem: 328 242<-12 216> 349 174<402.58 569 570 684.825> 773 186<1074.49 1349.41>
LayerCount: 2
Fore
SplineSet
328 -12 m 1xe8
 328 216 l 1
 570 216 l 1
 570 -12 l 1
 328 -12 l 1xe8
959 1231 m 0
 959 924.77 523 805.837 523 556 c 0
 523 501 533 447 542 400 c 1
 360 400 l 1
 353 455 349 512 349 569 c 1xd8
 348 570 l 1
 348 789 552 880 663 993 c 0
 719 1050 773 1117 773 1222 c 0
 773 1392 616 1451 447 1451 c 0
 337 1451 244 1418 168 1377 c 1
 168 1535 l 1
 246 1572 338 1606 447 1606 c 0
 725 1606 959 1509 959 1231 c 0
EndSplineSet
EndChar

StartChar: questiondown
Encoding: 126 191 274
Width: 1229
VWidth: 0
Flags: W
HStem: -13 155<468.31 896.474> 1376 228<557 799>
VStem: 168 187<240.403 518.4> 557 242<1376 1604> 604 175<907.3 1023 1024 1190.33>
LayerCount: 2
Fore
SplineSet
799 1604 m 1xf0
 799 1376 l 1
 557 1376 l 1
 557 1604 l 1
 799 1604 l 1xf0
168 361 m 0
 168 669.388 604 784.555 604 1037 c 0
 604 1092 595 1146 586 1193 c 1
 767 1193 l 1
 774 1136 778 1080 778 1024 c 1
 779 1023 l 1xe8
 779 805 576 712 465 600 c 0
 409 544 355 475 355 371 c 0
 355 199 509 142 680 142 c 0
 790 142 883 175 959 216 c 1
 959 58 l 1
 882 21 788 -13 680 -13 c 0
 403 -13 168 84 168 361 c 0
EndSplineSet
EndChar

StartChar: quotedbl
Encoding: 2 34 275
Width: 1229
VWidth: 0
Flags: W
HStem: 1036 532<324 467 693 834>
VStem: 324 143<1036 1185.54> 693 141<1036 1185.54>
LayerCount: 2
Fore
SplineSet
885 1568 m 1
 834 1036 l 1
 693 1036 l 1
 654 1568 l 1
 885 1568 l 1
518 1568 m 1
 467 1036 l 1
 324 1036 l 1
 285 1568 l 1
 518 1568 l 1
EndSplineSet
EndChar

StartChar: quotedblbase
Encoding: 533 8222 276
Width: 1229
VWidth: 0
Flags: W
HStem: -258 476<360 391 755 787>
LayerCount: 2
Fore
SplineSet
958 218 m 1
 787 -258 l 1
 641 -258 l 1
 755 218 l 1
 958 218 l 1
561 218 m 1
 391 -258 l 1
 244 -258 l 1
 360 218 l 1
 561 218 l 1
EndSplineSet
EndChar

StartChar: quotedblleft
Encoding: 531 8220 277
Width: 1229
VWidth: 0
Flags: W
HStem: 1110 478<790 821 1176 1208>
LayerCount: 2
Fore
SplineSet
233 1110 m 1
 404 1588 l 1
 551 1588 l 1
 435 1110 l 1
 233 1110 l 1
620 1110 m 1
 790 1588 l 1
 938 1588 l 1
 822 1110 l 1
 620 1110 l 1
EndSplineSet
EndChar

StartChar: quotedblright
Encoding: 532 8221 278
Width: 1229
VWidth: 0
Flags: W
HStem: 1110 478<349 380 712 742>
VStem: 233 680
LayerCount: 2
Fore
SplineSet
913 1588 m 1
 742 1110 l 1
 595 1110 l 1
 712 1588 l 1
 913 1588 l 1
550 1588 m 1
 380 1110 l 1
 233 1110 l 1
 349 1588 l 1
 550 1588 l 1
EndSplineSet
EndChar

StartChar: quoteleft
Encoding: 527 8216 279
Width: 1229
VWidth: 0
Flags: W
HStem: 1110 478<617 647>
VStem: 446 316
LayerCount: 2
Fore
SplineSet
446 1110 m 1
 617 1588 l 1
 762 1588 l 1
 647 1110 l 1
 446 1110 l 1
EndSplineSet
EndChar

StartChar: quoteright
Encoding: 528 8217 280
Width: 1229
VWidth: 0
Flags: W
HStem: 1110 478<563 592>
VStem: 446 315
LayerCount: 2
Fore
SplineSet
761 1588 m 1
 592 1110 l 1
 446 1110 l 1
 563 1588 l 1
 761 1588 l 1
EndSplineSet
EndChar

StartChar: quotesinglbase
Encoding: 529 8218 281
Width: 1229
VWidth: 0
Flags: W
HStem: -258 476<574 604>
VStem: 457 316
LayerCount: 2
Fore
SplineSet
773 218 m 1
 604 -258 l 1
 457 -258 l 1
 574 218 l 1
 773 218 l 1
EndSplineSet
EndChar

StartChar: quotesingle
Encoding: 7 39 282
Width: 1229
VWidth: 0
Flags: W
HStem: 969 611<558 700>
VStem: 558 142<969 1110.28>
LayerCount: 2
Fore
SplineSet
558 969 m 1
 496 1580 l 1
 755 1580 l 1
 700 969 l 1
 558 969 l 1
EndSplineSet
EndChar

StartChar: r
Encoding: 82 114 283
Width: 1229
VWidth: 0
Flags: W
PickledData: "(dp1
S'com.typemytype.robofont.layerData'
p2
(dp3
S'back'
p4
(dp5
S'name'
p6
S'r'
sS'lib'
p7
(dp8
sS'unicodes'
p9
(tsS'width'
p10
I1229
sS'contours'
p11
(tsS'components'
p12
(tsS'anchors'
p13
(tsss."
HStem: 0 21G<361 543> 961 169<737.193 1036> 1077 20G<361 511.478>
VStem: 361 182<0 799.086> 361 149<902.986 1097>
LayerCount: 2
Fore
SplineSet
543 0 m 1xd0
 361 0 l 1xd0
 361 1097 l 1
 510 1097 l 1xa8
 525 894 l 1
 616 1051 767 1130 948 1130 c 2
 1036 1130 l 1
 1036 961 l 1
 922 961 l 2
 698 961 543 853 543 610 c 2
 543 0 l 1xd0
EndSplineSet
EndChar

StartChar: radical
Encoding: 565 8730 285
Width: 1229
VWidth: 0
Flags: W
VStem: 1125 144<1588 1732>
DStem2: 23 840 45 719 0.985651 0.168796<1.25994 194.583> 350 896 236 749 0.372265 -0.928127<93.9964 908.216> 668 45 753 -166 0.262343 0.964975<0 1747.8>
LayerCount: 2
Fore
SplineSet
668 45 m 1
 805 620 974 1170 1125 1732 c 1
 1269 1732 l 1
 753 -166 l 1
 603 -166 l 1
 236 749 l 1
 45 719 l 1
 23 840 l 1
 350 896 l 1
 460 617 577 339 668 45 c 1
EndSplineSet
EndChar

StartChar: rcommaaccent
Encoding: 278 343 287
Width: 1229
VWidth: 0
Flags: W
PickledData: "(dp1
S'com.typemytype.robofont.layerData'
p2
(dp3
S'back'
p4
(dp5
S'name'
p6
S'rcommaaccent'
p7
sS'lib'
p8
(dp9
sS'unicodes'
p10
(tsS'width'
p11
I1229
sS'contours'
p12
(tsS'components'
p13
(tsS'anchors'
p14
(tsss."
HStem: 0 21<361 543> 961 169<737.193 1036> 1077 20<361 511.478>
VStem: 361 149<902.986 1097> 361 182<0 799.086>
LayerCount: 2
Fore
SplineSet
759 -122 m 1x80
 578 -624 l 1
 433 -624 l 1
 551 -122 l 1
 759 -122 l 1x80
EndSplineSet
Refer: 283 114 N 1 0 0 1 0 0 2
EndChar

StartChar: registered
Encoding: 109 174 288
Width: 1229
VWidth: 0
Flags: W
HStem: -37 127<648.039 1192.46> 721 127<718 915.971> 1162 132<715 1108.2> 1482 126<634.322 1169.96>
VStem: 6 140<544.226 1029.43> 554 164<296 721 848 1162> 1160 171<893.891 1113.59> 1650 143<528.449 1016.93>
LayerCount: 2
Fore
SplineSet
853 848 m 2
 862.277 848 871.551 848 880.787 848 c 0
 1024.88 848 1160 852.398 1160 999 c 0
 1160 1123 1075 1162 954 1162 c 2
 715 1162 l 1
 715 848 l 1
 853 848 l 2
1167 296 m 1
 1083 438 1000 625 869 721 c 1
 718 721 l 1
 718 296 l 1
 554 296 l 1
 554 1294 l 1
 855 1294 l 1
 854 1293 l 1
 1089 1293 1331 1248 1331 1014 c 0
 1331 842 1194 758 1038 740 c 1
 1166 618 1257 449 1353 296 c 1
 1167 296 l 1
146 788 m 0
 146 315 554 90 928 90 c 0
 1371 90 1650 422 1650 761 c 0
 1650 1223 1283 1482 922 1482 c 0
 449 1482 146 1179 146 788 c 0
1793 785 m 1
 1793 431 1588 199 1353 74 c 0
 1232 10 1081 -37 904 -37 c 0
 536 -37 274 139 129 366 c 0
 58 477 6 615 6 786 c 0
 6 1141 215 1371 449 1497 c 0
 570 1562 720 1608 898 1608 c 0
 1266 1608 1524 1430 1669 1203 c 0
 1739 1093 1792 954 1792 785 c 1
 1793 785 l 1
EndSplineSet
EndChar

StartChar: ring
Encoding: 333 730 289
Width: 1229
VWidth: 0
Flags: W
HStem: 1247 93<519.937 715.648> 1568 93<520.232 719.41>
VStem: 387 110<1363.1 1541.47> 743 109<1369.18 1544.69>
LayerCount: 2
Fore
SplineSet
852 1455 m 0
 852 1333 744 1247 622 1247 c 0
 495 1247 387 1329 387 1455 c 0
 387 1581 494 1661 621 1661 c 0
 745 1661 852 1579 852 1455 c 0
632 1568 m 0
 557 1568 497 1529 497 1454 c 0
 497 1393 541 1340 603 1340 c 0
 679 1340 743 1379 743 1456 c 0
 743 1516 693 1568 632 1568 c 0
EndSplineSet
EndChar

StartChar: s
Encoding: 83 115 290
Width: 1229
VWidth: 0
Flags: W
PickledData: "(dp1
S'com.typemytype.robofont.layerData'
p2
(dp3
S'back'
p4
(dp5
S'name'
p6
S's'
sS'lib'
p7
(dp8
sS'unicodes'
p9
(tsS'width'
p10
I1229
sS'contours'
p11
((dp12
S'points'
p13
((dp14
S'segmentType'
p15
S'curve'
p16
sS'x'
F621
sS'smooth'
p17
I01
sS'y'
F136
s(dp18
S'y'
F136
sS'x'
F760
sg17
I00
s(dp19
S'y'
F165
sS'x'
F884
sg17
I00
s(dp20
g15
S'curve'
p21
sS'x'
F884
sg17
I01
sS'y'
F304
s(dp22
S'y'
F447
sS'x'
F884
sg17
I00
s(dp23
S'y'
F466
sS'x'
F667
sg17
I00
s(dp24
g15
S'curve'
p25
sS'x'
F550
sg17
I01
sS'y'
F496
s(dp26
S'y'
F539
sS'x'
F381
sg17
I00
s(dp27
S'y'
F607
sS'x'
F216
sg17
I00
s(dp28
g15
S'curve'
p29
sS'x'
F216
sg17
I01
sS'y'
F819
s(dp30
S'y'
F1034
sS'x'
F216
sg17
I00
s(dp31
S'y'
F1130
sS'x'
F414
sg17
I00
s(dp32
g15
S'curve'
p33
sS'x'
F628
sg17
I01
sS'y'
F1130
s(dp34
S'y'
F1130
sS'x'
F784
sg17
I00
s(dp35
S'y'
F1113
sS'x'
F918
sg17
I00
s(dp36
g15
S'curve'
p37
sS'x'
F1031
sg17
I00
sS'y'
F1061
s(dp38
g15
S'line'
p39
sS'x'
F973
sg17
I00
sS'y'
F914
s(dp40
S'y'
F965
sS'x'
F881
sg17
I00
s(dp41
S'y'
F990
sS'x'
F759
sg17
I00
s(dp42
g15
S'curve'
p43
sS'x'
F637
sg17
I01
sS'y'
F990
s(dp44
S'y'
F990
sS'x'
F530
sg17
I00
s(dp45
S'y'
F949
sS'x'
F427
sg17
I00
s(dp46
g15
S'curve'
p47
sS'x'
F427
sg17
I01
sS'y'
F825
s(dp48
S'y'
F678
sS'x'
F427
sg17
I00
s(dp49
S'y'
F662
sS'x'
F641
sg17
I00
s(dp50
g15
S'curve'
p51
sS'x'
F761
sg17
I01
sS'y'
F630
s(dp52
S'y'
F586
sS'x'
F927
sg17
I00
s(dp53
S'y'
F528
sS'x'
F1095
sg17
I00
s(dp54
g15
S'curve'
p55
sS'x'
F1095
sg17
I01
sS'y'
F319
s(dp56
S'y'
F77
sS'x'
F1095
sg17
I00
s(dp57
S'y'
F-25
sS'x'
F877
sg17
I00
s(dp58
g15
S'curve'
p59
sS'x'
F636
sg17
I01
sS'y'
F-25
s(dp60
S'y'
F-25
sS'x'
F464
sg17
I00
s(dp61
S'y'
F3
sS'x'
F304
sg17
I00
s(dp62
g15
S'curve'
p63
sS'x'
F203
sg17
I00
sS'y'
F76
s(dp64
g15
S'line'
p65
sS'x'
F261
sg17
I00
sS'y'
F231
s(dp66
S'y'
F166
sS'x'
F353
sg17
I00
s(dp67
S'y'
F136
sS'x'
F475
sg17
I00
stp68
stp69
sS'components'
p70
(tsS'anchors'
p71
(tsss."
HStem: -25 151<365.811 786.948> 989 141<477.389 873.834>
VStem: 247 166<713.125 926.073> 853 168<189.892 416.444>
DStem2: 557 670 514 515 0.971033 -0.238945<-140.835 332.248>
LayerCount: 2
Fore
SplineSet
1021 299 m 0
 1021 92 848.009 -25 637 -25 c 0
 473 -25 311 24 244 74 c 1
 289 205 l 1
 330 179 462 126 614 126 c 0
 759.003 126 853 184 853 301 c 0
 853 371.007 832 438 700 470 c 2
 514 515 l 2
 292 569 247 679.985 247 816 c 0
 247 970 369 1128 609 1130 c 1
 622 1130 l 2
 760 1130 879 1099 961 1055 c 1
 921 927 l 1
 862 952 744 989 625 989 c 0
 506 988 413 928 413 815 c 0
 413 746.993 437 699 557 670 c 2
 748 623 l 2
 935 577 1021 484.011 1021 299 c 0
EndSplineSet
EndChar

StartChar: scommaaccent
Encoding: 327 537 295
Width: 1229
VWidth: 0
Flags: W
HStem: -25 161<357.329 822.75> 969 161<473.953 942.036>
VStem: 216 211<729.252 921.41> 884 211<195.195 398.414>
LayerCount: 2
Fore
SplineSet
812 -176 m 1
 631 -678 l 1
 486 -678 l 1
 604 -176 l 1
 812 -176 l 1
621 136 m 0
 760 136 884 165 884 304 c 0
 884 447 667 466 550 496 c 0
 381 539 216 607 216 819 c 0
 216 1034 414 1130 628 1130 c 0
 784 1130 918 1113 1031 1061 c 1
 973 914 l 1
 881 951 759 969 637 969 c 0
 530 969 427 933 427 825 c 0
 427 678 641 662 761 630 c 0
 927 586 1095 528 1095 319 c 0
 1095 77 877 -25 636 -25 c 0
 464 -25 304 3 203 76 c 1
 261 231 l 1
 353 166 475 136 621 136 c 0
EndSplineSet
EndChar

StartChar: section
Encoding: 102 167 296
Width: 1229
VWidth: 0
Flags: W
HStem: -52 149<331.816 757.514> 5 161<272 433> 1473 148<523.435 929.878>
VStem: 244 195<705.708 914.329> 283 190<1217.37 1427.13> 829 192<165.455 360.85> 849 198<679.352 877.005>
LayerCount: 2
Fore
SplineSet
692 594 m 1x32
 755 631 849 689 849 786 c 0
 849 909 668 949 586 991 c 1
 521 957 439 902 439 806 c 0
 439 681 603 631 692 594 c 1x32
960 1416 m 1
 889 1447 807 1473 711 1473 c 0
 594 1473 473 1448 473 1330 c 0
 473 1180 651 1134 760 1089 c 0
 886 1036 1047 976 1047 800 c 0xaa
 1047 659 933 577 842 522 c 1
 932 476 1021 401 1021 274 c 0
 1021 48 797 -52 572 -52 c 0xa4
 457 -52 359 -31 273 5 c 1
 272 166 l 1x64
 354 128 453 97 566 97 c 0
 692 97 829 138 829 264 c 0
 829 399 635 440 536 481 c 0
 402 536 244 606 244 793 c 0xb4
 244 935 355 1010 451 1060 c 1
 362 1112 283 1185 283 1315 c 0xa8
 283 1541 480 1621 706 1621 c 0
 798 1621 884 1598 959 1576 c 1
 960 1416 l 1
EndSplineSet
EndChar

StartChar: semicolon
Encoding: 27 59 297
Width: 1229
VWidth: 0
Flags: W
HStem: 838 301<479 778>
VStem: 479 299<838 1139>
LayerCount: 2
Fore
SplineSet
778 838 m 1
 479 838 l 1
 479 1139 l 1
 778 1139 l 1
 778 838 l 1
410 -313 m 1
 486 286 l 1
 758 286 l 1
 590 -313 l 1
 410 -313 l 1
EndSplineSet
EndChar

StartChar: seven
Encoding: 23 55 298
Width: 1229
VWidth: 0
Flags: W
HStem: 0 21G<372 610.295> 1323 169<143 790>
VStem: 372 232<0 232>
LayerCount: 2
Fore
SplineSet
143 1323 m 1
 143 1492 l 1
 1028 1492 l 1
 1028 1347 l 1
 604 0 l 1
 372 0 l 1
 790 1323 l 1
 143 1323 l 1
EndSplineSet
EndChar

StartChar: six
Encoding: 22 54 299
Width: 1229
VWidth: 0
Flags: W
HStem: -26 154.994<481.686 785.711> 765 146<499.965 794.969> 1472 20G<755.61 1014>
VStem: 154 198<264.439 618.303> 772 242<1250 1492> 922 192<268.803 624.923>
DStem2: 318 938 474 852 0.644871 0.764291<34.8708 716.189>
LayerCount: 2
Fore
SplineSet
638.059 128.994 m 0xf4
 809.501 128.994 922 267.505 922 445 c 0
 922 618 823 765 650 765 c 0
 452 765 352 615 352 437 c 0
 352 263.641 463.177 128.994 638.059 128.994 c 0xf4
640 -26 m 0
 333 -26 154 167 154 472 c 0
 154 663 224.939 824.441 318 938 c 2
 772 1492 l 1
 1014 1492 l 1xf8
 474 852 l 1
 525 884 611 911 690 911 c 0
 952 911 1114 711 1114 449 c 0
 1114 149 885 -26 640 -26 c 0
EndSplineSet
EndChar

StartChar: slash
Encoding: 15 47 300
Width: 1229
VWidth: 0
Flags: W
PickledData: "(dp1
S'com.typemytype.robofont.layerData'
p2
(dp3
S'back'
p4
(dp5
S'name'
p6
S'slash'
p7
sS'lib'
p8
(dp9
sS'unicodes'
p10
(tsS'width'
p11
I1229
sS'contours'
p12
(tsS'components'
p13
(tsS'anchors'
p14
(tsss."
HStem: 1565 20G<879.228 1084>
DStem2: 184 -224 375 -224 0.364904 0.931045<69.6966 1940.79>
LayerCount: 2
Fore
SplineSet
887 1585 m 1
 1084 1585 l 1
 375 -224 l 1
 184 -224 l 1
 887 1585 l 1
EndSplineSet
EndChar

StartChar: sterling
Encoding: 98 163 302
Width: 1229
VWidth: 0
Flags: W
PickledData: "(dp1
S'com.typemytype.robofont.layerData'
p2
(dp3
S'back'
p4
(dp5
S'name'
p6
S'sterling'
p7
sS'lib'
p8
(dp9
sS'unicodes'
p10
(tsS'width'
p11
I1229
sS'contours'
p12
(tsS'components'
p13
(tsS'anchors'
p14
(tsss."
HStem: 0 153<401 1038> 756 147<119 320 511 874> 1418 154<605.425 921.669>
VStem: 321 190<295.604 756 903 1313.8>
LayerCount: 2
Fore
SplineSet
1038 0 m 1
 120 0 l 1
 119 150 l 1
 236 215 321 300 321 478 c 2
 321 756 l 1
 119 756 l 1
 119 903 l 1
 320 903 l 1
 315 945 313 986 313 1026 c 0
 313 1344 410 1572 744 1572 c 0
 896 1572 964 1528 1018 1473 c 1
 960 1343 l 1
 919 1381 867 1418 751 1418 c 0
 541.99 1418 504 1253 504 1028 c 1
 508 903 l 1
 874 903 l 1
 874 756 l 1
 511 756 l 1
 511 605 l 2
 511 421 501 231 401 153 c 1
 1038 153 l 1
 1038 0 l 1
EndSplineSet
EndChar

StartChar: summation
Encoding: 563 8721 303
Width: 1229
VWidth: 0
Flags: W
HStem: -358 161<336 1362> 1391 154<371 1311>
DStem2: 74 -260 336 -197 0.636557 0.77123<215.365 1113.81> 371 1391 100 1442 0.629516 -0.776987<0 874.735>
LayerCount: 2
Fore
SplineSet
74 -358 m 1
 74 -260 l 1
 783 599 l 1
 100 1442 l 1
 100 1545 l 1
 1311 1545 l 1
 1311 1391 l 1
 371 1391 l 1
 1005 609 l 1
 336 -197 l 1
 1362 -197 l 1
 1362 -358 l 1
 74 -358 l 1
EndSplineSet
EndChar

StartChar: t
Encoding: 84 116 304
Width: 1229
VWidth: 0
Flags: W
PickledData: "(dp1
S'com.typemytype.robofont.layerData'
p2
(dp3
S'back'
p4
(dp5
S'name'
p6
S't'
sS'lib'
p7
(dp8
sS'unicodes'
p9
(tsS'width'
p10
I1229
sS'contours'
p11
(tsS'components'
p12
(tsS'anchors'
p13
(tsss."
HStem: 0 140<658.804 1044> 957 140<111 401 583 1045>
VStem: 401 182<210.864 957 1097 1475>
LayerCount: 2
Fore
SplineSet
583 957 m 1
 583 442 l 2
 583 195 632 140 853 140 c 2
 1054 140 l 1
 1044 0 l 1
 860 0 l 2
 467 0 401 118 401 488 c 2
 401 957 l 1
 91 957 l 1
 111 1097 l 1
 401 1097 l 1
 401 1475 l 1
 583 1529 l 1
 583 1097 l 1
 1045 1097 l 1
 1045 957 l 1
 583 957 l 1
EndSplineSet
EndChar

StartChar: thorn
Encoding: 189 254 306
Width: 1229
VWidth: 0
Flags: W
HStem: -464 21G<158 341> -25 143<516.578 866.329> 996 145<514.538 884.56> 1560 20G<158 342>
VStem: 158 184<-464 146 307.983 796.684 957 1580> 1048 197<328.109 802.656>
LayerCount: 2
Fore
SplineSet
1048 565 m 0
 1048 816 953 996 699 996 c 0
 434 996 340 798 340 536 c 0
 340 299 455 118 695 118 c 0
 941 118 1048 321 1048 565 c 0
342 957 m 1
 425 1065 545 1141 723 1141 c 0
 1063 1141 1246 908 1246 572 c 1
 1245 572 l 1
 1245 215 1029 -25 728 -25 c 0
 553 -25 426 44 341 146 c 1
 341 -464 l 1
 158 -464 l 1
 158 1580 l 1
 342 1580 l 1
 342 957 l 1
EndSplineSet
EndChar

StartChar: three
Encoding: 19 51 307
Width: 1229
VWidth: 0
Flags: W
HStem: -12 169<355.966 768.482> 705 178<373 722.829> 1349 167<362.06 753.524>
VStem: 844 221<986.509 1263.88> 895 225<274.443 572.628>
LayerCount: 2
Fore
SplineSet
577 157 m 0xe8
 768 157 895 250 895 432 c 0xe8
 895 640 695 704 483 705 c 1
 373 705 l 1
 373 883 l 1
 483 885 l 2
 681 888 844 931 844 1128 c 0
 844 1269 747 1349 573 1349 c 0
 426 1349 312 1292 232 1221 c 1
 163 1382 l 1
 267 1470 410 1516 597 1516 c 0
 867 1516 1065 1375 1065 1143 c 0xf0
 1065 938 907 843 739 803 c 1
 927 770 1120 652 1120 413 c 0
 1120 111 871 -12 567 -12 c 0
 399 -12 255 43 161 113 c 1
 231 273 l 1
 293 219 432 157 577 157 c 0xe8
EndSplineSet
EndChar

StartChar: threequarters
Encoding: 125 190 308
Width: 1229
VWidth: 0
Flags: W
HStem: -1 21G<290 469.829 1456.89 1516> 248 115<1119 1381 1518 1639> 636 125<140.375 432.292> 1051 130<181 415.897> 1434 130<143.364 425.989>
VStem: 290 167<-1 166> 453 147<1218.41 1405.63> 480 144<807.949 1005.08> 1293 164<1394 1558> 1383 133<44 248 363 726>
DStem2: 290 -1 457 -1 0.541057 0.840986<90.3566 1853.78> 965 346 1119 363 0.582058 0.813148<103.46 552.296>
LayerCount: 2
Fore
SplineSet
1381 363 m 1xf840
 1381 509 l 2
 1381 582 1381 654 1383 726 c 1
 1119 363 l 1
 1381 363 l 1xf840
86 846 m 1
 135 802 200 761 287 761 c 1
 287 760 l 1
 390 760 480 804 480 907 c 0xf9
 480 1026 362 1053 243 1053 c 1
 181 1051 l 1
 181 1181 l 1
 310 1181 453 1182 453 1312 c 0
 453 1403 389 1434 298 1434 c 0
 209 1434 138 1391 85 1350 c 1
 20 1454 l 1
 87 1517 178 1564 300 1564 c 0
 467 1564 600 1472 600 1306 c 0xfa
 600 1223 560 1161 481 1120 c 1
 565 1084 624 1016 624 905 c 0xf9
 624 731 467 636 292 636 c 0
 174 636 85 679 20 741 c 1
 86 846 l 1
457 -1 m 1xfc80
 290 -1 l 1
 1293 1558 l 1
 1457 1558 l 1
 457 -1 l 1xfc80
1383 248 m 1xf840
 965 248 l 1
 965 346 l 1
 1368 909 l 1
 1518 909 l 1
 1518 363 l 1
 1639 363 l 1
 1650 248 l 1
 1516 248 l 1
 1516 -1 l 1
 1383 44 l 1
 1383 248 l 1xf840
EndSplineSet
EndChar

StartChar: tilde
Encoding: 335 732 309
Width: 1229
VWidth: 0
Flags: W
HStem: 1289 142<677.696 884.027> 1405 143<404.406 624.241>
VStem: 254 137<1303 1392.32> 899 138<1444.37 1536>
LayerCount: 2
Fore
SplineSet
1037 1536 m 1xb0
 1030 1397 961 1289 814 1289 c 0xb0
 672 1289 622 1405 483 1405 c 0
 420 1405 393 1362 391 1303 c 1
 254 1303 l 1
 257 1451 336 1548 488 1548 c 0x70
 633 1548 677 1431 818 1431 c 0
 876 1431 895 1482 899 1536 c 1
 1037 1536 l 1xb0
EndSplineSet
EndChar

StartChar: trademark
Encoding: 553 8482 310
Width: 1229
VWidth: 0
Flags: W
HStem: 1466 109<0 231 366 605>
VStem: 231 135<745 1466> 728 135<745 1390> 1262 136<745 1391>
DStem2: 914 1575 863 1390 0.391245 -0.920287<150.3 402.091> 1062 1201 1111 1016 0.39747 0.917615<0 253.841>
LayerCount: 2
Fore
SplineSet
605 1466 m 1
 366 1466 l 1
 366 745 l 1
 231 745 l 1
 231 1466 l 1
 0 1466 l 1
 0 1575 l 1
 605 1575 l 1
 605 1466 l 1
1062 1201 m 1
 1224 1575 l 1
 1398 1575 l 1
 1398 745 l 1
 1262 745 l 1
 1262 1391 l 1
 1111 1016 l 1
 1022 1016 l 1
 863 1390 l 1
 863 745 l 1
 728 745 l 1
 728 1575 l 1
 914 1575 l 1
 1062 1201 l 1
EndSplineSet
EndChar

StartChar: two
Encoding: 18 50 311
Width: 1229
VWidth: 0
Flags: W
PickledData: "(dp1
S'com.typemytype.robofont.layerData'
p2
(dp3
S'back'
p4
(dp5
S'name'
p6
S'two'
p7
sS'lib'
p8
(dp9
sS'unicodes'
p10
(tsS'width'
p11
I1229
sS'contours'
p12
(tsS'components'
p13
(tsS'anchors'
p14
(tsss."
HStem: 0 146<402 1043> 1341 175<349.514 711.663>
VStem: 805 204<912.091 1244.21>
DStem2: 196 191 402 146 0.635606 0.772014<96.1941 982.451>
LayerCount: 2
Fore
SplineSet
186 1395 m 1
 286 1474 388 1516 556 1516 c 0
 850 1516 1009 1341 1009 1088 c 0
 1009 857 856 682 746 552 c 2
 402 146 l 1
 1043 146 l 1
 1043 0 l 1
 196 0 l 1
 196 191 l 1
 634 723 l 2
 713 819 805 941 805 1083 c 0
 805 1247 719 1341 558 1341 c 0
 412 1341 336 1297 255 1239 c 1
 186 1395 l 1
EndSplineSet
EndChar

StartChar: u
Encoding: 85 117 312
Width: 1229
VWidth: 0
Flags: W
PickledData: "(dp1
S'com.typemytype.robofont.layerData'
p2
(dp3
S'back'
p4
(dp5
S'name'
p6
S'u'
sS'lib'
p7
(dp8
sS'unicodes'
p9
(tsS'width'
p10
I1230
sS'contours'
p11
(tsS'components'
p12
(tsS'anchors'
p13
(tsss."
HStem: -25 140<444.741 785.259> 1077 20G<191 373 857 1039>
VStem: 191 182<184.672 1097> 857 182<184.672 1097>
LayerCount: 2
Fore
SplineSet
615 -25 m 0
 349 -25 191 91 191 356 c 2
 191 1097 l 1
 373 1097 l 1
 373 340 l 2
 373 183 448 115 615 115 c 0
 782 115 857 183 857 340 c 2
 857 1097 l 1
 1039 1097 l 1
 1039 356 l 2
 1039 91 881 -25 615 -25 c 0
EndSplineSet
EndChar

StartChar: underscore
Encoding: 63 95 320
Width: 1229
VWidth: 0
Flags: W
HStem: -296 139<4 1076>
LayerCount: 2
Fore
SplineSet
4 -296 m 1
 4 -157 l 1
 1076 -157 l 1
 1076 -296 l 1
 4 -296 l 1
EndSplineSet
EndChar

StartChar: uni00B2
Encoding: 113 178 324
Width: 1229
VWidth: 0
Flags: W
HStem: 656 128<514 915> 1436 128<490.485 746.098>
VStem: 774 141<1208.31 1403.66>
LayerCount: 2
Fore
SplineSet
604 1564 m 0
 776 1564 916 1489 916 1317 c 0
 916 1191 839 1093 772 1020 c 0
 697 937 596 854 514 784 c 1
 915 784 l 1
 915 656 l 1
 312 656 l 1
 312 776 l 1
 459 910 644 1056 747 1233 c 0
 765 1264 774 1291 774 1315 c 1
 775 1315 l 1
 775 1399 705 1436 621 1436 c 0
 514 1436 450 1369 414 1294 c 1
 319 1378 l 1
 363 1477 464 1564 604 1564 c 0
EndSplineSet
EndChar

StartChar: uni00B3
Encoding: 114 179 325
Width: 1229
VWidth: 0
Flags: W
HStem: 636 125<433.535 725.907> 1051 130<473 708.665> 1434 130<436.057 718.83>
VStem: 746 147<1219.91 1405.63> 773 143<807.949 1005.08>
LayerCount: 2
Fore
SplineSet
379 846 m 1xe8
 427 802 494 761 580 761 c 1
 580 760 l 1
 683 760 773 804 773 907 c 0xe8
 773 1026 654 1053 535 1053 c 1
 473 1051 l 1
 473 1181 l 1
 602 1181 746 1182 746 1312 c 0
 746 1403 681 1434 590 1434 c 0
 501 1434 430 1391 377 1350 c 1
 313 1454 l 1
 380 1516 472 1564 593 1564 c 0
 760 1564 893 1472 893 1306 c 0xf0
 893 1211 841 1156 774 1120 c 1
 857 1084 916 1016 916 905 c 0
 916 731 761 636 586 636 c 0
 468 636 377 679 313 741 c 1
 379 846 l 1xe8
EndSplineSet
EndChar

StartChar: uni00B5
Encoding: 116 181 326
Width: 1229
VWidth: 0
Flags: W
HStem: -22 129<447.944 754.598> 0 21G<885.319 1054> 1077 20G<196 378 872 1054>
VStem: 196 182<-295 48.8887 180.804 1097> 872 182<217.95 1097> 887 167<0 119>
LayerCount: 2
Fore
SplineSet
378 48.8887 m 1xb4
 378 -295 l 1
 196 -295 l 1
 196 1097 l 1
 378 1097 l 1
 378 420.683 l 2
 378 254.172 383.402 107 601 107 c 0
 739 107 872 199 872 355 c 2
 872 1097 l 1
 1054 1097 l 1xb8
 1054 0 l 1
 887 0 l 1x74
 877 119 l 1
 814 37.3684 704 -22 537 -22 c 0
 474.238 -22 421.63 2.71567 378 48.8887 c 1xb4
EndSplineSet
EndChar

StartChar: uni00B9
Encoding: 120 185 327
Width: 1229
VWidth: 0
Flags: W
HStem: 656 125<430 564 698 833>
VStem: 564 134<785 1381>
LayerCount: 2
Fore
SplineSet
564 1381 m 1
 509 1353 455 1329 396 1306 c 1
 397 1447 l 1
 466 1470 524 1498 582 1533 c 1
 698 1549 l 1
 698 781 l 1
 833 781 l 1
 833 656 l 1
 430 656 l 1
 430 785 l 1
 564 785 l 1
 564 1381 l 1
EndSplineSet
EndChar

StartChar: uni2206
Encoding: 561 8710 328
Width: 1229
VWidth: 0
Flags: W
HStem: 0 176<189 1035>
LayerCount: 2
Fore
SplineSet
1035 176 m 1
 893 555 722 918 607 1322 c 1
 480 933 327 556 189 176 c 1
 1035 176 l 1
-62 0 m 1
 -62 87 l 1
 514 1552 l 1
 715 1552 l 1
 1291 87 l 1
 1291 0 l 1
 -62 0 l 1
EndSplineSet
EndChar

StartChar: v
Encoding: 86 118 330
Width: 1229
VWidth: 0
Flags: W
PickledData: "(dp1
S'com.typemytype.robofont.layerData'
p2
(dp3
S'back'
p4
(dp5
S'name'
p6
S'v'
sS'lib'
p7
(dp8
sS'unicodes'
p9
(tsS'width'
p10
I1229
sS'contours'
p11
(tsS'components'
p12
(tsS'anchors'
p13
(tsss."
HStem: 0 21G<503.27 721.785> 1077 20G<87 304.07 885 1141>
LayerCount: 2
Fore
SplineSet
618 189 m 1
 731 496 831 787 939 1097 c 1
 1141 1097 l 1
 714 0 l 1
 511 0 l 1
 87 1097 l 1
 297 1097 l 1
 618 189 l 1
EndSplineSet
EndChar

StartChar: w
Encoding: 87 119 331
Width: 1229
VWidth: 0
Flags: W
PickledData: "(dp1
S'com.typemytype.robofont.layerData'
p2
(dp3
S'back'
p4
(dp5
S'name'
p6
S'w'
sS'lib'
p7
(dp8
sS'unicodes'
p9
(tsS'width'
p10
I1229
sS'contours'
p11
(tsS'components'
p12
(tsS'anchors'
p13
(tsss."
HStem: 0 21G<234.098 428.281 807.159 1006.66> 1077 20G<24 210.093 516.679 742.242 1029.27 1204>
VStem: 24 183<914 1097> 1032 172<925 1097>
DStem2: 338 250 424 0 0.209319 0.977847<0 748.129> 738 1097 628 953 0.18858 -0.982058<120.673 862.613>
LayerCount: 2
Fore
SplineSet
424 0 m 1
 238 0 l 1
 24 1097 l 1
 207 1097 l 1
 338 250 l 1
 521 1097 l 1
 738 1097 l 1
 917 253 l 1
 1032 1097 l 1
 1204 1097 l 1
 1003 0 l 1
 811 0 l 1
 628 953 l 1
 424 0 l 1
EndSplineSet
EndChar

StartChar: x
Encoding: 88 120 332
Width: 1229
VWidth: 0
Flags: W
HStem: 0 21G<140 352.769 874.735 1089> 1077 20G<158 378.37 875.63 1077>
VStem: 140 200<0 200> 158 208<889 1097> 887 202<0 202 895 1097>
DStem2: 140 0 340 0 0.540758 0.841178<108.152 626.618> 366 1097 158 1097 0.553473 -0.832867<0 495.926 907.404 1202.01> 627 675 740 565 0.535128 0.844771<0 496.162>
LayerCount: 2
Fore
SplineSet
158 1097 m 1xd8
 366 1097 l 1xd8
 627 675 l 1
 888 1097 l 1
 1077 1097 l 1
 740 565 l 1
 1089 0 l 1
 887 0 l 1
 619 437 l 1
 340 0 l 1
 140 0 l 1xe8
 500 560 l 1
 158 1097 l 1xd8
EndSplineSet
EndChar

StartChar: y
Encoding: 89 121 333
Width: 1229
VWidth: 0
Flags: W
PickledData: "(dp1
S'com.typemytype.robofont.layerData'
p2
(dp3
S'back'
p4
(dp5
S'name'
p6
S'y'
sS'lib'
p7
(dp8
sS'unicodes'
p9
(tsS'width'
p10
I1229
sS'contours'
p11
(tsS'components'
p12
(tsS'anchors'
p13
(tsss."
HStem: -423 153<191 416.123> 1077 20G<99 303.829 927.476 1133>
VStem: 934 199<898 1097>
LayerCount: 2
Fore
SplineSet
644 208 m 1
 934 1097 l 1
 1133 1097 l 1
 1133 1097 835.088 255.657 743 17 c 0
 734.629 -4.6943 723 -34 714 -58 c 0
 584 -388 527 -423 191 -423 c 1
 170 -270 l 1
 408 -270 460 -267 549 24 c 1
 237 741 99 1097 99 1097 c 1
 296 1097 l 1
 644 208 l 1
EndSplineSet
EndChar

StartChar: yen
Encoding: 100 165 336
Width: 1229
VWidth: 0
Flags: W
HStem: 0 21G<611 803> 307 152<171 610 803 1236> 623 155<163 571 830 1232>
VStem: 78 227<1314 1541> 611 192<0 307 459 623> 1127 207<1334 1541>
DStem2: 305 1541 78 1541 0.542703 -0.839924<0 785.221>
LayerCount: 2
Fore
SplineSet
611 0 m 1
 611 307 l 1
 171 307 l 1
 159 459 l 1
 610 459 l 1
 610 623 l 1
 163 623 l 1
 163 778 l 1
 571 778 l 1
 78 1541 l 1
 305 1541 l 1
 443 1314 581 1095 715 864 c 1
 1127 1541 l 1
 1334 1541 l 1
 830 778 l 1
 1232 778 l 1
 1232 623 l 1
 800 623 l 1
 800 459 l 1
 1236 459 l 1
 1236 307 l 1
 803 307 l 1
 803 0 l 1
 611 0 l 1
EndSplineSet
EndChar

StartChar: z
Encoding: 90 122 337
Width: 1229
VWidth: 0
Flags: W
PickledData: "(dp1
S'com.typemytype.robofont.layerData'
p2
(dp3
S'back'
p4
(dp5
S'name'
p6
S'z'
sS'lib'
p7
(dp8
sS'unicodes'
p9
(tsS'width'
p10
I1229
sS'contours'
p11
(tsS'components'
p12
(tsS'anchors'
p13
(tsss."
HStem: 0 140<402 992> 957 140<223 746>
DStem2: 203 142 402 140 0.559595 0.828767<109.702 979.305>
LayerCount: 2
Fore
SplineSet
223 1097 m 1
 955 1097 l 1
 955 959 l 1
 402 140 l 1
 992 138 l 1
 992 0 l 1
 203 0 l 1
 203 142 l 1
 746 957 l 1
 223 957 l 1
 223 1097 l 1
EndSplineSet
EndChar

StartChar: zero
Encoding: 16 48 341
Width: 1229
VWidth: 0
Flags: W
HStem: -25 155<492.132 734.115> 1363 153<496.314 732.643>
VStem: 123 196<397.12 1098.72> 909 196<401.117 1098.29>
DStem2: 391 313 487 176 0.337951 0.941164<0 958.655>
LayerCount: 2
Fore
SplineSet
841 1170 m 1
 487 176 l 1
 523 146 566 130 614 130 c 0
 810 130 909 401 909 746 c 0
 909 911 886 1060 841 1170 c 1
614 -25 m 0
 275 -25 123 337 123 747 c 0
 123 1124 242 1516 614 1516 c 0
 986 1516 1105 1124 1105 747 c 0
 1105 337 953 -25 614 -25 c 0
614 1363 m 0
 417 1363 319 1091 319 746 c 0
 319 576 343 424 391 313 c 1
 749 1310 l 1
 711 1344 666 1363 614 1363 c 0
EndSplineSet
EndChar

StartChar: edotaccent
Encoding: 214 279 348
Width: 1229
VWidth: 0
HStem: -25 140<531.149 874.72> 520 133<373 888> 990 141<504.139 780.71> 1253 177<534 711>
VStem: 183 184<311.721 520 653 814.972> 534 177<1253 1430>
LayerCount: 2
Fore
SplineSet
534 1430 m 1
 711 1430 l 1
 711 1253 l 1
 534 1253 l 1
 534 1430 l 1
EndSplineSet
Refer: 165 101 N 1 0 0 1 0 0 3
EndChar

StartChar: Edotaccent
Encoding: 213 278 349
Width: 1229
VWidth: 0
HStem: 0 146<404 1093> 684 159<404 1026> 1345 146<404 1059> 1638 177<574 751>
VStem: 217 187<146 684 843 1345> 574 177<1638 1815>
LayerCount: 2
Fore
SplineSet
574 1815 m 1
 751 1815 l 1
 751 1638 l 1
 574 1638 l 1
 574 1815 l 1
EndSplineSet
Refer: 21 69 N 1 0 0 1 0 0 3
EndChar

StartChar: Tbar
Encoding: 293 358 350
Width: 1229
VWidth: 0
Flags: W
HStem: 0 21G<518 705> 561 140<275 518 705 954> 1345 146<94 518 705 1129>
VStem: 518 187<0 561 701 1345>
LayerCount: 2
Fore
SplineSet
275 561 m 1
 275 701 l 1
 518 701 l 1
 518 1345 l 1
 94 1345 l 1
 94 1491 l 1
 1129 1491 l 1
 1129 1345 l 1
 705 1345 l 1
 705 701 l 1
 954 701 l 1
 954 561 l 1
 705 561 l 1
 705 0 l 1
 518 0 l 1
 518 561 l 1
 275 561 l 1
EndSplineSet
EndChar

StartChar: tbar
Encoding: 294 359 351
Width: 1229
VWidth: 0
Flags: W
HStem: 0 140<658.804 1044> 580 140<200 401 583 879> 957 140<111 401 583 1045>
VStem: 401 182<210.864 580 720 957 1097 1475>
LayerCount: 2
Fore
SplineSet
200 580 m 1
 200 720 l 1
 401 720 l 1
 401 957 l 1
 91 957 l 1
 111 1097 l 1
 401 1097 l 1
 401 1475 l 1
 583 1529 l 1
 583 1097 l 1
 1045 1097 l 1
 1045 957 l 1
 583 957 l 1
 583 720 l 1
 879 720 l 1
 879 580 l 1
 583 580 l 1
 583 442 l 2
 583 195 632 140 853 140 c 2
 1054 140 l 1
 1044 0 l 1
 860 0 l 2
 467 0 401 118 401 488 c 2
 401 580 l 1
 200 580 l 1
EndSplineSet
EndChar

StartChar: eng
Encoding: 266 331 352
Width: 1229
VWidth: 0
Flags: W
HStem: -431 140<398 824.364> 0 21G<196 378> 990 140<503.305 801.128> 1077 20G<196 364.681>
VStem: 196 182<0 879.05> 196 167<978 1097> 871 182<-241.352 921.018>
LayerCount: 2
Fore
SplineSet
713 1130 m 0xe6
 966 1130 1054 955 1054 698 c 2
 1053 56 l 2
 1053 -270 1036 -431 661 -431 c 2
 398 -431 l 1
 398 -291 l 1
 660 -291 l 2
 846 -291 871 -247 871 0 c 2
 872 676.317 l 2
 872 842.828 866.598 990 649 990 c 0
 511 990 378 898 378 742 c 2
 378 0 l 1
 196 0 l 1xea
 196 1097 l 1
 363 1097 l 1xd6
 373 978 l 1
 436 1066 546 1130 713 1130 c 0xe6
EndSplineSet
EndChar

StartChar: Eng
Encoding: 265 330 353
Width: 1229
VWidth: 0
Flags: W
HStem: -458 159<345.235 838.537> 2 21G<129 316> 1363 155<492.886 817.779> 1471 20G<129 304.741>
VStem: 129 187<2 1206.54 1341.68 1491> 912 187<-214.245 1260.21>
LayerCount: 2
Back
SplineSet
345 -430 m 5
 334 -268 l 5
 334 -268 571 -299 676 -299 c 4
 832 -299 912 -209 912 -39 c 6
 912 555 l 5
 1099 701 l 5
 1099 13 l 6
 1099 -300 999 -458 682 -458 c 4
 579 -458 345 -430 345 -430 c 5
EndSplineSet
Fore
SplineSet
715 1518 m 0xec
 947.487 1519 1099 1364 1099 1009 c 2
 1099 13 l 2
 1099 -300 999 -458 682 -458 c 0
 579 -458 345 -430 345 -430 c 1
 334 -268 l 1
 334 -268 591.789 -299 706 -299 c 0
 842.169 -299 912 -209 912 -39 c 2
 912 1003 l 2
 912 1240 862.953 1363 660 1363 c 0xec
 462.921 1363 316 1250.96 316 1011.3 c 2
 316 2 l 1
 129 2 l 1
 129 1491 l 1
 303 1491 l 1xdc
 316 1341.68 l 1
 415.741 1461.33 547.464 1517.31 715 1518 c 0xec
EndSplineSet
EndChar

StartChar: afii00208
Encoding: 525 8213 354
Width: 1229
VWidth: 0
Flags: W
HStem: 672 155<323 3860>
LayerCount: 2
Fore
SplineSet
323 672 m 1
 323 827 l 1
 3860 827 l 1
 3860 672 l 1
 323 672 l 1
EndSplineSet
EndChar

